<svg version="1" xmlns="http://www.w3.org/2000/svg" width="933.333" height="933.333" viewBox="0 0 700.000000 700.000000"><path d="M550 35.5c-.1 6.5-.1 68.6 0 73.5v4.5h45.5l45.5.1V31.4h-91v4.1zM347.8 185.5c-.2.2-3.1.6-6.6.9-10.9 1.1-32.7 6.4-42.1 10.3-21.2 8.8-38.7 22.5-50.2 39.5-3.8 5.5-12.8 23.3-13.3 26.1-.1.7-.9 3.4-1.8 6.2-5.5 16.9-6.9 52-2.8 71 .5 2.2 1.1 5.7 1.4 7.9 1.3 8.1 8.8 35.4 11.6 42.1.5 1.1 3.4 8.1 6.4 15.5 3 7.4 7.1 17.1 9.1 21.5 4.3 9.3 29 58.7 43.7 87.3l10.1 19.7-14.4 28.2C291 577.3 284.3 590 284 590c-.3 0-1.3-1.9-2.2-4.2-1.7-4.6-21.5-50.4-24.8-57.5-1.1-2.4-2-4.5-2-4.9 0-.3-1.1-2.9-2.4-5.8-1.3-2.9-5.8-13.1-9.9-22.7-4.1-9.6-16.2-37.4-26.7-61.9-10.6-24.5-21.8-50.6-25-58-3.2-7.4-12.4-28.8-20.5-47.5s-15.3-35.4-15.9-37c-.6-1.7-1.4-3.5-1.7-4-.4-.6-2.3-4.9-4.3-9.8-3.2-7.7-5.9-14-8.7-20.2-.5-1.1-6.5-15.1-13.4-31l-12.5-29H67.5c-40.9 0-46.4.2-46 1.5.3.8 7.7 17.9 16.6 38 8.8 20.1 16.1 36.9 16.2 37.5.2.5.5 1.4.9 2 .3.5 6.1 13.6 12.8 29 6.7 15.4 15.6 35.6 19.7 45 4.1 9.3 8.1 18.6 9 20.5 2.5 5.9 24.6 56.3 27.8 63.5 3.4 7.7 25.7 58.8 26.4 60.8.5 1.2 2.2 5.1 3.9 8.7 1.6 3.6 6 13.5 9.7 22 3.7 8.5 8.1 18.3 9.6 21.8 1.6 3.4 2.9 6.4 2.9 6.7 0 .2 1.4 3.4 3.1 7.2 4 8.9 3.9 8.6 10.4 23.8 3.1 7.1 7.2 16.4 9 20.5 1.8 4.1 4.8 10.9 6.5 15 1.8 4.1 4.3 9.7 5.5 12.5 1.3 2.7 6 13.5 10.5 24 4.5 10.4 8.6 19.4 9 20 .7.8 85.5 1.3 100.7.6 1.8-.1 4.3-4.4 15.7-27.6 7.4-15.1 13.8-27.5 14.3-27.5.4.1 2.1 1.7 3.6 3.8 16.1 21.2 33.5 36.3 56 48.3 7.2 3.8 26.1 9.9 35.7 11.4 1.9.3 4.6.7 6 1 17.1 3 47.8 1.7 67.5-2.9 1.1-.2 3.4-.7 5-1.1 13.2-3 32.7-11.9 44.3-20.2 10.3-7.3 25.4-22.9 32.6-33.7 11.8-17.9 20.3-40.2 23.1-61.1.4-2.8 1-6.4 1.3-8 .3-1.7.6-83.9.6-182.7.1-159.6 0-179.7-1.4-180-.8-.2-19.7-.3-42-.3l-40.5.1-.1 173.4c-.1 95.4-.4 176-.8 179-3.3 27.7-18 46.8-41.6 53.9-28 8.6-57.2 1.7-73.3-17.1-3.5-4.2-23.9-34.5-32.8-48.8-1.5-2.4-1.2-3.3 11-28.1 38.7-78.9 40.8-83.3 46.3-96.9 1.6-4.1 3.5-8.9 4.3-10.5 4.2-9.8 13.2-41.5 15.9-56 2.5-13.8 3.4-25 3.1-39.5-.6-27.8-6.9-50.4-19.6-70-5-7.9-19.2-22.1-27.4-27.5-15.9-10.5-38.5-18.8-60-22.1-4.3-.7-30.1-1.4-30.7-.9zm19.2 81.8c14.1 2.5 26.1 13.9 30.1 28.4 1.6 5.6 1.8 9.2 1.5 20.8-.5 13.7-1 20-2 23.3-.3.9-.8 3-1.1 4.7-2.8 16.3-12.7 45.9-22 66-6.1 13.3-10.4 22.5-12.9 27.8l-2.8 5.7-4-8.2c-3.5-7.2-6.1-12.9-14.9-32.5-8.5-18.9-16.6-43-19.4-57.4-2.8-14.3-3.9-23.5-3.9-32.4 0-29.2 17.3-48.4 42.4-47 3.6.2 7.6.6 9 .8z"/></svg>