<?xml version="1.0" encoding="utf-8"?>
<!-- Generator: Adobe Illustrator 16.0.4, SVG Export Plug-In . SVG Version: 6.00 Build 0)  -->
<!DOCTYPE svg PUBLIC "-//W3C//DTD SVG 1.1//EN" "http://www.w3.org/Graphics/SVG/1.1/DTD/svg11.dtd">
<svg version="1.1" id="icons" xmlns="http://www.w3.org/2000/svg" xmlns:xlink="http://www.w3.org/1999/xlink" x="0px" y="0px"
	 width="54.195px" height="54px" viewBox="0 0 54.195 54" enable-background="new 0 0 54.195 54" xml:space="preserve">
<g>
	<path fill="#8DC63F" d="M26.939,53.5c-14.611,0-26.5-11.889-26.5-26.5c0-14.612,11.889-26.5,26.5-26.5
		c14.612,0,26.5,11.888,26.5,26.5C53.439,41.611,41.552,53.5,26.939,53.5z M26.939,4.5c-12.405,0-22.5,10.094-22.5,22.5
		s10.095,22.5,22.5,22.5c12.406,0,22.5-10.094,22.5-22.5S39.346,4.5,26.939,4.5z"/>
	<path fill="#444444" d="M28.445,33.958c-1.094-1.562-0.176-3.211,0.699-4.836h-0.021c0.354-0.631,0.571-1.349,0.571-2.123
		c0-2.416-1.959-4.375-4.375-4.375s-4.375,1.959-4.375,4.375c0,0.765,0.214,1.471,0.558,2.096h-0.023
		c1.679,3.25,1.445,5.692-1.324,6.339c-2.602,0.606-3.301,4.654-2.862,8.488c2.848,1.633,6.137,2.578,9.647,2.578
		c2.938,0,5.715-0.672,8.218-1.84c0.006-2.775-0.511-5.877-1.791-8.428C32.436,34.383,29.504,35.47,28.445,33.958z"/>
	<path fill="#444444" d="M45.297,33.51c-0.152-0.062-0.307-0.117-0.471-0.145c-3.341-0.555-2.527-3.26-2.107-4.188
		c0.418-0.927,0.477-1.144,0.477-1.799c0-2.074-1.682-3.756-3.756-3.756c-2.071,0-3.756,1.682-3.756,3.756
		c0,0.664,0.101,1.059,0.492,2.055c0.392,0.994,1.783,2.889,0.846,4.229c-0.608,0.869-2.264,0.598-2.42,0.87
		c-0.158,0.272,0.666,0.618,1.01,1.463c0.978,2.396,1.779,4.47,1.979,7.317C41.129,40.996,43.857,37.559,45.297,33.51z"/>
	<path fill="#444444" d="M16.242,36.505c0.641-1.313,3.473-1.885,2.223-2.526c-2.301-1.181-1.611-3.224-1.146-4.012
		c0.488-0.828,0.566-1.027,0.634-1.643c0.213-1.948-1.195-3.702-3.146-3.914c-1.947-0.212-3.701,1.197-3.912,3.146
		c-0.067,0.623-0.016,1.004,0.25,1.98c0.269,0.975,1.381,2.896,0.363,4.061c-0.738,0.842-1.674,0.41-2.666,0.615
		c1.279,3.2,3.381,5.979,6.045,8.084C14.924,40.218,15.377,38.28,16.242,36.505z"/>
</g>
</svg>
