<?xml version="1.0" encoding="utf-8"?>
<!-- Generator: Adobe Illustrator 16.0.4, SVG Export Plug-In . SVG Version: 6.00 Build 0)  -->
<!DOCTYPE svg PUBLIC "-//W3C//DTD SVG 1.1//EN" "http://www.w3.org/Graphics/SVG/1.1/DTD/svg11.dtd">
<svg version="1.1" id="icons" xmlns="http://www.w3.org/2000/svg" xmlns:xlink="http://www.w3.org/1999/xlink" x="0px" y="0px"
	 width="54.195px" height="54px" viewBox="0 0 54.195 54" enable-background="new 0 0 54.195 54" xml:space="preserve">
<g>
	<path fill="#8DC63F" d="M27.1,53.5C12.486,53.5,0.598,41.611,0.598,27c0-14.612,11.888-26.5,26.502-26.5
		c14.611,0,26.498,11.888,26.498,26.5C53.598,41.611,41.711,53.5,27.1,53.5z M27.1,4.5C14.693,4.5,4.598,14.594,4.598,27
		S14.693,49.5,27.1,49.5S49.598,39.406,49.598,27S39.506,4.5,27.1,4.5z"/>
	<rect x="28.092" y="20.404" fill="#8DC63F" width="4.648" height="18.378"/>
	<path fill="#444444" d="M38.74,14.688h-2.125v-1.55c0-1.497-1.22-2.716-2.718-2.716s-2.717,1.219-2.717,2.716v1.55h-8.166v-1.55
		c0-1.497-1.219-2.716-2.719-2.716c-1.496,0-2.715,1.219-2.715,2.716v1.55h-2.127c-1.697,0-3.078,1.381-3.078,3.078v20.325
		c0,1.698,1.381,3.079,3.078,3.079H38.74c1.696,0,3.077-1.381,3.077-3.079V17.767C41.818,16.069,40.438,14.688,38.74,14.688z
		 M38.818,20.678v2.104h-3.42v-2.104H38.818z M25.598,27.859h-3.801v-2.077h3.801V27.859z M28.598,25.782h3.801v2.077h-3.801V25.782
		z M18.797,27.859h-3.42v-2.077h3.42V27.859z M18.797,30.859v2.078h-3.42v-2.078H18.797z M21.797,30.859h3.801v2.078h-3.801V30.859z
		 M25.598,35.938v2.232h-3.801v-2.232H25.598z M28.598,35.938h3.801v2.232h-3.801V35.938z M28.598,32.938v-2.078h3.801v2.078H28.598
		z M35.398,30.859h3.42v2.078h-3.42V30.859z M35.398,27.859v-2.077h3.42v2.077H35.398z M32.398,20.678v2.104h-3.801v-2.104H32.398z
		 M25.598,20.678v2.104h-3.801v-2.104H25.598z M18.797,20.678v2.104h-3.42v-2.104H18.797z M15.377,38.092v-2.152h3.42v2.231h-3.342
		C15.412,38.171,15.377,38.136,15.377,38.092z M38.74,38.171h-3.343v-2.231h3.42v2.152C38.818,38.137,38.785,38.171,38.74,38.171z"
		/>
</g>
</svg>
