<?xml version="1.0" encoding="utf-8"?>
<!-- Generator: Adobe Illustrator 16.0.4, SVG Export Plug-In . SVG Version: 6.00 Build 0)  -->
<!DOCTYPE svg PUBLIC "-//W3C//DTD SVG 1.1//EN" "http://www.w3.org/Graphics/SVG/1.1/DTD/svg11.dtd">
<svg version="1.1" id="skull3" xmlns="http://www.w3.org/2000/svg" xmlns:xlink="http://www.w3.org/1999/xlink" x="0px" y="0px"
	 width="80px" height="80px" viewBox="0 -12.333 80 80" enable-background="new 0 -12.333 80 80" xml:space="preserve">
<g>
	<path fill="#444444" d="M11.772,27.214l20.28-5.434l0.385,1.438l-20.28,5.435L11.772,27.214z M15.353,35.197
		c0.543,0,0.984,0.438,0.984,0.982s-0.44,0.984-0.984,0.984s-0.984-0.44-0.984-0.984S14.81,35.197,15.353,35.197z M17.942,34.504
		c0.543,0,0.983,0.439,0.983,0.982s-0.44,0.982-0.983,0.982s-0.983-0.439-0.983-0.982S17.399,34.504,17.942,34.504z M20.531,33.81
		c0.543,0,0.983,0.44,0.983,0.983s-0.44,0.982-0.983,0.982c-0.542,0-0.983-0.439-0.983-0.982S19.988,33.81,20.531,33.81z
		 M23.12,33.115c0.543,0,0.983,0.439,0.983,0.982s-0.44,0.983-0.983,0.983s-0.983-0.44-0.983-0.983S22.577,33.115,23.12,33.115z
		 M25.709,32.423c0.543,0,0.983,0.44,0.983,0.983s-0.44,0.981-0.983,0.981s-0.983-0.438-0.983-0.981S25.166,32.423,25.709,32.423z
		 M28.298,31.729c0.543,0,0.983,0.44,0.983,0.983s-0.44,0.983-0.983,0.983s-0.983-0.44-0.983-0.983S27.755,31.729,28.298,31.729z
		 M30.887,31.035c0.542,0,0.983,0.438,0.983,0.981S31.43,33,30.887,33s-0.983-0.44-0.983-0.983S30.344,31.035,30.887,31.035z
		 M34.425,31.07c0.141,0.523-0.17,1.063-0.695,1.205c-0.524,0.141-1.064-0.17-1.205-0.697c-0.14-0.521,0.171-1.062,0.695-1.202
		C33.746,30.234,34.285,30.545,34.425,31.07z M36.064,29.648c0.543,0,0.983,0.439,0.983,0.982s-0.44,0.982-0.983,0.982
		s-0.983-0.439-0.983-0.982S35.521,29.648,36.064,29.648z M48.277,32.855c-1.305-0.024-2.535-0.723-3.204-1.882l-0.744-1.288
		c-0.259-0.445-0.409-0.925-0.463-1.408c-0.304,0.146-0.623,0.248-0.956,0.306c-1.047,0.186-2.098-0.101-2.91-0.726l1.146,4.277
		l-28.765,7.707l-1.465-5.466l28.159-7.545c-0.011-0.02-0.026-0.034-0.037-0.053l-0.894-1.548c-0.204-0.353-0.331-0.734-0.41-1.122
		l-27.589,7.395l-1.465-5.465l28.765-7.71l0.811,3.026c0.316-0.489,0.731-0.909,1.25-1.208l4.657-2.642l-0.977-3.642
		c-0.213-0.794-1.028-1.265-1.824-1.052L2.532,23.215c-0.794,0.213-1.266,1.029-1.053,1.824l7.245,27.039
		c0.213,0.795,1.03,1.266,1.823,1.052l38.834-10.405c0.793-0.212,1.266-1.029,1.053-1.822L48.277,32.855z"/>
	<path fill="#FF8500" d="M36.978,40.16c0.195,0.729-0.237,1.479-0.968,1.677l-14.472,3.879c-0.73,0.194-1.48-0.239-1.676-0.968
		l-0.603-2.247c-0.195-0.729,0.238-1.479,0.968-1.675l14.472-3.879c0.729-0.196,1.479,0.234,1.675,0.967L36.978,40.16z"/>
	<path fill="#FF8500" d="M54.875,25.317c0.411,0.712,0.203,1.66-0.512,2.071l-5.285,3.052c-0.712,0.41-1.658,0.131-2.069-0.582
		l-0.745-1.289c-0.41-0.711-0.131-1.585,0.582-1.997l3.268-1.887c0.713-0.411,4.578,0.312,4.578,0.312L54.875,25.317z M66.421,7.299
		c-1.29-2.236-2.356-1.895-2.94-1.838c-4.736,0.461-9.467,1.326-11.047,2.237c-1.377,0.794-7.219,4.168-7.219,4.168l1.068,4.542
		l0.486-0.28c0.58-0.336,0.64-0.523,0.812-0.682c0.173-0.158,3.867-3.548,4.188-3.84c0.442-0.401,1.209-0.958,1.84-0.256
		c0.599,0.663,0.299,1.201-0.25,1.742c-0.219,0.217-5.154,4.61-5.154,4.61l-0.241,0.14l-7.339,4.237
		c-0.711,0.411-0.955,1.322-0.543,2.034l0.893,1.548c0.412,0.711,1.32,0.955,2.032,0.544c0,0,6.214-3.586,6.679-3.854
		c0.588-0.341,11.769,1.254,12.564,1.354c0.839,0.104,1.296-0.073,1.296-0.073s2.653-1.532,2.806-1.618
		c0.504-0.292,1.23-0.661,1.737,0.215c0.589,1.02-0.589,1.699-0.589,1.699s-3.277,1.893-3.751,2.166
		c-1.287,0.742-0.342,2.088-0.198,2.338c0.862,1.491,3.042,1.666,4.047,3.407c0.133,0.229,0.357,0.604,0.607,1.038
		c0.439,0.763,1.199,0.955,1.801,0.607c0.604-0.35,0.693-0.399,5.208-3.008c3.541-2.045,2.869-2.979,0.935-6.334
		C74.822,21.848,68.955,11.685,66.421,7.299z M60.729,28.012c-0.41-0.713-1.32-0.957-2.033-0.545l-6.446,3.723
		c-0.712,0.41-0.956,1.321-0.545,2.033l0.744,1.29c0.409,0.712,1.321,0.956,2.032,0.545l6.447-3.723
		c0.713-0.411,0.956-1.322,0.545-2.034L60.729,28.012z M65.627,32.921c-0.411-0.712-1.322-0.956-2.034-0.545l-5.157,2.978
		c-0.713,0.411-0.957,1.322-0.547,2.034l0.596,1.031c0.412,0.713,1.322,0.957,2.035,0.546l5.157-2.979
		c0.712-0.412,0.956-1.32,0.546-2.035L65.627,32.921z"/>
</g>
</svg>
