<?xml version="1.0" encoding="utf-8"?>
<!-- Generator: Adobe Illustrator 16.0.4, SVG Export Plug-In . SVG Version: 6.00 Build 0)  -->
<!DOCTYPE svg PUBLIC "-//W3C//DTD SVG 1.1//EN" "http://www.w3.org/Graphics/SVG/1.1/DTD/svg11.dtd">
<svg version="1.1" id="icons" xmlns="http://www.w3.org/2000/svg" xmlns:xlink="http://www.w3.org/1999/xlink" x="0px" y="0px"
	 width="54.195px" height="54px" viewBox="0 0 54.195 54" enable-background="new 0 0 54.195 54" xml:space="preserve">
<g>
	<path fill="#444444" d="M32.193,17.019c0,1.31-1.062,2.372-2.373,2.372h-5.635c-1.309,0-2.371-1.062-2.371-2.372v-5.635
		c0-1.31,1.062-2.372,2.371-2.372h5.635c1.312,0,2.373,1.062,2.373,2.372V17.019z"/>
	<path fill="#444444" d="M21.107,40.093c0,1.31-1.061,2.372-2.373,2.372h-2.108c-1.312,0-2.373-1.062-2.373-2.372V37.98
		c0-1.311,1.061-2.373,2.373-2.373h2.108c1.312,0,2.373,1.062,2.373,2.373V40.093z"/>
	<path fill="#444444" d="M30.527,40.093c0,1.31-1.062,2.372-2.37,2.372h-2.113c-1.31,0-2.373-1.062-2.373-2.372V37.98
		c0-1.311,1.063-2.373,2.373-2.373h2.113c1.309,0,2.37,1.062,2.37,2.373V40.093z"/>
	<path fill="#444444" d="M39.758,40.093c0,1.31-1.062,2.372-2.373,2.372h-2.111c-1.311,0-2.371-1.062-2.371-2.372V37.98
		c0-1.311,1.062-2.373,2.371-2.373h2.111c1.311,0,2.373,1.062,2.373,2.373V40.093z"/>
	<rect x="25.525" y="22.207" fill="#8DC63F" width="3" height="11.417"/>
	<path fill="#8DC63F" d="M19.18,33.624h-3v-2.877c0-2.333,2.147-3.214,3.568-3.796c0.464-0.19,1.224-0.502,1.438-0.718v-4.026h3
		v4.09c0,2.077-1.984,2.891-3.3,3.43c-0.68,0.278-1.706,0.699-1.706,1.021V33.624z"/>
	<path fill="#8DC63F" d="M37.83,33.624h-3v-2.877c0-0.327-0.966-0.729-1.671-1.022c-1.297-0.541-3.253-1.356-3.253-3.428v-4.09h3
		v4.09c0.12,0.121,0.926,0.457,1.406,0.657c1.4,0.584,3.518,1.466,3.518,3.793V33.624L37.83,33.624z"/>
	<path fill="#8DC63F" d="M27.006,53.5C12.393,53.5,0.504,41.611,0.504,27c0-14.612,11.889-26.5,26.502-26.5
		c14.611,0,26.498,11.888,26.498,26.5C53.504,41.611,41.617,53.5,27.006,53.5z M27.006,4.5C14.599,4.5,4.504,14.594,4.504,27
		s10.095,22.5,22.502,22.5c12.405,0,22.498-10.094,22.498-22.5S39.411,4.5,27.006,4.5z"/>
</g>
</svg>
