<?xml version="1.0" encoding="utf-8"?>
<!-- Generator: Adobe Illustrator 16.0.4, SVG Export Plug-In . SVG Version: 6.00 Build 0)  -->
<!DOCTYPE svg PUBLIC "-//W3C//DTD SVG 1.1//EN" "http://www.w3.org/Graphics/SVG/1.1/DTD/svg11.dtd">
<svg version="1.1" id="icons" xmlns="http://www.w3.org/2000/svg" xmlns:xlink="http://www.w3.org/1999/xlink" x="0px" y="0px"
	 width="54.195px" height="54px" viewBox="0 0 54.195 54" enable-background="new 0 0 54.195 54" xml:space="preserve">
<g>
	<rect x="14.664" y="21.46" fill="#8DC63F" width="5" height="8.672"/>
	<path fill="#8DC63F" d="M27.943,25.975V14.846h-5v14.97C24.177,28.079,25.911,26.723,27.943,25.975z"/>
	<path fill="#8DC63F" d="M21.44,32.857h-8.708v3h8.256C20.995,34.814,21.152,33.809,21.44,32.857z"/>
	<path fill="#8DC63F" d="M33.84,23.074c0.82,0,1.615,0.103,2.383,0.279V13.158h-5v9.916H33.84z"/>
	<path fill="#444444" d="M31.604,28.311c-4.209,0-7.619,3.412-7.619,7.621s3.41,7.621,7.619,7.621c4.211,0,7.623-3.412,7.623-7.621
		h-7.623V28.311z"/>
	<path fill="#444444" d="M33.84,26.074v7.621h7.623C41.463,29.486,38.051,26.074,33.84,26.074z"/>
	<path fill="#8DC63F" d="M27.1,53.5C12.486,53.5,0.598,41.611,0.598,27c0-14.612,11.888-26.5,26.502-26.5
		c14.611,0,26.498,11.888,26.498,26.5C53.598,41.611,41.711,53.5,27.1,53.5z M27.1,4.5C14.692,4.5,4.598,14.594,4.598,27
		S14.692,49.5,27.1,49.5c12.405,0,22.498-10.094,22.498-22.5S39.505,4.5,27.1,4.5z"/>
</g>
</svg>
