<?xml version="1.0" encoding="utf-8"?>
<!-- Generator: Adobe Illustrator 16.0.4, SVG Export Plug-In . SVG Version: 6.00 Build 0)  -->
<!DOCTYPE svg PUBLIC "-//W3C//DTD SVG 1.1//EN" "http://www.w3.org/Graphics/SVG/1.1/DTD/svg11.dtd">
<svg version="1.1" id="skull3" xmlns="http://www.w3.org/2000/svg" xmlns:xlink="http://www.w3.org/1999/xlink" x="0px" y="0px"
	 width="80px" height="54px" viewBox="0 0 80 54" enable-background="new 0 0 80 54" xml:space="preserve">
<g>
	<path fill="#444444" d="M11.772,25.372l20.28-5.434l0.385,1.438l-20.28,5.434L11.772,25.372z M15.353,33.355
		c0.543,0,0.984,0.439,0.984,0.983s-0.44,0.984-0.984,0.984s-0.984-0.44-0.984-0.984S14.81,33.355,15.353,33.355z M17.942,32.662
		c0.543,0,0.983,0.439,0.983,0.982s-0.44,0.983-0.983,0.983s-0.983-0.44-0.983-0.983S17.399,32.662,17.942,32.662z M20.531,31.968
		c0.543,0,0.983,0.44,0.983,0.983s-0.44,0.982-0.983,0.982c-0.542,0-0.983-0.439-0.983-0.982S19.988,31.968,20.531,31.968z
		 M23.12,31.273c0.543,0,0.983,0.44,0.983,0.983s-0.44,0.983-0.983,0.983s-0.983-0.44-0.983-0.983S22.577,31.273,23.12,31.273z
		 M25.709,30.581c0.543,0,0.983,0.44,0.983,0.983s-0.44,0.982-0.983,0.982s-0.983-0.439-0.983-0.982S25.166,30.581,25.709,30.581z
		 M28.298,29.887c0.543,0,0.983,0.44,0.983,0.983s-0.44,0.983-0.983,0.983s-0.983-0.44-0.983-0.983S27.755,29.887,28.298,29.887z
		 M30.887,29.193c0.542,0,0.983,0.439,0.983,0.982s-0.44,0.983-0.983,0.983c-0.543,0-0.983-0.44-0.983-0.983
		S30.344,29.193,30.887,29.193z M34.425,29.229c0.141,0.523-0.17,1.063-0.695,1.205c-0.524,0.14-1.064-0.17-1.205-0.697
		c-0.14-0.521,0.171-1.062,0.695-1.203C33.746,28.393,34.285,28.703,34.425,29.229z M36.064,27.807c0.543,0,0.983,0.439,0.983,0.982
		s-0.44,0.982-0.983,0.982s-0.983-0.439-0.983-0.982S35.521,27.807,36.064,27.807z M48.278,31.014
		c-1.306-0.025-2.536-0.723-3.205-1.882l-0.744-1.288c-0.259-0.446-0.409-0.925-0.463-1.408c-0.304,0.145-0.623,0.247-0.956,0.305
		c-1.047,0.186-2.097-0.101-2.91-0.725l1.146,4.277l-28.764,7.707l-1.465-5.466l28.159-7.545c-0.011-0.019-0.026-0.034-0.037-0.053
		l-0.894-1.548c-0.204-0.353-0.331-0.734-0.41-1.122l-27.589,7.395l-1.465-5.465l28.765-7.71l0.811,3.026
		c0.316-0.489,0.731-0.909,1.25-1.208l4.657-2.642l-0.976-3.642c-0.213-0.794-1.029-1.265-1.824-1.052L2.532,21.373
		c-0.794,0.213-1.266,1.029-1.053,1.824l7.245,27.039c0.213,0.795,1.03,1.266,1.823,1.052l38.834-10.405
		c0.793-0.212,1.266-1.029,1.053-1.822L48.278,31.014z"/>
	<path fill="#FF8500" d="M36.978,38.318c0.195,0.73-0.237,1.48-0.968,1.677l-14.472,3.879c-0.73,0.194-1.48-0.239-1.676-0.968
		l-0.603-2.247c-0.195-0.729,0.238-1.479,0.968-1.675l14.472-3.879c0.729-0.196,1.479,0.235,1.675,0.967L36.978,38.318z"/>
	<path fill="#FF8500" d="M54.875,23.475c0.411,0.712,0.203,1.66-0.512,2.071l-5.285,3.052c-0.712,0.41-1.658,0.131-2.069-0.582
		l-0.745-1.289c-0.41-0.712-0.131-1.586,0.582-1.997l3.268-1.887c0.712-0.411,4.578,0.312,4.578,0.312L54.875,23.475z M66.421,5.457
		c-1.29-2.236-2.356-1.895-2.94-1.838c-4.737,0.461-9.467,1.326-11.047,2.237c-1.377,0.794-7.219,4.168-7.219,4.168l1.068,4.542
		l0.486-0.28c0.58-0.336,0.64-0.523,0.812-0.682c0.173-0.158,3.867-3.548,4.189-3.84c0.442-0.401,1.209-0.958,1.84-0.256
		c0.598,0.663,0.298,1.201-0.25,1.742c-0.219,0.217-5.155,4.61-5.155,4.61L47.964,16l-7.339,4.237
		c-0.711,0.411-0.955,1.322-0.543,2.034l0.893,1.548c0.412,0.711,1.32,0.955,2.032,0.544c0,0,6.214-3.586,6.679-3.854
		c0.588-0.341,11.768,1.254,12.564,1.354c0.839,0.104,1.296-0.073,1.296-0.073s2.653-1.532,2.806-1.618
		c0.504-0.292,1.23-0.661,1.737,0.215c0.589,1.02-0.589,1.699-0.589,1.699s-3.277,1.893-3.751,2.166
		c-1.287,0.742-0.342,2.088-0.198,2.338c0.862,1.491,3.042,1.666,4.047,3.407c0.133,0.229,0.357,0.604,0.607,1.038
		c0.439,0.763,1.199,0.955,1.801,0.607c0.604-0.349,0.693-0.399,5.208-3.007c3.541-2.045,2.869-2.98,0.935-6.334
		C74.822,20.006,68.955,9.843,66.421,5.457z M60.729,26.17c-0.41-0.713-1.321-0.957-2.033-0.545l-6.447,3.723
		c-0.712,0.41-0.956,1.321-0.545,2.033l0.744,1.29c0.41,0.712,1.322,0.956,2.033,0.545l6.447-3.723
		c0.713-0.411,0.956-1.322,0.545-2.034L60.729,26.17z M65.627,31.079c-0.411-0.712-1.322-0.956-2.034-0.545l-5.157,2.978
		c-0.713,0.411-0.957,1.322-0.547,2.034l0.596,1.031c0.412,0.713,1.322,0.957,2.035,0.546l5.157-2.979
		c0.712-0.412,0.956-1.32,0.546-2.035L65.627,31.079z"/>
</g>
</svg>
