<?xml version="1.0" encoding="utf-8"?>
<!-- Generator: Adobe Illustrator 16.0.4, SVG Export Plug-In . SVG Version: 6.00 Build 0)  -->
<!DOCTYPE svg PUBLIC "-//W3C//DTD SVG 1.1//EN" "http://www.w3.org/Graphics/SVG/1.1/DTD/svg11.dtd">
<svg version="1.1" id="skull3" xmlns="http://www.w3.org/2000/svg" xmlns:xlink="http://www.w3.org/1999/xlink" x="0px" y="0px"
	 width="54.196px" height="54px" viewBox="0 0 54.196 54" enable-background="new 0 0 54.196 54" xml:space="preserve">
<path fill="#FF8500" d="M49.496,1.997H4.7c-2.348,0-4.257,1.909-4.257,4.257v30.627c0,2.348,1.91,4.257,4.257,4.257h20.513v2.767
	H11.054L9.166,45.79v1.89h35.865v-1.89l-1.89-1.886H28.984v-2.767h20.512c2.349,0,4.258-1.909,4.258-4.257V6.254
	C53.754,3.906,51.845,1.997,49.496,1.997z M48.813,36.198H5.383V6.937h43.431V36.198z"/>
<path fill="#444444" d="M34.293,17.039v-3.367c0-2.7-2.206-4.906-4.908-4.906h-4.537c-2.704,0-4.901,2.206-4.901,4.906v3.434
	c-1.504,0.343-2.631,1.68-2.631,3.295v10.473c0,1.873,1.516,3.388,3.386,3.388h13.35c1.868,0,3.381-1.515,3.381-3.388V20.4
	C37.432,18.608,36.048,17.166,34.293,17.039z M31.415,17.016h-8.603v-2.619c0-1.761,1.439-3.2,3.202-3.2h2.208
	c1.763,0,3.193,1.439,3.193,3.2V17.016z"/>
<g>
	<g>
		<path fill="#FFFFFF" d="M31.512,23.223c0-2.436-1.979-4.414-4.413-4.414c-2.435,0-4.415,1.979-4.415,4.414v1.853
			c0,0.9,0.735,1.635,1.636,1.635c0.375,0,0.681,0.306,0.681,0.681v0.927c0,0.136,0.111,0.245,0.244,0.245h3.707
			c0.135,0,0.245-0.109,0.245-0.245v-0.927c0-0.375,0.305-0.681,0.681-0.681c0.902,0,1.635-0.734,1.635-1.636V23.223z"/>
		<path fill="#444444" d="M27.363,25.023c-0.037-0.115-0.145-0.191-0.264-0.191c-0.12,0-0.228,0.076-0.265,0.191l-0.528,1.584
			c-0.028,0.084-0.015,0.178,0.039,0.25c0.052,0.073,0.136,0.116,0.226,0.116h1.056c0.089,0,0.174-0.043,0.226-0.116
			c0.052-0.072,0.067-0.166,0.039-0.25L27.363,25.023z"/>
		<path fill="#444444" d="M24.829,22.934c-0.736,0-1.335,0.599-1.335,1.335s0.599,1.335,1.335,1.335
			c0.737,0,1.335-0.599,1.335-1.335S25.566,22.934,24.829,22.934z"/>
		<path fill="#444444" d="M29.367,22.934c-0.735,0-1.335,0.599-1.335,1.335s0.6,1.335,1.335,1.335s1.336-0.599,1.336-1.335
			S30.103,22.934,29.367,22.934z"/>
	</g>
	<path fill="#FFFFFF" d="M33.007,32.523c-0.068,0-0.139-0.009-0.207-0.03l-11.816-3.537c-0.382-0.114-0.602-0.518-0.487-0.9
		c0.116-0.383,0.522-0.601,0.9-0.485l11.817,3.537c0.383,0.114,0.6,0.518,0.486,0.9C33.605,32.321,33.319,32.523,33.007,32.523z"/>
	<path fill="#FFFFFF" d="M21.19,32.524c-0.312,0-0.599-0.202-0.694-0.516c-0.115-0.383,0.104-0.786,0.487-0.901L32.8,27.57
		c0.381-0.113,0.785,0.104,0.9,0.486c0.113,0.383-0.104,0.786-0.486,0.9l-11.817,3.537C21.329,32.516,21.258,32.524,21.19,32.524z"
		/>
</g>
</svg>
