<?xml version="1.0" encoding="utf-8"?>
<!-- Generator: Adobe Illustrator 16.0.4, SVG Export Plug-In . SVG Version: 6.00 Build 0)  -->
<!DOCTYPE svg PUBLIC "-//W3C//DTD SVG 1.1//EN" "http://www.w3.org/Graphics/SVG/1.1/DTD/svg11.dtd">
<svg version="1.1" id="skull3" xmlns="http://www.w3.org/2000/svg" xmlns:xlink="http://www.w3.org/1999/xlink" x="0px" y="0px"
	 width="54px" height="54px" viewBox="0 0 54 54" enable-background="new 0 0 54 54" xml:space="preserve">
<path fill="#FF8500" d="M49.496,1.997H4.7c-2.349,0-4.258,1.909-4.258,4.257v30.627c0,2.348,1.91,4.258,4.258,4.258h20.513v2.768
	H11.054L9.166,45.79v1.89h35.863v-1.89l-1.889-1.886H28.984v-2.769h20.513c2.349,0,4.258-1.907,4.258-4.257V6.254
	C53.754,3.906,51.846,1.997,49.496,1.997z M48.812,36.198H5.383V6.937h43.432L48.812,36.198L48.812,36.198z"/>
<path fill="#444444" d="M34.293,17.039v-3.367c0-2.7-2.206-4.906-4.908-4.906h-4.537c-2.704,0-4.901,2.206-4.901,4.906v3.434
	c-1.504,0.343-2.631,1.68-2.631,3.295v10.473c0,1.873,1.517,3.388,3.387,3.388h13.35c1.868,0,3.381-1.515,3.381-3.388V20.4
	C37.432,18.608,36.048,17.166,34.293,17.039z M22.811,14.397c0-1.761,1.439-3.2,3.202-3.2h2.208c1.764,0,3.193,1.438,3.193,3.2
	v2.619h-8.603V14.397z M22.684,23.223c0-2.435,1.981-4.414,4.415-4.414s4.413,1.978,4.413,4.414l0.002,1.852
	c0,0.902-0.734,1.636-1.635,1.636c-0.376,0-0.682,0.306-0.682,0.681v0.926c0,0.137-0.109,0.246-0.244,0.246h-3.707
	c-0.134,0-0.244-0.109-0.244-0.246v-0.926c0-0.375-0.307-0.681-0.682-0.681c-0.901,0-1.636-0.735-1.636-1.635V23.223z M33.7,32.008
	c-0.095,0.312-0.382,0.516-0.693,0.516c-0.067,0-0.139-0.01-0.207-0.03l-5.703-1.707l-5.7,1.706
	c-0.068,0.023-0.139,0.031-0.207,0.031c-0.312,0-0.599-0.201-0.693-0.517c-0.115-0.383,0.104-0.784,0.486-0.899l3.594-1.076
	l-3.593-1.075c-0.382-0.114-0.602-0.519-0.486-0.899c0.115-0.384,0.521-0.602,0.899-0.486l5.702,1.707L32.8,27.57
	c0.382-0.113,0.785,0.104,0.9,0.486c0.112,0.383-0.104,0.784-0.486,0.898l-3.596,1.076l3.596,1.076
	C33.598,31.223,33.814,31.627,33.7,32.008z M27.363,25.023c-0.036-0.115-0.145-0.191-0.264-0.191c-0.12,0-0.228,0.076-0.265,0.191
	l-0.528,1.584c-0.028,0.084-0.015,0.178,0.039,0.25c0.052,0.073,0.136,0.116,0.226,0.116h1.057c0.089,0,0.174-0.043,0.226-0.116
	c0.053-0.072,0.067-0.166,0.039-0.25L27.363,25.023z M24.829,22.934c-0.736,0-1.335,0.599-1.335,1.335s0.599,1.335,1.335,1.335
	c0.736,0,1.335-0.599,1.335-1.335S25.566,22.934,24.829,22.934z M29.367,22.934c-0.735,0-1.335,0.599-1.335,1.335
	s0.6,1.335,1.335,1.335c0.734,0,1.336-0.599,1.336-1.335S30.104,22.934,29.367,22.934z"/>
</svg>
