<?xml version="1.0" encoding="utf-8"?>
<!-- Generator: Adobe Illustrator 16.0.4, SVG Export Plug-In . SVG Version: 6.00 Build 0)  -->
<!DOCTYPE svg PUBLIC "-//W3C//DTD SVG 1.1//EN" "http://www.w3.org/Graphics/SVG/1.1/DTD/svg11.dtd">
<svg version="1.1" id="Layer_1" xmlns="http://www.w3.org/2000/svg" xmlns:xlink="http://www.w3.org/1999/xlink" x="0px" y="0px"
	 width="600px" height="400px" viewBox="-63.5 0 600 400" enable-background="new -63.5 0 600 400" xml:space="preserve">
<g id="Page-1">
	<g id="AttackIQ_Logo_flattened">
		<g id="mark">
			
				<linearGradient id="SVGID_1_" gradientUnits="userSpaceOnUse" x1="-738.9917" y1="-562.7798" x2="-737.9948" y2="-562.7798" gradientTransform="matrix(-39.0333 -67.6077 -67.6077 39.0333 -66671.5859 -27830.0469)">
				<stop  offset="0" style="stop-color:#FFFFFF"/>
				<stop  offset="0.0021" style="stop-color:#FEFFFF"/>
				<stop  offset="0.1215" style="stop-color:#D2EFF0"/>
				<stop  offset="0.2446" style="stop-color:#ADE2E4"/>
				<stop  offset="0.3737" style="stop-color:#8ED8D9"/>
				<stop  offset="0.5082" style="stop-color:#77CFD1"/>
				<stop  offset="0.6506" style="stop-color:#66C9CC"/>
				<stop  offset="0.8063" style="stop-color:#5CC6C8"/>
				<stop  offset="1" style="stop-color:#58C5C7"/>
			</linearGradient>
			<path fill="url(#SVGID_1_)" d="M201.372,94.88c-0.147,0-0.301,0.022-0.457,0.065l-28.548,8.137
				c-0.884,0.248-1.587,1.352-1.587,2.47c0,0.179,0.045,0.328,0.079,0.479l0.44,0.856l25.789,50.057l0.01,0.011
				c0.37,0.727,1.034,1.112,1.73,1.112c0.116,0,0.233-0.011,0.351-0.032h0.006l18.018-37.467l-14.452-24.592l-0.426-0.727
				C202.067,95.014,201.737,94.88,201.372,94.88"/>
			
				<linearGradient id="SVGID_2_" gradientUnits="userSpaceOnUse" x1="-729.0439" y1="-563.8984" x2="-728.0471" y2="-563.8984" gradientTransform="matrix(59.963 -103.8591 -103.8591 -59.963 -14641.3125 -109362.4688)">
				<stop  offset="0" style="stop-color:#FFFFFF"/>
				<stop  offset="0.0965" style="stop-color:#FCDCD1"/>
				<stop  offset="0.2043" style="stop-color:#F9BAA5"/>
				<stop  offset="0.3172" style="stop-color:#F79D7F"/>
				<stop  offset="0.4338" style="stop-color:#F58660"/>
				<stop  offset="0.5555" style="stop-color:#F37449"/>
				<stop  offset="0.6843" style="stop-color:#F26738"/>
				<stop  offset="0.8249" style="stop-color:#F15F2E"/>
				<stop  offset="1" style="stop-color:#F15D2A"/>
			</linearGradient>
			<path fill="url(#SVGID_2_)" d="M280.845,72.3c-0.294,0-0.611,0.044-0.937,0.138l-44.527,12.69
				c-0.693,0.193-1.305,0.674-1.743,1.271l-0.519,1.077l-15.916,33.093l20.352,34.627c0.022,0,0.046,0.001,0.065,0.001
				c1.037,0,2.073-0.586,2.639-1.611l0.011-0.022l41.744-76.781l0.879-1.623c0.069-0.252,0.161-0.501,0.161-0.75
				C283.054,73.12,282.122,72.3,280.845,72.3"/>
			
				<linearGradient id="SVGID_3_" gradientUnits="userSpaceOnUse" x1="-723.7417" y1="-559.3711" x2="-722.7454" y2="-559.3711" gradientTransform="matrix(138.0603 0 0 -138.0603 100134.6406 -77041.0625)">
				<stop  offset="0" style="stop-color:#FFFFFF"/>
				<stop  offset="0.0059" style="stop-color:#FBFEFE"/>
				<stop  offset="0.0662" style="stop-color:#D5F0F1"/>
				<stop  offset="0.1323" style="stop-color:#B3E5E6"/>
				<stop  offset="0.2054" style="stop-color:#97DBDC"/>
				<stop  offset="0.2868" style="stop-color:#80D3D4"/>
				<stop  offset="0.3801" style="stop-color:#6ECCCE"/>
				<stop  offset="0.4926" style="stop-color:#62C8CA"/>
				<stop  offset="0.6439" style="stop-color:#5BC6C8"/>
				<stop  offset="1" style="stop-color:#58C5C7"/>
			</linearGradient>
			<path fill="url(#SVGID_3_)" d="M348.995,160.365l-2.423,0.101l-99.609,4.39h-0.021c-1.188,0.055-2.194,0.805-2.646,1.829
				l-0.005,0.002l24.135,41.071l46.121,3.5l1.621,0.12c0.96-0.12,1.833-0.549,2.373-1.284l33.117-44.96
				c1.222-1.661,0.495-3.705-1.615-4.546C349.706,160.454,349.352,160.421,348.995,160.365"/>
			
				<linearGradient id="SVGID_4_" gradientUnits="userSpaceOnUse" x1="-736.0234" y1="-560.8276" x2="-735.0272" y2="-560.8276" gradientTransform="matrix(-56.6841 -98.1796 -98.1796 56.6841 -96501.2188 -40199.4062)">
				<stop  offset="0" style="stop-color:#F15D2A"/>
				<stop  offset="0.2401" style="stop-color:#F15F2D"/>
				<stop  offset="0.3845" style="stop-color:#F26535"/>
				<stop  offset="0.5035" style="stop-color:#F37044"/>
				<stop  offset="0.6089" style="stop-color:#F47F58"/>
				<stop  offset="0.7052" style="stop-color:#F69372"/>
				<stop  offset="0.7949" style="stop-color:#F8AC93"/>
				<stop  offset="0.8795" style="stop-color:#FACAB9"/>
				<stop  offset="0.9579" style="stop-color:#FDEBE4"/>
				<stop  offset="1" style="stop-color:#FFFFFF"/>
			</linearGradient>
			<path fill="url(#SVGID_4_)" d="M223.142,204.326v0.006c-0.562,0.794-0.656,1.927-0.142,2.929l0.008,0.02l37.341,72.504
				l0.781,1.521c0.173,0.208,0.323,0.426,0.538,0.604c0.703,0.589,1.513,0.889,2.238,0.889c0.675,0,1.282-0.259,1.664-0.779
				l24.969-33.9c0.467-0.639,0.538-1.443,0.295-2.223l-0.716-1.218l-21.691-36.919L223.142,204.326"/>
			
				<linearGradient id="SVGID_5_" gradientUnits="userSpaceOnUse" x1="-728.8252" y1="-567.4111" x2="-727.8283" y2="-567.4111" gradientTransform="matrix(40.6171 -70.3509 -70.3509 -40.6171 -10146.8906 -74068.2812)">
				<stop  offset="0" style="stop-color:#58C5C7"/>
				<stop  offset="0.2597" style="stop-color:#5BC6C8"/>
				<stop  offset="0.4159" style="stop-color:#63C9CB"/>
				<stop  offset="0.5447" style="stop-color:#72CED0"/>
				<stop  offset="0.6586" style="stop-color:#86D5D6"/>
				<stop  offset="0.7628" style="stop-color:#A0DEDF"/>
				<stop  offset="0.8597" style="stop-color:#C1E9EA"/>
				<stop  offset="0.9494" style="stop-color:#E6F6F7"/>
				<stop  offset="1" style="stop-color:#FFFFFF"/>
			</linearGradient>
			<path fill="url(#SVGID_5_)" d="M178.66,201.013l-11.19,23.265l-0.334,0.691c-0.115,0.479-0.078,1.049,0.134,1.575l13.041,31.583
				c0.381,0.926,1.146,1.524,1.857,1.524c0.16,0,0.319-0.03,0.469-0.096c0.133-0.056,0.225-0.168,0.33-0.257l0.483-0.891
				l28.285-52.014l0.008-0.021c0.479-0.883,0.393-1.994-0.134-2.848v-0.002L178.66,201.013"/>
			
				<linearGradient id="SVGID_6_" gradientUnits="userSpaceOnUse" x1="-717.4199" y1="-562.5244" x2="-716.4219" y2="-562.5244" gradientTransform="matrix(65.8067 0 0 -65.8067 47355.6016 -36833.7109)">
				<stop  offset="0" style="stop-color:#F15D2A"/>
				<stop  offset="0.1751" style="stop-color:#F15F2E"/>
				<stop  offset="0.3157" style="stop-color:#F26738"/>
				<stop  offset="0.4445" style="stop-color:#F37449"/>
				<stop  offset="0.5662" style="stop-color:#F58660"/>
				<stop  offset="0.6828" style="stop-color:#F79D7F"/>
				<stop  offset="0.7957" style="stop-color:#F9BAA5"/>
				<stop  offset="0.9035" style="stop-color:#FCDCD1"/>
				<stop  offset="1" style="stop-color:#FFFFFF"/>
			</linearGradient>
			<path fill="url(#SVGID_6_)" d="M192.365,167.319c-0.02,0-0.039,0.002-0.059,0.003h-0.017l-46.013,2.009l-0.72,0.035
				c-0.105,0.038-0.215,0.071-0.315,0.155c-0.615,0.531-0.826,1.654-0.474,2.512l10.874,26.336c0.2,0.488,0.524,0.812,0.889,0.962
				l0.615,0.041l21.514,1.641l15.547-32.304l-0.006-0.008C193.883,167.875,193.185,167.319,192.365,167.319"/>
			<linearGradient id="SVGID_7_" gradientUnits="userSpaceOnUse" x1="186.3418" y1="196.8457" x2="209.2294" y2="182.017">
				<stop  offset="0" style="stop-color:#94C0A2"/>
				<stop  offset="0.2997" style="stop-color:#97C1A4"/>
				<stop  offset="0.48" style="stop-color:#9FC6AB"/>
				<stop  offset="0.6286" style="stop-color:#AECFB8"/>
				<stop  offset="0.7601" style="stop-color:#C2DBC9"/>
				<stop  offset="0.88" style="stop-color:#DCEAE0"/>
				<stop  offset="0.9904" style="stop-color:#FCFDFC"/>
				<stop  offset="1" style="stop-color:#FFFFFF"/>
			</linearGradient>
			<polyline fill="url(#SVGID_7_)" points="194.208,168.704 194.207,168.709 178.66,201.013 211.609,203.523 211.594,203.491 
				205.109,190.522 194.208,168.704 			"/>
			<linearGradient id="SVGID_8_" gradientUnits="userSpaceOnUse" x1="260.0068" y1="199.8047" x2="223.2558" y2="179.8174">
				<stop  offset="0" style="stop-color:#94C0A2"/>
				<stop  offset="0.1886" style="stop-color:#99C2A5"/>
				<stop  offset="0.384" style="stop-color:#A5C9B0"/>
				<stop  offset="0.5826" style="stop-color:#BAD6C2"/>
				<stop  offset="0.7834" style="stop-color:#D7E7DC"/>
				<stop  offset="0.984" style="stop-color:#FCFDFC"/>
				<stop  offset="1" style="stop-color:#FFFFFF"/>
			</linearGradient>
			<polyline fill="url(#SVGID_8_)" points="244.292,166.687 244.247,166.769 223.159,204.296 223.142,204.326 268.427,207.758 
				244.292,166.687 			"/>
			<linearGradient id="SVGID_9_" gradientUnits="userSpaceOnUse" x1="216.124" y1="129.4473" x2="219.6702" y2="172.3223">
				<stop  offset="0" style="stop-color:#94C0A2"/>
				<stop  offset="0.1886" style="stop-color:#99C2A5"/>
				<stop  offset="0.384" style="stop-color:#A5C9B0"/>
				<stop  offset="0.5826" style="stop-color:#BAD6C2"/>
				<stop  offset="0.7834" style="stop-color:#D7E7DC"/>
				<stop  offset="0.984" style="stop-color:#FCFDFC"/>
				<stop  offset="1" style="stop-color:#FFFFFF"/>
			</linearGradient>
			<polyline fill="url(#SVGID_9_)" points="217.203,120.568 217.203,120.568 199.186,158.035 199.255,158.028 237.466,155.202 
				237.555,155.195 217.203,120.568 			"/>
		</g>
		<g id="logotype" transform="translate(0.000000, 226.000000)">
			<polygon id="Shape_13_" fill="#606268" points="152.81,96.435 152.81,76.185 140.413,76.185 140.413,72.675 169.338,72.675 
				169.338,76.185 157.278,76.185 157.278,96.435 			"/>
			<polygon id="Shape_14_" fill="#606268" points="187.78,96.435 187.78,76.185 175.383,76.185 175.383,72.675 204.308,72.675 
				204.308,76.185 192.248,76.185 192.248,96.435 			"/>
			<path id="Shape_15_" fill="#606268" d="M255.037,96.435c-1.345,0-2.488-0.14-3.428-0.422c-0.941-0.281-1.708-0.674-2.301-1.18
				c-0.594-0.508-1.024-1.108-1.294-1.807c-0.269-0.697-0.403-1.474-0.403-2.33V78.411c0-0.854,0.135-1.629,0.403-2.328
				c0.27-0.696,0.7-1.3,1.294-1.805c0.593-0.508,1.36-0.901,2.301-1.183c0.939-0.281,2.083-0.423,3.428-0.423h19.047v3.51h-19.047
				c-1.973,0-2.958,0.731-2.958,2.195V90.73c0,1.462,0.985,2.193,2.958,2.193h19.047v3.51L255.037,96.435L255.037,96.435z"/>
			<polygon id="Shape_16_" fill="#606268" points="307.342,96.435 298.406,85.837 290.713,85.837 290.713,96.435 286.245,96.435 
				286.245,72.675 290.713,72.675 290.713,82.326 298.306,82.326 307.208,72.675 312.517,72.675 302.001,83.744 312.483,96.435 			
				"/>
			<polygon id="Shape_17_" fill="#60BFC3" points="323.502,96.435 323.502,72.675 327.969,72.675 327.969,96.435 			"/>
			<path id="Shape_18_" fill="#60BFC3" d="M363.893,101.7l-3.734-5.266h-12.227c-1.344,0-2.487-0.14-3.428-0.422
				c-0.941-0.281-1.708-0.674-2.301-1.18c-0.594-0.508-1.024-1.108-1.293-1.807c-0.269-0.697-0.402-1.474-0.402-2.33V78.411
				c0-0.854,0.135-1.629,0.402-2.328c0.269-0.696,0.699-1.3,1.293-1.805c0.593-0.508,1.36-0.901,2.301-1.183
				c0.939-0.281,2.084-0.423,3.428-0.423h15.62c1.344,0,2.487,0.143,3.427,0.423c0.941,0.28,1.707,0.675,2.302,1.183
				c0.593,0.505,1.024,1.107,1.293,1.805c0.269,0.698,0.403,1.474,0.403,2.328v12.285c0,1.576-0.477,2.874-1.428,3.898
				c-0.952,1.023-2.549,1.625-4.787,1.805l3.901,5.301H363.893L363.893,101.7z M366.509,78.379c0-1.464-0.987-2.194-2.957-2.194
				h-15.62c-1.972,0-2.957,0.73-2.957,2.194v12.353c0,1.463,0.985,2.193,2.957,2.193h15.62c1.97,0,2.957-0.73,2.957-2.193V78.379z"
				/>
			<path id="Shape_19_" fill="#606268" d="M226.251,74.489l-0.41-0.557c-0.675-0.779-1.583-1.26-2.585-1.259
				c-1.023-0.001-1.949,0.498-2.629,1.307c-0.098,0.133-0.204,0.275-0.321,0.435c-3.634,4.918-16.203,22.019-16.203,22.019h4.973
				l11.654-15.74l2.526-3.431l2.527,3.431l11.654,15.74h4.972L226.251,74.489z"/>
			<path id="Shape_20_" fill="#606268" d="M124.172,74.489l-0.41-0.557c-0.676-0.779-1.584-1.26-2.586-1.259
				c-1.022-0.001-1.948,0.498-2.629,1.307c-0.098,0.133-0.204,0.275-0.32,0.435c-3.635,4.918-16.203,22.019-16.203,22.019h4.973
				l11.653-15.74l2.526-3.431l2.527,3.431l11.654,15.74h4.972L124.172,74.489z"/>
		</g>
	</g>
</g>
</svg>
