<?xml version="1.0" encoding="utf-8"?>
<!-- Generator: Adobe Illustrator 16.0.4, SVG Export Plug-In . SVG Version: 6.00 Build 0)  -->
<!DOCTYPE svg PUBLIC "-//W3C//DTD SVG 1.1//EN" "http://www.w3.org/Graphics/SVG/1.1/DTD/svg11.dtd">
<svg version="1.1" id="Layer_1" xmlns="http://www.w3.org/2000/svg" xmlns:xlink="http://www.w3.org/1999/xlink" x="0px" y="0px"
	 width="320px" height="240px" viewBox="0 0 320 240" enable-background="new 0 0 320 240" xml:space="preserve">
<g id="Layer_2">
	<path opacity="0.96" fill="#262262" enable-background="new    " d="M318.1,109.353c-14.26-28.189-10.351-55.046,5.506-81.173
		c4.033-6.646,9.283-12.955,11.56-20.177c7.098-22.613,2.369-42.353-16.831-57.671c-12.826-10.234-25.353-20.842-38.15-31.113
		c-13.303-10.686-22.448-23.879-24.864-41.033c-1.688-11.967-2.876-23.994-4.184-36.003c-0.424-3.902-0.788-7.816-1.136-11.732
		h-43.555c13.866,15.049,17.841,37.591,8.812,57.645c-3.201,7.094-7.276,13.788-11.01,20.634
		c-8.388,15.375-8.801,17.619-5.938,34.904c-20.269,0-40.459,0-61.436,0c1.464-2.799,2.639-5.173,3.926-7.485
		c9.239-16.594,10.369-33.104,0.064-49.813c-5.369-8.695-9.112-17.971-9.519-28.51c-0.417-10.666,1.638-20.026,7.634-27.376H65.332
		c2.973,8.728,7.542,17.129,13.808,25.139c4.336,5.539,8.717,11.041,12.861,16.725c14.569,19.944,10.465,41.361-11.22,53.347
		c-10.486,5.796-22.193,9.381-33.374,13.907c-12.26,4.962-25.142,8.759-36.699,15.01C-11.297-33.51-19.954-12.582-15.456,12.091
		c2.032,11.151,8.028,20.131,13.843,29.397c4.749,7.574,10.526,15.022,13.07,23.371c10.582,34.685,6.844,55.734-21.219,73.588
		c-10.531,6.707-20.522,14.251-30.708,21.483c-7.432,5.27-11.91,12.81-12.942,21.537c-2.021,16.907-0.407,33.523,7.626,49.006
		c4.534,8.745,11.401,15.061,20.729,17.937c18.904,5.828,37.953,5.354,56.213-2.113c13.368-5.475,20.912-16.211,20.916-31.047
		c0.002-6.588-0.849-13.253-2.047-19.732c-2.049-11.064,0.321-20.182,10.01-26.658c5.517-3.687,10.921-7.583,16.71-10.774
		c17.685-9.755,23.461-22.099,17.321-48.072c-2.285-9.671-9.288-16.101-16.472-22.194c-7.441-6.322-15.48-11.977-22.551-18.664
		c-8.447-7.988-8.218-18.604-4.82-28.436c3.32-9.633,12.042-12.488,21.783-12.62c9.709-0.132,18.549,2.086,26.22,8.267
		c7.604,6.123,14.959,12.603,22.93,18.209c19.825,13.949,43.732,9.231,56.707-10.906c3.589-5.575,6.869-11.352,10.233-17.065
		c9.08-15.401,23.2-21.104,40.359-21.342c12.345-0.157,22.22,4.605,28.97,14.734c10.855,16.287,13.142,34.684,12.558,53.821
		c-0.43,14.091-8.385,23.953-17.076,33.612c-3.397,3.777-7.236,7.18-10.42,11.12c-7.108,8.791-14.645,17.359-20.719,26.839
		c-12.499,19.51-17.02,56.524,3.835,78.915c17.667,18.963,39.64,25.71,64.689,21.774l-3.315-3.308l4.567-4.229l-4.567-4.279
		l5.42-5.426l4.453,4.569l4.509-4.569l5.372,5.426l-4.512,4.279l3.581,3.362c20.453-8.209,34.43-26.1,34.98-52.483
		c0.407-19.629-3.385-37.956-11.344-55.646C325.754,125.589,322.148,117.354,318.1,109.353z M306.729,218.394l-5.372,5.423
		l-4.508-4.454l-4.454,4.454l-5.42-5.423l4.565-4.228l-4.565-4.291l5.42-5.423l4.454,4.57l4.508-4.57l5.372,5.423l-4.513,4.291
		L306.729,218.394z M306.729,194.011l-5.372,5.42l-4.508-4.456l-4.454,4.456l-5.42-5.42l4.565-4.231l-4.565-4.278l5.42-5.43
		l4.454,4.576l4.508-4.576l5.372,5.43l-4.513,4.278L306.729,194.011z"/>
	<path opacity="0.8" fill="#FFDE17" enable-background="new    " d="M199.328,285.376c0-114.203,0-227.445,0-341.309
		c23.893,0,47.216,0,71.252,0c0,136.571,0,273.158,0,410.344c-114.262,0-228.296,0-342.915,0c0-136.755,0-273.344,0-410.445
		c23.652,0,46.96,0,71.226,0c0,113.731,0,227.207,0,341.415C65.916,285.376,131.994,285.376,199.328,285.376z"/>
</g>
</svg>
