<?xml version="1.0" encoding="utf-8"?>
<!-- Generator: Adobe Illustrator 16.0.4, SVG Export Plug-In . SVG Version: 6.00 Build 0)  -->
<!DOCTYPE svg PUBLIC "-//W3C//DTD SVG 1.1//EN" "http://www.w3.org/Graphics/SVG/1.1/DTD/svg11.dtd">
<svg version="1.1" id="Layer_1" xmlns="http://www.w3.org/2000/svg" xmlns:xlink="http://www.w3.org/1999/xlink" x="0px" y="0px"
	 width="518px" height="510.236px" viewBox="98 0 518 510.236" enable-background="new 98 0 518 510.236" xml:space="preserve">
<g id="Layer_2">
	<path opacity="0.96" fill="#262262" enable-background="new    " d="M528.194,292.94c-2.633-5.841-5.208-11.718-8.1-17.428
		c-10.181-20.121-7.388-39.29,3.931-57.935c2.876-4.744,6.629-9.248,8.256-14.403c5.064-16.138,1.691-30.229-12.021-41.161
		c-9.157-7.306-18.104-14.877-27.24-22.207c-9.496-7.628-16.025-17.044-17.751-29.287c-1.205-8.539-2.056-17.126-2.989-25.698
		c-1.238-11.353-1.735-22.83-3.732-34.045c-4.27-24.001-18.147-39.69-42.333-45.08c-7.302-1.625-14.889-1.945-22.337-2.862
		c-12.507,0.328-24.558,2.206-35.937,7.286c-14.427,6.425-25.562,16.315-29.38,32.166c-4.559,18.9-1.279,36.526,10.91,52.105
		c3.095,3.955,6.225,7.883,9.183,11.939c10.403,14.235,7.473,29.521-8.009,38.074c-7.488,4.137-15.85,6.696-23.833,9.926
		c-8.753,3.542-17.95,6.252-26.204,10.713c-15.713,8.501-21.894,23.441-18.68,41.052c1.45,7.957,5.731,14.367,9.883,20.98
		c3.393,5.403,7.516,10.723,9.332,16.681c7.555,24.755,4.887,39.778-15.153,52.525c-7.518,4.785-14.652,10.167-21.927,15.329
		c-5.304,3.763-8.501,9.145-9.241,15.371c-1.442,12.071-0.291,23.928,5.445,34.981c3.237,6.24,8.143,10.746,14.802,12.801
		c13.498,4.16,27.097,3.82,40.136-1.511c9.547-3.908,14.932-11.564,14.934-22.161c0.002-4.698-0.604-9.452-1.461-14.081
		c-1.464-7.896,0.23-14.407,7.149-19.029c3.938-2.628,7.796-5.411,11.93-7.689c12.627-6.963,16.754-15.769,12.368-34.313
		c-1.632-6.9-6.632-11.487-11.761-15.84c-5.314-4.509-11.056-8.545-16.104-13.32c-6.031-5.702-5.865-13.278-3.441-20.294
		c2.371-6.877,8.601-8.912,15.557-9.008c6.931-0.093,13.242,1.488,18.719,5.901c5.433,4.37,10.683,8.996,16.375,12.998
		c14.152,9.955,31.224,6.586,40.491-7.786c2.562-3.978,4.901-8.103,7.304-12.18c6.485-10.995,16.566-15.064,28.819-15.23
		c8.814-0.116,15.863,3.282,20.684,10.514c7.753,11.625,9.386,24.754,8.967,38.414c-0.309,10.06-5.986,17.095-12.19,23.992
		c-2.428,2.695-5.164,5.124-7.439,7.936c-5.076,6.275-10.456,12.392-14.796,19.158c-8.923,13.926-12.15,40.342,2.743,56.326
		c12.615,13.531,28.303,18.346,46.187,15.542l-2.364-2.364l3.26-3.014l-3.26-3.06l3.872-3.869l3.179,3.26l3.219-3.26l3.834,3.869
		l-3.222,3.06l2.562,2.396c14.604-5.854,24.583-18.626,24.975-37.46C536.582,318.649,533.875,305.566,528.194,292.94z
		 M446.662,117.592c-2.286,5.065-5.198,9.843-7.863,14.731c-5.989,10.973-6.284,12.575-4.239,24.912c-14.472,0-28.889,0-43.867,0
		c1.045-1.999,1.885-3.692,2.804-5.342c6.599-11.845,7.403-23.627,0.046-35.553c-3.833-6.208-6.506-12.826-6.797-20.351
		c-0.423-10.862,2.721-19.838,12.552-25.441c10.611-6.047,21.584-7.293,32.534-0.945C448.325,79.165,454.692,99.763,446.662,117.592
		z M511.975,353.337l-3.834,3.869l-3.219-3.178l-3.179,3.178l-3.871-3.869l3.259-3.018l-3.259-3.058l3.871-3.87l3.179,3.261
		l3.219-3.261l3.834,3.87l-3.222,3.058L511.975,353.337z M511.975,335.932l-3.834,3.871l-3.219-3.182l-3.179,3.182l-3.871-3.871
		l3.259-3.016l-3.259-3.058l3.871-3.872l3.179,3.263l3.219-3.263l3.834,3.872l-3.222,3.058L511.975,335.932z"/>
	<path opacity="0.8" fill="#FFDE17" enable-background="new    " d="M435.292,401.146c0-81.513,0-162.336,0-243.606
		c17.061,0,33.709,0,50.874,0c0,97.475,0,194.963,0,292.878c-81.585,0-163.008,0-244.849,0c0-97.608,0-195.094,0-292.952
		c16.887,0,33.53,0,50.854,0c0,81.175,0,162.167,0,243.68C340.031,401.146,387.21,401.146,435.292,401.146z"/>
	<path fill="#39B54A" d="M226.027,166.125c0,15.458,0,30.513,0,45.827c-9.519,0-18.721,0-28.162,0
		c-0.061-0.804-0.162-1.513-0.162-2.221c0.003-32.965-0.055-65.928,0.053-98.893c0.088-26.843,17.286-51.687,45.493-59.579
		c24.273-6.793,46.672-3.1,66.26,13.206c13.185,10.977,20.07,25.473,21.48,42.553c1.309,15.81-1.773,30.553-10.922,43.73
		c-10.544,15.196-25.315,23.667-43.379,26.522c-17.444,2.76-33.701-0.678-48.671-10.09
		C227.518,166.864,226.971,166.621,226.027,166.125z M236.047,138.207c0.578,0.394,0.922,0.555,1.173,0.808
		c9.253,9.418,20.377,13.78,33.587,12.218c13.212-1.563,23.243-7.892,29.161-20.077c3.339-6.879,4.029-14.238,3.449-21.734
		c-0.88-11.366-5.664-20.913-15.059-27.339c-14.435-9.869-29.781-10.081-44.793-1.445c-11.212,6.455-16.918,16.956-17.406,29.774
		c-0.486,12.623-0.145,25.271-0.155,37.911c0,0.447,0.122,0.894,0.277,1.941C229.697,146.047,232.78,142.244,236.047,138.207z"/>
	<path opacity="0.7" fill="#00AEEF" enable-background="new    " d="M343.876,276.905c14.005,0,27.376,0,41.459,0
		c-21.844,57.311-43.543,114.251-65.19,171.059c0.487,0.691,0.693,1.259,1.093,1.505c12.355,7.676,25.48,13.209,40.008,15.391
		c12.521,1.88,24.174-0.153,35.264-6.058c0.443-0.235,0.942-0.369,1.819-0.703c0,12.787,0,25.342,0,38.29
		c-5.13,3.248-11.166,4.84-17.292,5.765c-26.208,3.946-50.312-2.043-72.634-15.953c-2.053-1.278-4.057-2.64-6.233-4.062
		c-3.831,3.604-7.335,7.462-11.389,10.618c-19.896,15.479-41.934,18.852-65.154,9.332c-17.475-7.166-26.533-21.111-27.453-40.124
		c-1.136-23.435,14.406-44.175,40.879-48.564c15.439-2.562,29.659,0.56,43.08,8.215c1.353,0.775,2.697,1.563,4.056,2.327
		c0.139,0.08,0.327,0.072,1.32,0.267C306.443,375.333,324.855,326.094,343.876,276.905z M271.864,457.26
		c-5.521-2.458-10.573-5.117-15.91-6.951c-4.094-1.406-8.548-1.387-12.828-0.054c-7.18,2.228-10.149,10.829-5.51,16.25
		c2.642,3.086,6.346,4.213,10.26,4.325C258.165,471.117,265.705,466.305,271.864,457.26z"/>
	<path fill="#EF4136" d="M529.73,427.432c-6.392-15.008-12.806-30.007-19.188-45.017c-1.325-3.119-2.646-6.24-3.977-9.359
		l-1.644-1.622l-3.179,3.178l-3.872-3.871l3.26-3.018l-3.26-3.056l3.601-3.601c-11.387-26.797-22.768-53.598-34.116-80.41
		c-0.789-1.864-1.697-2.684-3.848-2.637c-7.41,0.147-14.829,0.194-22.236-0.018c-2.616-0.078-3.595,0.967-4.533,3.187
		c-16.562,39.114-33.216,78.194-49.844,117.281c-4.089,9.613-8.163,19.231-12.247,28.846c-1.426,3.35-1.43,3.354,2.326,3.355
		c6.827,0.006,13.649-0.063,20.474,0.043c2.109,0.029,3.845-0.565,5.605-1.635c25.111-15.231,50.235-30.438,75.382-45.607
		c3.619-2.181,3.107-2.692,4.995,1.703c6.162,14.34,12.285,28.698,18.338,43.086c0.73,1.744,1.535,2.527,3.562,2.471
		c5.997-0.155,12-0.055,18.001-0.055c2.452,0,4.908,0,7.689,0C530.498,429.359,530.134,428.386,529.73,427.432z M469.492,358.2
		c-16.971,11.172-33.894,22.417-50.836,33.638c-0.34,0.224-0.733,0.375-1.841,0.927c11.825-27.471,23.347-54.229,35.144-81.632
		c2.161,5.056,4.063,9.498,5.957,13.945c4.177,9.813,8.312,19.655,12.575,29.433C471.238,356.219,471.113,357.134,469.492,358.2z"/>
	<g>
		<path fill="#6D6E71" d="M240.914,378.143l-0.224-1.343c-0.142-0.843-0.114-0.922-0.784-1.006l-12.861-1.565
			c-0.698-0.085-0.812-0.085-0.894,0.56l-0.224,1.565h-0.561v-6.709h0.561l0.224,1.564c0.113,0.7,0.224,0.839,0.67,0.896
			l5.816,0.697v-7.855l-5.592-0.669c-0.698-0.083-0.812-0.083-0.894,0.56l-0.224,1.565h-0.561v-6.708h0.561l0.224,1.565
			c0.113,0.703,0.224,0.837,0.67,0.896l12.86,1.563c0.783,0.083,0.839,0.195,1.009-0.781l0.224-1.342h0.558v6.598h-0.558
			l-0.224-1.342c-0.142-0.844-0.114-0.925-0.784-1.011l-6.374-0.778v7.853l6.15,0.757c0.783,0.082,0.839,0.194,1.008-0.784
			l0.224-1.342h0.558v6.6h-0.559V378.143L240.914,378.143z"/>
		<path fill="#6D6E71" d="M237.782,359.016c-4.138,0-6.597-2.574-6.597-5.705c0-0.755,0.224-1.344,0.421-1.761l-0.421-1.931
			l2.014,0.338l5.589,0.668c0.227,0.029,0.784,0.116,0.895,0.116c0.671,0,1.009-0.254,1.009-0.784c0-0.672-0.225-1.344-0.336-1.569
			h0.336c0.333,0.338,1.006,1.231,1.006,2.577c0,1.031-0.587,1.589-1.736,1.678c0.617,0.389,1.736,1.393,1.736,3.129
			C241.698,357.672,240.356,359.016,237.782,359.016z M239.573,352.639c-0.278-0.027-0.698-0.087-0.896-0.112l-6.598-0.839v1.061
			c0,2.797,2.573,4.249,5.369,4.249c1.874,0,3.019-0.56,3.019-2.121C240.467,353.844,239.991,353.087,239.573,352.639z"/>
		<path fill="#6D6E71" d="M247.402,348.948l-0.115-0.779c-0.084-0.672-0.559-0.843-1.118-0.896l-12.973-1.567
			c-0.558-0.056-0.865,0.055-1.005,0.668l-0.226,1.009h-0.335c-0.111-0.449-0.334-1.341-0.334-2.234c0-0.986,0.614-1.46,1.706-1.344
			c-0.616-0.419-1.706-1.428-1.706-3.135c0-1.901,1.342-3.241,3.913-3.241c4.139,0,6.597,2.461,6.597,5.59
			c0,0.699-0.195,1.342-0.392,1.79l4.753,0.558c0.56,0.059,0.95-0.055,1.008-0.558l0.224-1.678h0.559v5.813H247.4v0.004H247.402z
			 M240.914,343.581c0-2.825-2.573-4.137-5.367-4.137c-1.874,0-3.021,0.558-3.021,2.125c0,1.061,0.504,1.818,0.952,2.292
			l7.435,0.897C240.914,344.364,240.914,343.942,240.914,343.581z"/>
		<path fill="#6D6E71" d="M247.402,337.093l-0.115-0.785c-0.084-0.672-0.559-0.841-1.118-0.897l-12.973-1.565
			c-0.558-0.054-0.865,0.057-1.005,0.671l-0.226,1.006h-0.335c-0.111-0.445-0.334-1.34-0.334-2.235c0-0.979,0.614-1.453,1.706-1.343
			c-0.616-0.421-1.706-1.425-1.706-3.135c0-1.897,1.342-3.239,3.913-3.239c4.139,0,6.597,2.459,6.597,5.592
			c0,0.697-0.195,1.34-0.392,1.787l4.753,0.561c0.56,0.055,0.95-0.056,1.008-0.561l0.224-1.677h0.559v5.813H247.4v0.008H247.402z
			 M240.914,331.724c0-2.824-2.573-4.14-5.367-4.14c-1.874,0-3.021,0.56-3.021,2.125c0,1.064,0.504,1.816,0.952,2.294l7.435,0.894
			C240.914,332.509,240.914,332.088,240.914,331.724z"/>
		<path fill="#6D6E71" d="M246.954,326.465c-0.783,0-1.119-0.67-1.119-1.231c0-0.56,0.226-0.892,1.007-1.228
			c-0.896-1.344-3.131-2.799-4.696-3.583l-9.506,2.686c-0.336,0.088-0.505,0.338-0.561,0.674l-0.112,0.56h-0.334
			c0,0-0.335-0.67-0.335-1.567c0-1.116,0.363-1.424,1.343-1.678l7.49-2.015c-1.454-1.004-4.585-2.458-6.486-2.569
			c-0.225,0.558-0.669,1.008-1.232,1.008c-0.754,0-1.229-0.561-1.229-1.229c0-0.672,0.446-1.344,1.229-1.344
			c2.127,0,6.823,2.573,9.172,4.36c1.566,0.896,6.597,3.245,6.597,5.704C248.183,325.797,247.736,326.465,246.954,326.465z"/>
		<path fill="#6D6E71" d="M240.914,308.905l-0.224-1.34c-0.142-0.811-0.114-0.925-0.784-1.012l-12.861-1.564
			c-0.698-0.085-0.812-0.085-0.894,0.56l-0.224,1.565h-0.561v-6.598c0-2.711,1.089-4.36,3.245-4.36c1.901,0,3.58,1.229,4.08,3.525
			c0.585-2.21,1.929-3.414,3.856-3.414c3.355,0,4.92,2.686,4.92,5.816v6.821H240.914L240.914,308.905L240.914,308.905z
			 M232.527,302.082c0-2.573-1.704-3.801-3.913-3.801c-1.736,0-2.573,1.062-2.573,2.905v0.226c0,0.305,0.139,1.006,0.279,1.4
			l6.207,0.75V302.082L232.527,302.082z M240.803,302.418c0-2.459-1.902-3.915-4.362-3.915c-2.125,0-3.131,1.565-3.131,3.694v1.452
			l7.186,0.866c0.197-0.334,0.309-1.118,0.309-1.648L240.803,302.418L240.803,302.418z"/>
		<path fill="#6D6E71" d="M226.378,291.792c-0.784,0-1.456-0.448-1.456-1.229c0-0.673,0.447-0.896,1.118-0.896
			c0.783,0,1.455,0.444,1.455,1.228C227.495,291.567,227.047,291.792,226.378,291.792z M239.684,293.247
			c-0.225,0-0.782-0.087-1.007-0.114l-5.479-0.672c-0.559-0.051-0.867,0.197-1.007,0.786l-0.225,0.896h-0.334
			c-0.113-0.446-0.335-1.457-0.335-2.571c0-1.008,0.895-1.121,1.902-1.008l5.478,0.67c0.225,0.027,0.896,0.112,1.007,0.112
			c0.672,0,1.009-0.251,1.009-0.782c0-0.671-0.225-1.343-0.336-1.565h0.336c0.334,0.336,1.007,1.118,1.007,2.46
			C241.698,292.573,241.026,293.247,239.684,293.247z"/>
		<path fill="#6D6E71" d="M233.198,286.309c-0.559-0.055-0.867,0.086-1.007,0.672l-0.225,1.006h-0.334
			c-0.113-0.446-0.335-1.45-0.335-2.235c0-1.008,0.643-1.483,1.902-1.344l0.725,0.083c-1.537-0.67-2.739-1.565-2.739-2.878
			c0-0.562,0.448-1.008,1.007-1.008c0.783,0,1.228,0.446,1.228,1.116c0,0.671-0.446,1.009-0.781,1.119
			c0,0.503,1.034,1.312,1.648,1.703l7.185,0.864v1.905L233.198,286.309z"/>
		<path fill="#6D6E71" d="M239.573,279.265c-0.671,0-1.231-0.055-1.79-0.115l-5.37-0.67v1.567h-0.893v-1.68l-2.796-0.334
			l-0.335-1.677v-0.225l3.132,0.336v-2.572h0.895v2.685l5.368,0.668c0.448,0.055,1.12,0.114,1.79,0.114
			c0.783,0,1.119-0.561,1.119-1.344c0-0.67-0.336-1.34-0.561-1.678h0.335c0.559,0.56,1.232,1.456,1.232,2.797
			C241.698,278.368,241.026,279.265,239.573,279.265z"/>
		<path fill="#6D6E71" d="M239.684,266.627c-0.225,0-0.782-0.087-1.007-0.112l-3.467-0.449c-0.223-0.026-0.894-0.112-1.007-0.112
			c-1.341,0-1.79,0.562-1.79,1.567c0,0.894,0.755,1.76,1.54,2.317l7.519,0.922v1.903l-15.657-1.903
			c-0.559-0.05-0.53-0.026-0.669,0.562l-0.224,1.01h-0.448l-0.225-2.126c-0.056-0.558-0.166-1.286-0.446-1.679l2.013,0.336
			l7.691,0.921c-1.341-0.67-2.321-1.705-2.321-3.271c0-1.678,1.008-2.461,2.907-2.461c0.225,0,1.007,0.088,1.231,0.11l3.465,0.449
			c0.226,0.029,0.784,0.114,0.895,0.114c0.672,0,1.009-0.254,1.009-0.782c0-0.672-0.225-1.345-0.336-1.567h0.336
			c0.333,0.334,1.007,1.118,1.007,2.463C241.698,266.177,240.803,266.627,239.684,266.627z"/>
		<path fill="#6D6E71" d="M237.782,261.031c-4.138,0-6.597-2.571-6.597-5.704c0-0.697,0.166-1.228,0.392-1.648l-5.761-0.698
			c-0.559-0.054-0.529-0.027-0.67,0.56l-0.224,1.008h-0.449l-0.224-2.013c-0.054-0.56-0.167-1.397-0.446-1.79l2.013,0.334
			l12.86,1.565c0.225,0.028,0.896,0.115,1.007,0.115c0.671,0,1.009-0.251,1.009-0.784c0-0.669-0.225-1.341-0.336-1.565h0.336
			c0.333,0.335,1.006,1.229,1.006,2.571c0,1.035-0.587,1.593-1.736,1.679c0.617,0.392,1.736,1.397,1.736,3.133
			C241.698,259.69,240.356,261.031,237.782,261.031z M239.573,254.656c-0.278-0.028-0.698-0.083-0.896-0.111l-6.598-0.81v1.034
			c0,2.824,2.573,4.25,5.369,4.25c1.874,0,3.019-0.559,3.019-2.125C240.467,255.862,239.991,255.104,239.573,254.656z"/>
		<path fill="#6D6E71" d="M237.782,249.062c-4.138,0-6.597-2.57-6.597-5.704c0-0.754,0.224-1.341,0.421-1.762l-0.421-1.926
			l2.014,0.335l5.589,0.671c0.227,0.027,0.784,0.113,0.895,0.113c0.671,0,1.009-0.251,1.009-0.784c0-0.67-0.225-1.342-0.336-1.565
			h0.336c0.333,0.333,1.006,1.23,1.006,2.573c0,1.032-0.587,1.591-1.736,1.676c0.617,0.391,1.736,1.398,1.736,3.133
			C241.698,247.72,240.356,249.062,237.782,249.062z M239.573,242.687c-0.278-0.026-0.698-0.083-0.896-0.112l-6.598-0.838v1.062
			c0,2.798,2.573,4.25,5.369,4.25c1.874,0,3.019-0.56,3.019-2.125C240.467,243.891,239.991,243.135,239.573,242.687z"/>
		<path fill="#6D6E71" d="M246.954,240.225c-0.783,0-1.119-0.671-1.119-1.229c0-0.56,0.226-0.894,1.007-1.23
			c-0.896-1.343-3.131-2.796-4.696-3.579l-9.506,2.684c-0.336,0.083-0.505,0.334-0.561,0.669l-0.112,0.562h-0.334
			c0,0-0.335-0.671-0.335-1.567c0-1.118,0.363-1.425,1.343-1.679l7.49-2.011c-1.454-1.007-4.585-2.461-6.486-2.573
			c-0.225,0.558-0.669,1.006-1.232,1.006c-0.754,0-1.229-0.56-1.229-1.229c0-0.672,0.446-1.341,1.229-1.341
			c2.127,0,6.823,2.57,9.172,4.357c1.566,0.897,6.597,3.247,6.597,5.705C248.183,239.554,247.736,240.225,246.954,240.225z"/>
	</g>
</g>
</svg>
