<?xml version="1.0" encoding="utf-8"?>
<!-- Generator: Adobe Illustrator 16.0.4, SVG Export Plug-In . SVG Version: 6.00 Build 0)  -->
<!DOCTYPE svg PUBLIC "-//W3C//DTD SVG 1.1//EN" "http://www.w3.org/Graphics/SVG/1.1/DTD/svg11.dtd">
<svg version="1.1" id="Layer_1" xmlns="http://www.w3.org/2000/svg" xmlns:xlink="http://www.w3.org/1999/xlink" x="0px" y="0px"
	 width="645px" height="612px" viewBox="-101.5 0 645 612" enable-background="new -101.5 0 645 612" xml:space="preserve">
<g id="Layer_2">
	<path opacity="0.96" fill="#262262" d="M263.595,0c9.021,1.11,18.21,1.497,27.049,3.466c29.291,6.526,46.095,25.526,51.263,54.588
		c2.417,13.582,3.022,27.48,4.521,41.227c1.131,10.379,2.16,20.778,3.619,31.118c2.088,14.824,9.995,26.228,21.498,35.464
		c11.062,8.877,21.897,18.047,32.987,26.893c16.604,13.237,20.688,30.299,14.554,49.841c-1.965,6.244-6.512,11.7-9.999,17.444
		c-13.702,22.576-17.087,45.788-4.756,70.154c3.503,6.916,6.622,14.032,9.807,21.104c6.884,15.288,10.158,31.131,9.805,48.104
		c-0.58,27.767-18.365,44.668-42.519,48.793c-22.131,3.78-41.525-1.969-57.067-18.644c-18.037-19.353-14.127-51.343-3.324-68.207
		c5.255-8.194,11.77-15.598,17.916-23.196c2.754-3.407,6.069-6.348,9.01-9.612c7.511-8.35,14.385-16.871,14.757-29.051
		c0.508-16.544-1.471-32.44-10.854-46.518c-5.839-8.758-14.377-12.874-25.047-12.732c-14.842,0.201-27.047,5.128-34.899,18.442
		c-2.913,4.938-5.744,9.932-8.847,14.75c-11.222,17.402-31.894,21.481-49.032,9.426c-6.895-4.846-13.254-10.448-19.829-15.74
		c-6.634-5.345-14.277-7.26-22.67-7.146c-8.421,0.116-15.965,2.582-18.836,10.909c-2.936,8.494-3.133,17.67,4.168,24.574
		c6.115,5.784,13.066,10.67,19.5,16.13c6.21,5.269,12.267,10.824,14.242,19.181c5.311,22.455,0.314,33.121-14.977,41.551
		c-5.004,2.759-9.678,6.127-14.445,9.311c-8.379,5.594-10.43,13.479-8.658,23.042c1.038,5.606,1.77,11.364,1.768,17.054
		c-0.003,12.831-6.523,22.104-18.082,26.836c-15.79,6.456-32.259,6.866-48.603,1.827c-8.063-2.488-14.002-7.944-17.923-15.501
		c-6.946-13.386-8.34-27.742-6.594-42.358c0.896-7.543,4.769-14.058,11.192-18.613c8.808-6.253,17.447-12.774,26.551-18.568
		c24.268-15.433,27.495-33.626,18.35-63.602c-2.199-7.215-7.192-13.655-11.3-20.199c-5.027-8.008-10.211-15.77-11.969-25.406
		c-3.89-21.327,3.594-39.418,22.621-49.71c9.996-5.404,21.134-8.685,31.735-12.974c9.667-3.911,19.793-7.011,28.859-12.022
		c18.747-10.356,22.295-28.865,9.698-46.102c-3.582-4.912-7.373-9.67-11.121-14.457c-14.761-18.865-18.73-40.211-13.212-63.098
		c4.624-19.195,18.11-31.168,35.576-38.951C233.858,2.671,248.453,0.395,263.595,0z M300.752,186.969
		c-2.472-14.939-2.117-16.879,5.134-30.166c3.229-5.919,6.754-11.708,9.521-17.839c9.728-21.59,2.016-46.532-17.96-58.112
		c-13.26-7.686-26.546-6.176-39.397,1.147c-11.907,6.785-15.71,17.655-15.199,30.807c0.354,9.113,3.594,17.127,8.232,24.644
		c8.91,14.44,7.935,28.708-0.054,43.052c-1.114,1.997-2.13,4.049-3.395,6.467C265.771,186.969,283.228,186.969,300.752,186.969z"/>
	<path opacity="0.8" fill="#FFDE17" d="M301.643,482.329c0-98.706,0-196.576,0-294.989c20.659,0,40.818,0,61.604,0
		c0,118.035,0,236.086,0,354.658c-98.794,0-197.389,0-296.496,0c0-118.202,0-236.25,0-354.749c20.449,0,40.606,0,61.583,0
		c0,98.299,0,196.374,0,295.08C186.286,482.329,243.417,482.329,301.643,482.329z"/>
	<path fill="#39B54A" d="M48.236,197.736c0,18.719,0,36.949,0,55.492c-11.527,0-22.671,0-34.104,0
		c-0.074-0.973-0.196-1.831-0.196-2.689c0.005-39.919-0.068-79.837,0.063-119.753c0.108-32.505,20.932-62.592,55.089-72.15
		c29.393-8.223,56.518-3.751,80.237,15.996c15.966,13.292,24.302,30.843,26.013,51.529c1.583,19.144-2.148,36.997-13.225,52.954
		c-12.772,18.401-30.659,28.657-52.533,32.116c-21.125,3.343-40.809-0.82-58.937-12.218
		C50.041,198.631,49.379,198.337,48.236,197.736z M60.369,163.929c0.701,0.477,1.119,0.671,1.42,0.977
		c11.204,11.404,24.675,16.686,40.672,14.795c15.999-1.893,28.147-9.557,35.314-24.312c4.044-8.331,4.879-17.24,4.174-26.32
		c-1.064-13.763-6.858-25.324-18.235-33.103c-17.478-11.952-36.062-12.209-54.24-1.749c-13.579,7.815-20.488,20.53-21.08,36.053
		c-0.586,15.285-0.174,30.603-0.186,45.907c0,0.543,0.15,1.083,0.335,2.351C52.68,173.422,56.412,168.816,60.369,163.929z"/>
	<path fill="#EF4136" d="M417.566,518.09c-3.367,0-6.344,0-9.314,0c-7.266,0-14.537-0.123-21.799,0.068
		c-2.455,0.064-3.428-0.881-4.314-2.994c-7.326-17.422-14.744-34.809-22.205-52.174c-2.287-5.322-1.668-4.701-6.047-2.062
		c-30.453,18.371-60.877,36.785-91.285,55.23c-2.133,1.297-4.236,2.018-6.787,1.979c-8.264-0.131-16.529-0.045-24.793-0.051
		c-4.549-0.002-4.545-0.008-2.82-4.062c4.947-11.646,9.881-23.291,14.834-34.932c20.135-47.334,40.299-94.655,60.356-142.021
		c1.137-2.685,2.321-3.951,5.487-3.859c8.971,0.256,17.955,0.201,26.93,0.02c2.605-0.053,3.705,0.936,4.66,3.195
		c17.389,41.092,34.842,82.158,52.297,123.221c7.729,18.178,15.494,36.34,23.234,54.514
		C416.49,515.315,416.931,516.493,417.566,518.09z M279.267,472.18c1.342-0.67,1.818-0.85,2.23-1.123
		c20.516-13.586,41.01-27.203,61.561-40.732c1.961-1.291,2.111-2.398,1.209-4.467c-5.162-11.842-10.17-23.756-15.23-35.643
		c-2.293-5.383-4.596-10.76-7.211-16.885C307.539,406.512,293.589,438.913,279.267,472.18z"/>
	<g>
		<path fill="#6D6E71" d="M66.263,454.475l-0.271-1.625c-0.169-1.018-0.136-1.118-0.948-1.219l-15.574-1.896
			c-0.846-0.104-0.982-0.104-1.083,0.678l-0.271,1.896h-0.677v-8.125h0.677l0.271,1.896c0.136,0.844,0.271,1.015,0.812,1.084
			l7.042,0.844v-9.512l-6.771-0.812c-0.846-0.101-0.982-0.101-1.083,0.678l-0.271,1.896h-0.677v-8.125h0.677l0.271,1.896
			c0.136,0.848,0.271,1.014,0.812,1.083l15.574,1.896c0.948,0.101,1.016,0.236,1.219-0.948l0.271-1.625h0.677v7.99h-0.677
			l-0.271-1.625c-0.169-1.018-0.136-1.118-0.948-1.219l-7.719-0.948v9.512l7.449,0.913c0.948,0.101,1.016,0.236,1.219-0.948
			l0.271-1.625h0.677v7.99h-0.677V454.475z"/>
		<path fill="#6D6E71" d="M62.471,431.311c-5.01,0-7.989-3.114-7.989-6.906c0-0.914,0.271-1.625,0.508-2.133l-0.508-2.337
			l2.438,0.406l6.771,0.816c0.271,0.031,0.948,0.135,1.083,0.135c0.812,0,1.219-0.305,1.219-0.951c0-0.812-0.271-1.625-0.406-1.896
			h0.406c0.406,0.406,1.219,1.489,1.219,3.118c0,1.25-0.711,1.927-2.1,2.031c0.745,0.473,2.1,1.691,2.1,3.792
			C67.212,429.686,65.586,431.311,62.471,431.311z M64.638,423.592c-0.338-0.035-0.846-0.102-1.083-0.136l-7.99-1.015v1.285
			c0,3.386,3.115,5.146,6.5,5.146c2.269,0,3.657-0.677,3.657-2.573C65.722,425.05,65.146,424.133,64.638,423.592z"/>
		<path fill="#6D6E71" d="M74.118,419.123l-0.136-0.947c-0.102-0.812-0.677-1.018-1.354-1.084l-15.709-1.896
			c-0.677-0.069-1.049,0.065-1.219,0.812l-0.271,1.219h-0.406c-0.135-0.542-0.406-1.625-0.406-2.709
			c0-1.187,0.745-1.764,2.065-1.625c-0.745-0.51-2.065-1.729-2.065-3.795c0-2.302,1.625-3.927,4.739-3.927
			c5.01,0,7.989,2.979,7.989,6.771c0,0.845-0.237,1.625-0.474,2.167l5.756,0.677c0.677,0.066,1.151-0.068,1.219-0.677l0.271-2.031
			h0.677v7.042h-0.675V419.123z M66.263,412.623c0-3.42-3.115-5.011-6.5-5.011c-2.269,0-3.657,0.677-3.657,2.573
			c0,1.285,0.609,2.201,1.151,2.777l9.005,1.084C66.263,413.571,66.263,413.06,66.263,412.623z"/>
		<path fill="#6D6E71" d="M74.118,404.765l-0.136-0.951c-0.102-0.812-0.677-1.015-1.354-1.084l-15.709-1.896
			c-0.677-0.066-1.049,0.069-1.219,0.812l-0.271,1.219h-0.406c-0.135-0.542-0.406-1.625-0.406-2.709c0-1.184,0.745-1.76,2.065-1.625
			c-0.745-0.507-2.065-1.726-2.065-3.792c0-2.302,1.625-3.927,4.739-3.927c5.01,0,7.989,2.979,7.989,6.771
			c0,0.844-0.237,1.625-0.474,2.166l5.756,0.678c0.677,0.065,1.151-0.069,1.219-0.678l0.271-2.031h0.677v7.039h-0.675V404.765z
			 M66.263,398.264c0-3.42-3.115-5.011-6.5-5.011c-2.269,0-3.657,0.677-3.657,2.573c0,1.288,0.609,2.201,1.151,2.777l9.005,1.084
			C66.263,399.212,66.263,398.706,66.263,398.264z"/>
		<path fill="#6D6E71" d="M73.576,391.896c-0.948,0-1.354-0.812-1.354-1.489c0-0.678,0.271-1.084,1.219-1.49
			c-1.083-1.628-3.792-3.389-5.687-4.337l-11.512,3.251c-0.407,0.104-0.61,0.409-0.677,0.815l-0.136,0.677h-0.406
			c0,0-0.406-0.812-0.406-1.898c0-1.354,0.44-1.723,1.625-2.031l9.073-2.438c-1.761-1.219-5.552-2.979-7.854-3.114
			c-0.271,0.677-0.812,1.219-1.49,1.219c-0.914,0-1.49-0.677-1.49-1.49c0-0.812,0.542-1.625,1.49-1.625
			c2.574,0,8.261,3.115,11.105,5.282c1.896,1.083,7.99,3.927,7.99,6.906C75.066,391.083,74.524,391.896,73.576,391.896z"/>
		<path fill="#6D6E71" d="M66.263,370.631l-0.271-1.625c-0.169-0.979-0.136-1.115-0.948-1.219l-15.574-1.896
			c-0.846-0.101-0.982-0.101-1.083,0.678l-0.271,1.896h-0.677v-7.99c0-3.283,1.32-5.281,3.928-5.281
			c2.302,0,4.334,1.489,4.942,4.268c0.711-2.676,2.337-4.132,4.671-4.132c4.063,0,5.958,3.25,5.958,7.042v8.261H66.263z
			 M56.106,362.371c0-3.118-2.066-4.604-4.739-4.604c-2.1,0-3.115,1.288-3.115,3.521v0.271c0,0.371,0.169,1.219,0.338,1.694
			l7.516,0.913V362.371z M66.128,362.777c0-2.982-2.302-4.74-5.281-4.74c-2.574,0-3.792,1.896-3.792,4.469v1.761l8.701,1.049
			c0.237-0.406,0.373-1.354,0.373-1.997V362.777z"/>
		<path fill="#6D6E71" d="M48.658,349.908c-0.948,0-1.761-0.541-1.761-1.489c0-0.812,0.542-1.083,1.354-1.083
			c0.948,0,1.761,0.541,1.761,1.489C50.013,349.637,49.471,349.908,48.658,349.908z M64.774,351.67
			c-0.271,0-0.948-0.103-1.219-0.137l-6.636-0.813c-0.677-0.065-1.049,0.238-1.219,0.95l-0.271,1.083h-0.406
			c-0.135-0.542-0.406-1.762-0.406-3.116c0-1.219,1.083-1.354,2.302-1.219l6.636,0.812c0.271,0.035,1.083,0.136,1.219,0.136
			c0.812,0,1.219-0.303,1.219-0.948c0-0.812-0.271-1.625-0.406-1.896h0.406c0.406,0.407,1.219,1.354,1.219,2.979
			C67.212,350.856,66.399,351.67,64.774,351.67z"/>
		<path fill="#6D6E71" d="M56.919,343.272c-0.677-0.067-1.049,0.102-1.219,0.812l-0.271,1.219h-0.406
			c-0.135-0.541-0.406-1.76-0.406-2.708c0-1.219,0.779-1.795,2.302-1.625l0.88,0.099c-1.862-0.812-3.318-1.896-3.318-3.486
			c0-0.677,0.542-1.219,1.219-1.219c0.948,0,1.49,0.542,1.49,1.354c0,0.814-0.542,1.221-0.948,1.355
			c0,0.608,1.252,1.589,1.997,2.064l8.701,1.048v2.304L56.919,343.272z"/>
		<path fill="#6D6E71" d="M64.638,334.739c-0.812,0-1.49-0.067-2.167-0.137l-6.5-0.812v1.897h-1.083v-2.033l-3.386-0.406
			l-0.406-2.031v-0.271l3.792,0.406v-3.115h1.083v3.25l6.5,0.812c0.542,0.069,1.355,0.136,2.167,0.136
			c0.948,0,1.354-0.677,1.354-1.625c0-0.812-0.406-1.625-0.677-2.031h0.406c0.677,0.677,1.49,1.761,1.49,3.386
			C67.212,333.654,66.399,334.739,64.638,334.739z"/>
		<path fill="#6D6E71" d="M64.774,319.434c-0.271,0-0.948-0.101-1.219-0.135l-4.199-0.542c-0.271-0.035-1.084-0.136-1.22-0.136
			c-1.625,0-2.167,0.678-2.167,1.896c0,1.083,0.914,2.134,1.862,2.811l9.107,1.116v2.303l-18.959-2.303
			c-0.677-0.065-0.644-0.034-0.812,0.678l-0.271,1.219h-0.542l-0.271-2.573c-0.068-0.678-0.203-1.556-0.542-2.033l2.438,0.408
			l9.311,1.116c-1.625-0.812-2.81-2.066-2.81-3.962c0-2.033,1.219-2.98,3.521-2.98c0.271,0,1.22,0.102,1.49,0.135l4.199,0.542
			c0.271,0.034,0.948,0.136,1.083,0.136c0.812,0,1.219-0.303,1.219-0.948c0-0.812-0.271-1.625-0.406-1.896h0.406
			c0.406,0.406,1.219,1.354,1.219,2.979C67.212,318.891,66.128,319.434,64.774,319.434z"/>
		<path fill="#6D6E71" d="M62.471,312.66c-5.01,0-7.989-3.114-7.989-6.906c0-0.844,0.203-1.49,0.474-1.997l-6.975-0.846
			c-0.677-0.067-0.643-0.033-0.812,0.677l-0.271,1.221h-0.542l-0.271-2.439c-0.067-0.677-0.203-1.693-0.542-2.167l2.438,0.406
			l15.574,1.896c0.271,0.033,1.083,0.136,1.219,0.136c0.812,0,1.219-0.304,1.219-0.948c0-0.812-0.271-1.625-0.406-1.896h0.406
			c0.406,0.406,1.219,1.489,1.219,3.114c0,1.252-0.711,1.929-2.1,2.033c0.745,0.473,2.1,1.691,2.1,3.792
			C67.212,311.037,65.586,312.66,62.471,312.66z M64.638,304.941c-0.338-0.033-0.846-0.101-1.083-0.136l-7.99-0.979v1.25
			c0,3.418,3.115,5.146,6.5,5.146c2.269,0,3.657-0.677,3.657-2.573C65.722,306.399,65.146,305.482,64.638,304.941z"/>
		<path fill="#6D6E71" d="M62.471,298.167c-5.01,0-7.989-3.115-7.989-6.907c0-0.914,0.271-1.625,0.508-2.132l-0.508-2.335
			l2.438,0.408l6.771,0.812c0.271,0.033,0.948,0.135,1.083,0.135c0.812,0,1.219-0.304,1.219-0.948c0-0.814-0.271-1.627-0.406-1.898
			h0.406c0.406,0.406,1.219,1.49,1.219,3.117c0,1.25-0.711,1.927-2.1,2.031c0.745,0.472,2.1,1.693,2.1,3.792
			C67.212,296.541,65.586,298.167,62.471,298.167z M64.638,290.447c-0.338-0.033-0.846-0.101-1.083-0.136l-7.99-1.014v1.285
			c0,3.387,3.115,5.146,6.5,5.146c2.269,0,3.657-0.677,3.657-2.573C65.722,291.905,65.146,290.989,64.638,290.447z"/>
		<path fill="#6D6E71" d="M73.576,287.466c-0.948,0-1.354-0.812-1.354-1.49s0.271-1.083,1.219-1.49
			c-1.083-1.627-3.792-3.387-5.687-4.335l-11.512,3.25c-0.407,0.101-0.61,0.406-0.677,0.814l-0.136,0.677h-0.406
			c0,0-0.406-0.812-0.406-1.897c0-1.354,0.44-1.726,1.625-2.031l9.073-2.438c-1.761-1.219-5.552-2.979-7.854-3.115
			c-0.271,0.677-0.812,1.219-1.49,1.219c-0.914,0-1.49-0.677-1.49-1.489c0-0.813,0.542-1.625,1.49-1.625
			c2.574,0,8.261,3.115,11.105,5.28c1.896,1.085,7.99,3.929,7.99,6.907C75.066,286.654,74.524,287.466,73.576,287.466z"/>
	</g>
	<path opacity="0.7" fill="#00AEEF" enable-background="new    " d="M190.944,331.88c16.958,0,33.145,0,50.205,0
		c-26.454,69.406-52.729,138.353-78.943,207.145c0.59,0.834,0.84,1.522,1.325,1.823c14.96,9.296,30.853,15.994,48.446,18.636
		c15.163,2.277,29.274-0.189,42.704-7.336c0.536-0.284,1.14-0.445,2.199-0.85c0,15.481,0,30.685,0,46.367
		c-6.209,3.932-13.518,5.864-20.936,6.981c-31.74,4.78-60.923-2.474-87.954-19.317c-2.488-1.549-4.915-3.2-7.548-4.918
		c-4.64,4.364-8.883,9.037-13.791,12.858c-24.092,18.742-50.782,22.825-78.9,11.297c-21.161-8.677-32.13-25.563-33.244-48.588
		c-1.376-28.375,17.445-53.49,49.503-58.807c18.694-3.101,35.916,0.674,52.167,9.948c1.639,0.937,3.267,1.891,4.911,2.819
		c0.169,0.097,0.399,0.087,1.598,0.321C145.614,451.072,167.91,391.447,190.944,331.88z M103.741,550.281
		c-6.685-2.977-12.802-6.198-19.264-8.417c-4.957-1.704-10.352-1.677-15.535-0.069c-8.694,2.701-12.289,13.116-6.67,19.682
		c3.198,3.737,7.683,5.102,12.423,5.236C87.154,567.061,96.282,561.237,103.741,550.281z"/>
	<g enable-background="new    ">
		<path fill="#FFFFFF" d="M394.498,438.159l-3.899,3.701l3.899,3.652l-4.639,4.688l-3.899-3.85l-3.85,3.85l-4.69-4.688l3.95-3.652
			l-3.95-3.701l4.69-4.689l3.85,3.949l3.899-3.949L394.498,438.159z"/>
		<path fill="#FFFFFF" d="M394.498,417.082l-3.899,3.702l3.899,3.652l-4.639,4.689l-3.899-3.85l-3.85,3.85l-4.69-4.689l3.95-3.652
			l-3.95-3.702l4.69-4.688l3.85,3.948l3.899-3.948L394.498,417.082z"/>
		<path fill="#FFFFFF" d="M394.498,396.006l-3.899,3.702l3.899,3.651l-4.639,4.688l-3.899-3.85l-3.85,3.85l-4.69-4.688l3.95-3.651
			l-3.95-3.702l4.69-4.689l3.85,3.949l3.899-3.949L394.498,396.006z"/>
	</g>
</g>
</svg>
