<?xml version="1.0" encoding="utf-8"?>
<!-- Generator: Adobe Illustrator 16.0.4, SVG Export Plug-In . SVG Version: 6.00 Build 0)  -->
<!DOCTYPE svg PUBLIC "-//W3C//DTD SVG 1.1//EN" "http://www.w3.org/Graphics/SVG/1.1/DTD/svg11.dtd">
<svg version="1.1" id="Layer_1" xmlns="http://www.w3.org/2000/svg" xmlns:xlink="http://www.w3.org/1999/xlink" x="0px" y="0px"
	 width="320px" height="240px" viewBox="0 0 320 240" enable-background="new 0 0 320 240" xml:space="preserve">
<g id="COLOR_SCHEME">
	<g id="Color_Swatches">
		<path fill="#181818" d="M95.606,252.089H320c3.445,0,6.242-2.758,6.242-6.159v-65.236H95.606V252.089z"/>
		<rect x="95.606" y="109.299" fill="#333333" width="230.636" height="71.395"/>
		<path fill="#575757" d="M95.606-33.492H320c3.445,0,6.242,2.758,6.242,6.162v65.234H95.606V-33.492z"/>
		<rect x="-59.6" y="194.972" fill="#8C8C8C" width="155.206" height="57.117"/>
		<rect x="95.606" y="37.904" fill="#484748" width="230.636" height="71.395"/>
		<rect x="-59.6" y="23.625" fill="#E6E6E6" width="155.206" height="57.118"/>
		<rect x="-59.6" y="137.855" fill="#AEADAE" width="155.206" height="57.116"/>
		<rect x="-59.6" y="80.742" fill="#CCCCCC" width="155.206" height="57.113"/>
		<rect x="-59.6" y="-33.492" fill="#EEEEEE" width="155.206" height="57.116"/>
	</g>
	<g id="Labels">
		<g display="none">
			<path display="inline" fill="#414042" d="M-37.106,156.998l0.371-2.007h-1.352v-0.782h1.503l0.457-2.403h-1.476v-0.781h1.616
				l0.369-1.964h0.87l-0.36,1.964h2.361l0.376-1.964h0.867l-0.355,1.964h1.338v0.781h-1.492l-0.461,2.403h1.467v0.782h-1.6
				l-0.388,2.007h-0.867l0.369-2.007h-2.36l-0.38,2.007H-37.106z M-35.703,154.209h2.359l0.449-2.403h-2.36L-35.703,154.209z"/>
			<path display="inline" fill="#414042" d="M-29.47,156.998l3.959-7.99h0.921l3.959,7.99h-1.055l-1.018-2.097h-4.729l-1.031,2.097
				H-29.47z M-27.052,154.098h3.962l-1.972-4.046L-27.052,154.098z"/>
			<path display="inline" fill="#414042" d="M-18.915,156.998v-7.933h3.013c1.349,0,2.455,0.374,3.321,1.128
				c0.868,0.751,1.298,1.693,1.298,2.816v0.02c0,1.136-0.43,2.082-1.298,2.834c-0.867,0.759-1.972,1.135-3.321,1.135H-18.915z
				 M-17.937,156.17h2.038c1.076,0,1.944-0.294,2.608-0.882c0.667-0.591,0.993-1.333,0.993-2.23v-0.028
				c0-0.895-0.327-1.646-0.993-2.242c-0.664-0.598-1.529-0.892-2.608-0.892h-2.038V156.17z"/>
			<path display="inline" fill="#414042" d="M-10.523,156.998l3.962-7.99h0.918l3.958,7.99h-1.054l-1.018-2.097h-4.73l-1.031,2.097
				H-10.523z M-8.102,154.098h3.961l-1.974-4.046L-8.102,154.098z"/>
			<path display="inline" fill="#414042" d="M0.031,156.998v-7.933h3.02c1.343,0,2.452,0.374,3.319,1.128
				c0.864,0.751,1.298,1.693,1.298,2.816v0.02c0,1.136-0.434,2.082-1.298,2.834c-0.867,0.759-1.973,1.135-3.319,1.135H0.031z
				 M1.014,156.17H3.05c1.07,0,1.943-0.294,2.607-0.882c0.661-0.591,0.991-1.333,0.991-2.23v-0.028c0-0.895-0.33-1.646-0.991-2.242
				c-0.664-0.598-1.534-0.892-2.607-0.892H1.014V156.17z"/>
			<path display="inline" fill="#414042" d="M8.421,156.998l3.966-7.99h0.915l3.962,7.99h-1.055l-1.019-2.097h-4.731l-1.03,2.097
				H8.421z M10.846,154.098h3.96l-1.972-4.046L10.846,154.098z"/>
			<path display="inline" fill="#414042" d="M18.977,156.998v-7.933h3.016c1.35,0,2.456,0.374,3.325,1.128
				c0.864,0.751,1.297,1.693,1.297,2.816v0.02c0,1.136-0.434,2.082-1.297,2.834c-0.87,0.759-1.974,1.135-3.325,1.135H18.977z
				 M19.959,156.17h2.037c1.076,0,1.947-0.294,2.608-0.882c0.662-0.591,0.996-1.333,0.996-2.23v-0.028
				c0-0.895-0.333-1.646-0.996-2.242c-0.661-0.598-1.53-0.892-2.608-0.892h-2.037V156.17z"/>
		</g>
		<g>
			<path fill="#E6E7E8" d="M117.324,135.166l0.372-2.197h-1.357v-0.856h1.506l0.46-2.633h-1.479v-0.855h1.613l0.376-2.149h0.867
				l-0.359,2.149h2.361l0.37-2.149h0.873l-0.358,2.149h1.34v0.855h-1.49l-0.459,2.633h1.464v0.856h-1.605l-0.381,2.197h-0.873
				l0.373-2.197h-2.36l-0.388,2.197H117.324z M118.727,132.112h2.36l0.446-2.633h-2.362L118.727,132.112z"/>
			<path fill="#E6E7E8" d="M128.336,135.314c-1.367,0-2.447-0.513-3.24-1.551l0.71-0.631c0.703,0.862,1.55,1.289,2.544,1.289
				c0.536,0,0.989-0.157,1.354-0.47c0.363-0.315,0.547-0.723,0.547-1.22v-0.023c0-0.531-0.225-0.938-0.673-1.235
				c-0.447-0.294-1.037-0.44-1.763-0.44h-0.561l-0.197-0.583l2.746-3.092h-4.244v-0.882h5.546v0.723l-2.732,3.027
				c0.825,0.066,1.513,0.302,2.053,0.717c0.545,0.408,0.817,0.986,0.817,1.729v0.028c0,0.755-0.284,1.392-0.842,1.879
				C129.845,135.068,129.154,135.314,128.336,135.314z"/>
			<path fill="#E6E7E8" d="M135.949,135.314c-1.366,0-2.448-0.513-3.243-1.551l0.708-0.631c0.7,0.862,1.553,1.289,2.548,1.289
				c0.54,0,0.986-0.157,1.351-0.47c0.361-0.315,0.545-0.723,0.545-1.22v-0.023c0-0.531-0.22-0.938-0.668-1.235
				c-0.445-0.294-1.035-0.44-1.762-0.44h-0.556l-0.202-0.583l2.744-3.092h-4.246v-0.882h5.551v0.723l-2.735,3.027
				c0.827,0.066,1.515,0.302,2.056,0.717c0.544,0.408,0.81,0.986,0.81,1.729v0.028c0,0.755-0.28,1.392-0.837,1.879
				C137.459,135.068,136.767,135.314,135.949,135.314z"/>
			<path fill="#E6E7E8" d="M143.56,135.314c-1.368,0-2.446-0.513-3.241-1.551l0.707-0.631c0.706,0.862,1.552,1.289,2.548,1.289
				c0.536,0,0.988-0.157,1.352-0.47c0.363-0.315,0.549-0.723,0.549-1.22v-0.023c0-0.531-0.225-0.938-0.675-1.235
				c-0.445-0.294-1.035-0.44-1.765-0.44h-0.557l-0.197-0.583l2.742-3.092h-4.241v-0.882h5.545v0.723l-2.729,3.027
				c0.83,0.066,1.512,0.302,2.055,0.717c0.542,0.408,0.811,0.986,0.811,1.729v0.028c0,0.755-0.279,1.392-0.839,1.879
				C145.067,135.068,144.378,135.314,143.56,135.314z"/>
		</g>
		<g>
			<path fill="#E6E7E8" d="M117.324,202.938l0.372-2.197h-1.357v-0.855h1.506l0.46-2.633h-1.479v-0.855h1.613l0.376-2.149h0.867
				l-0.359,2.149h2.361l0.37-2.149h0.873l-0.358,2.149h1.34v0.855h-1.49l-0.459,2.633h1.464v0.855h-1.605l-0.381,2.197h-0.873
				l0.373-2.197h-2.36l-0.388,2.197H117.324z M118.727,199.885h2.36l0.446-2.633h-2.362L118.727,199.885z"/>
			<path fill="#E6E7E8" d="M126.696,202.938V195.2l-1.638,0.513l-0.234-0.797l2.121-0.729h0.721v8.751H126.696L126.696,202.938z"/>
			<path fill="#E6E7E8" d="M135.166,202.374c-0.619,0.458-1.398,0.688-2.333,0.688c-0.938,0-1.714-0.23-2.334-0.688
				c-0.62-0.46-0.935-1.05-0.935-1.768v-0.027c0-0.497,0.162-0.927,0.485-1.29c0.32-0.365,0.754-0.646,1.303-0.845
				c-0.995-0.456-1.489-1.124-1.489-1.999v-0.027c0-0.654,0.293-1.2,0.875-1.639c0.583-0.44,1.279-0.66,2.094-0.66
				c0.812,0,1.511,0.22,2.093,0.66c0.582,0.437,0.872,0.984,0.872,1.639v0.027c0,0.875-0.491,1.543-1.49,1.999
				c0.552,0.207,0.984,0.485,1.307,0.845c0.324,0.354,0.481,0.781,0.481,1.275v0.027
				C136.097,201.32,135.786,201.914,135.166,202.374z M131.174,201.737c0.408,0.312,0.962,0.472,1.657,0.472
				c0.693,0,1.25-0.159,1.652-0.472c0.416-0.318,0.62-0.702,0.62-1.158v-0.023c0-0.481-0.224-0.875-0.664-1.188
				c-0.435-0.309-0.976-0.467-1.613-0.467c-0.634,0-1.176,0.158-1.612,0.467c-0.44,0.31-0.66,0.707-0.66,1.188v0.023
				C130.558,201.035,130.766,201.419,131.174,201.737z M131.416,197.648c0.378,0.301,0.854,0.449,1.416,0.449
				c0.562,0,1.034-0.148,1.41-0.449c0.382-0.293,0.574-0.678,0.574-1.14v-0.027c0-0.431-0.191-0.787-0.574-1.072
				c-0.376-0.284-0.848-0.426-1.41-0.426c-0.569,0-1.047,0.146-1.424,0.426c-0.376,0.287-0.564,0.642-0.564,1.072v0.027
				C130.844,196.971,131.034,197.352,131.416,197.648z"/>
			<path fill="#E6E7E8" d="M138.965,202.938V195.2l-1.641,0.513l-0.236-0.797l2.124-0.729h0.721v8.751H138.965L138.965,202.938z"/>
			<path fill="#E6E7E8" d="M147.435,202.374c-0.618,0.458-1.395,0.688-2.338,0.688c-0.932,0-1.708-0.23-2.334-0.688
				c-0.618-0.46-0.928-1.05-0.928-1.768v-0.027c0-0.497,0.157-0.927,0.481-1.29c0.324-0.365,0.758-0.646,1.31-0.845
				c-0.995-0.456-1.493-1.124-1.493-1.999v-0.027c0-0.654,0.291-1.2,0.873-1.639c0.585-0.44,1.28-0.66,2.09-0.66
				c0.812,0,1.509,0.22,2.095,0.66c0.589,0.437,0.876,0.984,0.876,1.639v0.027c0,0.875-0.496,1.543-1.49,1.999
				c0.548,0.207,0.979,0.485,1.302,0.845c0.323,0.354,0.486,0.781,0.486,1.275v0.027
				C148.365,201.32,148.056,201.914,147.435,202.374z M143.442,201.737c0.409,0.312,0.965,0.472,1.653,0.472
				c0.699,0,1.25-0.159,1.661-0.472c0.407-0.318,0.614-0.702,0.614-1.158v-0.023c0-0.481-0.219-0.875-0.66-1.188
				c-0.438-0.312-0.975-0.467-1.615-0.467c-0.635,0-1.172,0.158-1.613,0.467c-0.432,0.31-0.656,0.707-0.656,1.188v0.023
				C142.827,201.035,143.033,201.419,143.442,201.737z M143.684,197.648c0.383,0.301,0.856,0.449,1.414,0.449
				c0.563,0,1.035-0.148,1.418-0.449c0.382-0.293,0.569-0.678,0.569-1.14v-0.027c0-0.431-0.187-0.787-0.569-1.072
				c-0.383-0.28-0.855-0.426-1.418-0.426c-0.569,0-1.042,0.146-1.419,0.426c-0.375,0.287-0.561,0.642-0.561,1.072v0.027
				C143.115,196.971,143.302,197.352,143.684,197.648z"/>
			<path fill="#E6E7E8" d="M151.233,202.938V195.2l-1.64,0.513l-0.236-0.797l2.122-0.729h0.723v8.751H151.233L151.233,202.938z"/>
			<path fill="#E6E7E8" d="M159.703,202.374c-0.623,0.458-1.401,0.688-2.336,0.688c-0.936,0-1.716-0.23-2.333-0.688
				c-0.621-0.46-0.935-1.05-0.935-1.768v-0.027c0-0.497,0.163-0.927,0.483-1.29c0.321-0.365,0.759-0.646,1.304-0.845
				c-0.994-0.456-1.489-1.124-1.489-1.999v-0.027c0-0.654,0.295-1.2,0.877-1.639c0.582-0.44,1.274-0.66,2.093-0.66
				c0.812,0,1.508,0.22,2.091,0.66c0.582,0.437,0.873,0.984,0.873,1.639v0.027c0,0.875-0.493,1.543-1.49,1.999
				c0.549,0.207,0.981,0.485,1.306,0.845c0.324,0.354,0.483,0.781,0.483,1.275v0.027
				C160.633,201.32,160.322,201.914,159.703,202.374z M155.711,201.737c0.411,0.312,0.96,0.472,1.656,0.472
				c0.693,0,1.249-0.159,1.654-0.472c0.414-0.318,0.617-0.702,0.617-1.158v-0.023c0-0.481-0.222-0.875-0.658-1.188
				c-0.437-0.309-0.979-0.467-1.614-0.467c-0.637,0-1.177,0.158-1.613,0.467c-0.443,0.31-0.662,0.707-0.662,1.188v0.023
				C155.095,201.035,155.302,201.419,155.711,201.737z M155.954,197.648c0.376,0.301,0.851,0.449,1.414,0.449
				c0.564,0,1.035-0.148,1.414-0.449c0.381-0.293,0.571-0.678,0.571-1.14v-0.027c0-0.431-0.19-0.787-0.571-1.072
				c-0.378-0.284-0.85-0.426-1.414-0.426c-0.569,0-1.045,0.146-1.425,0.426c-0.375,0.287-0.563,0.642-0.563,1.072v0.027
				C155.379,196.971,155.57,197.352,155.954,197.648z"/>
		</g>
		<g>
			<path fill="#E6E7E8" d="M120.429,60.702l0.371-2.199h-1.354v-0.856h1.503l0.463-2.632h-1.48v-0.858h1.613l0.375-2.148h0.867
				l-0.356,2.148h2.36l0.371-2.148h0.87l-0.357,2.148h1.338v0.858h-1.487l-0.462,2.632h1.463v0.856h-1.604l-0.381,2.199h-0.871
				l0.369-2.199h-2.358l-0.39,2.199H120.429z M121.831,57.648h2.36l0.447-2.633h-2.363L121.831,57.648z"/>
			<path fill="#E6E7E8" d="M132.941,60.702v-2.063h-4.581l-0.247-0.707l4.918-5.983h0.858v5.87h1.354v0.819h-1.354v2.063H132.941
				L132.941,60.702z M129.292,57.819h3.649v-4.482L129.292,57.819z"/>
			<path fill="#E6E7E8" d="M137.151,60.702l3.927-7.8h-4.784v-0.891h5.899v0.732l-3.95,7.959H137.151L137.151,60.702z"/>
			<path fill="#E6E7E8" d="M147.158,60.702v-2.063h-4.58l-0.249-0.707l4.917-5.983h0.861v5.87h1.351v0.819h-1.351v2.063H147.158
				L147.158,60.702z M143.508,57.819h3.652v-4.482L143.508,57.819z"/>
			<path fill="#E6E7E8" d="M151.369,60.702l3.925-7.8h-4.782v-0.891h5.897v0.732l-3.946,7.959H151.369L151.369,60.702z"/>
			<path fill="#E6E7E8" d="M161.375,60.702v-2.063h-4.58l-0.249-0.707l4.916-5.983h0.86v5.87h1.352v0.819h-1.352v2.063H161.375
				L161.375,60.702z M157.726,57.819h3.653v-4.482L157.726,57.819z"/>
			<path fill="#E6E7E8" d="M165.587,60.702l3.925-7.8h-4.784v-0.891h5.899v0.732l-3.948,7.959H165.587L165.587,60.702z"/>
		</g>
		<g display="none">
			<path display="inline" fill="#E6E7E8" d="M-37.106,218.235l0.371-2.198h-1.352v-0.857h1.503l0.457-2.633h-1.476v-0.857h1.616
				l0.369-2.146h0.87l-0.36,2.146h2.361l0.376-2.146h0.867l-0.355,2.146h1.338v0.857h-1.492l-0.461,2.633h1.467v0.857h-1.6
				l-0.388,2.198h-0.867l0.369-2.198h-2.36l-0.38,2.198H-37.106z M-35.703,215.182h2.359l0.449-2.635h-2.36L-35.703,215.182z"/>
			<path display="inline" fill="#E6E7E8" d="M-23.71,217.671c-0.619,0.457-1.397,0.688-2.335,0.688
				c-0.937,0-1.713-0.231-2.337-0.688c-0.615-0.46-0.931-1.052-0.931-1.77v-0.027c0-0.495,0.162-0.927,0.485-1.292
				c0.324-0.364,0.755-0.646,1.307-0.845c-0.998-0.455-1.489-1.12-1.489-1.998v-0.025c0-0.658,0.291-1.2,0.874-1.643
				c0.581-0.438,1.279-0.658,2.093-0.658c0.811,0,1.51,0.22,2.092,0.658c0.586,0.439,0.874,0.984,0.874,1.643v0.025
				c0,0.878-0.493,1.543-1.488,1.998c0.547,0.208,0.98,0.487,1.305,0.845c0.321,0.354,0.484,0.785,0.484,1.278v0.027
				C-22.777,216.617-23.09,217.211-23.71,217.671z M-27.7,217.03c0.406,0.316,0.961,0.474,1.655,0.474
				c0.694,0,1.25-0.157,1.655-0.474c0.412-0.314,0.616-0.698,0.616-1.154v-0.022c0-0.482-0.222-0.878-0.664-1.19
				c-0.434-0.308-0.977-0.465-1.61-0.465c-0.636,0-1.179,0.157-1.612,0.465c-0.44,0.312-0.664,0.708-0.664,1.19v0.022
				C-28.319,216.332-28.113,216.716-27.7,217.03z M-27.458,212.946c0.38,0.296,0.849,0.443,1.413,0.443
				c0.561,0,1.037-0.147,1.413-0.443c0.381-0.298,0.573-0.679,0.573-1.142v-0.026c0-0.431-0.191-0.789-0.573-1.073
				c-0.376-0.284-0.852-0.427-1.413-0.427c-0.569,0-1.045,0.144-1.421,0.427c-0.376,0.284-0.564,0.643-0.564,1.073v0.026
				C-28.031,212.268-27.839,212.648-27.458,212.946z"/>
			<path display="inline" fill="#E6E7E8" d="M-16.933,218.384c-1.24,0-2.276-0.43-3.11-1.292c-0.829-0.861-1.246-1.92-1.246-3.177
				v-0.027c0-1.252,0.42-2.31,1.253-3.187c0.835-0.871,1.885-1.31,3.143-1.31c0.738,0,1.366,0.112,1.889,0.35
				c0.521,0.233,1.021,0.572,1.502,1.03l-0.672,0.721c-0.837-0.796-1.746-1.193-2.732-1.193c-0.959,0-1.761,0.346-2.404,1.03
				c-0.643,0.686-0.96,1.526-0.96,2.53v0.028c0,1.011,0.325,1.858,0.967,2.553c0.649,0.69,1.448,1.037,2.397,1.037
				c0.56,0,1.059-0.104,1.488-0.311c0.431-0.206,0.872-0.521,1.317-0.942l0.649,0.634c-0.495,0.504-1.014,0.886-1.552,1.141
				C-15.544,218.257-16.187,218.384-16.933,218.384z"/>
			<path display="inline" fill="#E6E7E8" d="M-6.723,217.671c-0.62,0.457-1.399,0.688-2.334,0.688c-0.938,0-1.714-0.231-2.334-0.688
				c-0.622-0.46-0.935-1.052-0.935-1.77v-0.027c0-0.495,0.163-0.927,0.484-1.292c0.321-0.364,0.758-0.646,1.303-0.845
				c-0.994-0.455-1.488-1.12-1.488-1.998v-0.025c0-0.658,0.293-1.2,0.876-1.643c0.582-0.438,1.279-0.658,2.091-0.658
				c0.814,0,1.513,0.22,2.096,0.658c0.581,0.439,0.873,0.984,0.873,1.643v0.025c0,0.878-0.494,1.543-1.488,1.998
				c0.548,0.208,0.978,0.487,1.304,0.845c0.324,0.358,0.483,0.785,0.483,1.278v0.027C-5.792,216.617-6.105,217.211-6.723,217.671z
				 M-10.715,217.03c0.41,0.316,0.958,0.474,1.655,0.474c0.695,0,1.252-0.157,1.655-0.474c0.412-0.314,0.616-0.698,0.616-1.154
				v-0.022c0-0.482-0.223-0.878-0.661-1.19c-0.437-0.308-0.976-0.465-1.613-0.465c-0.636,0-1.176,0.157-1.612,0.465
				c-0.443,0.312-0.661,0.708-0.661,1.19v0.022C-11.331,216.332-11.125,216.716-10.715,217.03z M-10.473,212.946
				c0.379,0.296,0.853,0.443,1.416,0.443c0.563,0,1.034-0.147,1.413-0.443c0.381-0.298,0.572-0.679,0.572-1.142v-0.026
				c0-0.431-0.19-0.789-0.572-1.073c-0.379-0.284-0.85-0.427-1.413-0.427c-0.569,0-1.046,0.144-1.424,0.427
				c-0.377,0.284-0.562,0.643-0.562,1.073v0.026C-11.046,212.268-10.854,212.648-10.473,212.946z"/>
			<path display="inline" fill="#E6E7E8" d="M0.055,218.384c-1.243,0-2.279-0.43-3.109-1.292c-0.832-0.861-1.25-1.92-1.25-3.177
				v-0.027c0-1.252,0.418-2.31,1.254-3.187c0.837-0.875,1.887-1.31,3.141-1.31c0.74,0,1.367,0.112,1.888,0.35
				c0.522,0.233,1.021,0.572,1.5,1.03l-0.667,0.721c-0.836-0.796-1.746-1.193-2.735-1.193c-0.957,0-1.761,0.346-2.403,1.03
				c-0.64,0.686-0.961,1.526-0.961,2.53v0.028c0,1.011,0.324,1.858,0.97,2.553c0.646,0.69,1.443,1.037,2.394,1.037
				c0.562,0,1.062-0.104,1.493-0.311c0.428-0.206,0.867-0.521,1.315-0.942l0.645,0.634c-0.494,0.504-1.015,0.886-1.552,1.141
				C1.444,218.257,0.801,218.384,0.055,218.384z"/>
			<path display="inline" fill="#E6E7E8" d="M10.265,217.671c-0.625,0.457-1.4,0.688-2.337,0.688c-0.937,0-1.712-0.231-2.333-0.688
				c-0.622-0.46-0.935-1.052-0.935-1.77v-0.027c0-0.495,0.163-0.927,0.485-1.292c0.321-0.364,0.759-0.646,1.303-0.845
				c-0.994-0.455-1.491-1.12-1.491-1.998v-0.025c0-0.658,0.292-1.2,0.876-1.643c0.585-0.438,1.279-0.658,2.092-0.658
				c0.812,0,1.509,0.22,2.094,0.658c0.581,0.439,0.873,0.984,0.873,1.643v0.025c0,0.878-0.497,1.543-1.492,1.998
				c0.55,0.208,0.983,0.487,1.304,0.845c0.325,0.354,0.485,0.785,0.485,1.278v0.027C11.192,216.617,10.883,217.211,10.265,217.671z
				 M6.27,217.03c0.413,0.316,0.963,0.474,1.656,0.474c0.694,0,1.25-0.157,1.658-0.474c0.41-0.314,0.614-0.698,0.614-1.154v-0.022
				c0-0.482-0.222-0.878-0.657-1.19c-0.439-0.308-0.977-0.465-1.616-0.465c-0.637,0-1.173,0.157-1.614,0.465
				c-0.439,0.312-0.657,0.708-0.657,1.19v0.022C5.657,216.332,5.864,216.716,6.27,217.03z M6.512,212.946
				c0.382,0.296,0.855,0.443,1.416,0.443c0.564,0,1.034-0.147,1.416-0.443c0.382-0.298,0.571-0.679,0.571-1.142v-0.026
				c0-0.431-0.189-0.789-0.571-1.073c-0.381-0.284-0.852-0.427-1.416-0.427c-0.569,0-1.045,0.144-1.421,0.427
				c-0.376,0.284-0.564,0.643-0.564,1.073v0.026C5.942,212.268,6.13,212.648,6.512,212.946z"/>
			<path display="inline" fill="#E6E7E8" d="M17.043,218.384c-1.244,0-2.279-0.43-3.11-1.292c-0.834-0.861-1.252-1.92-1.252-3.177
				v-0.027c0-1.252,0.421-2.31,1.258-3.187c0.837-0.875,1.883-1.31,3.138-1.31c0.74,0,1.367,0.112,1.889,0.35
				c0.521,0.233,1.021,0.572,1.502,1.03l-0.673,0.721c-0.833-0.796-1.746-1.193-2.73-1.193c-0.961,0-1.762,0.346-2.401,1.03
				c-0.643,0.686-0.964,1.526-0.964,2.53v0.028c0,1.011,0.321,1.858,0.97,2.553c0.643,0.69,1.446,1.037,2.396,1.037
				c0.563,0,1.064-0.104,1.491-0.311c0.431-0.206,0.87-0.521,1.319-0.942l0.643,0.634c-0.495,0.504-1.013,0.886-1.551,1.141
				C18.429,218.257,17.789,218.384,17.043,218.384z"/>
		</g>
		<g>
			<path fill="#E6E7E8" d="M117.324-13.574l0.372-2.198h-1.357v-0.856h1.506l0.46-2.634h-1.479v-0.856h1.613l0.376-2.147h0.867
				l-0.359,2.147h2.361l0.37-2.147h0.873l-0.358,2.147h1.34v0.856h-1.49l-0.459,2.634h1.464v0.856h-1.605l-0.381,2.198h-0.873
				l0.373-2.198h-2.36l-0.388,2.198H117.324z M118.727-16.627h2.36l0.446-2.634h-2.362L118.727-16.627z"/>
			<path fill="#E6E7E8" d="M128.237-13.425c-1.151,0-2.184-0.458-3.105-1.377l0.647-0.708c0.821,0.795,1.645,1.191,2.47,1.191
				c0.614,0,1.118-0.18,1.51-0.545c0.396-0.364,0.59-0.822,0.59-1.378v-0.026c0-0.54-0.201-0.976-0.601-1.317
				c-0.401-0.339-0.924-0.509-1.558-0.509c-0.6,0-1.208,0.165-1.828,0.497l-0.662-0.436l0.248-4.234h5.005v0.907h-4.146
				l-0.186,2.783c0.589-0.257,1.16-0.385,1.713-0.385c0.873,0,1.586,0.239,2.158,0.72c0.561,0.48,0.848,1.126,0.848,1.938v0.024
				c0,0.843-0.293,1.532-0.869,2.061C129.892-13.689,129.147-13.425,128.237-13.425z"/>
			<path fill="#E6E7E8" d="M133.403-13.574l3.921-7.797h-4.777v-0.892h5.896v0.731l-3.951,7.959L133.403-13.574L133.403-13.574z"/>
			<path fill="#E6E7E8" d="M142.553-13.425c-1.148,0-2.184-0.458-3.104-1.377l0.647-0.708c0.815,0.795,1.643,1.191,2.471,1.191
				c0.613,0,1.115-0.18,1.508-0.545c0.394-0.364,0.594-0.822,0.594-1.378v-0.026c0-0.54-0.205-0.976-0.606-1.317
				c-0.403-0.339-0.922-0.509-1.561-0.509c-0.595,0-1.199,0.165-1.825,0.497l-0.655-0.436l0.248-4.234h5.002v0.907h-4.146
				l-0.188,2.783c0.589-0.257,1.163-0.385,1.712-0.385c0.872,0,1.59,0.239,2.156,0.72c0.567,0.48,0.853,1.126,0.853,1.938v0.024
				c0,0.843-0.291,1.532-0.875,2.061C144.209-13.689,143.466-13.425,142.553-13.425z"/>
			<path fill="#E6E7E8" d="M147.72-13.574l3.923-7.797h-4.785v-0.892h5.901v0.731l-3.946,7.959L147.72-13.574L147.72-13.574z"/>
			<path fill="#E6E7E8" d="M156.87-13.425c-1.149,0-2.187-0.458-3.105-1.377l0.646-0.708c0.82,0.795,1.643,1.191,2.476,1.191
				c0.613,0,1.115-0.18,1.511-0.545c0.389-0.364,0.586-0.822,0.586-1.378v-0.026c0-0.54-0.199-0.976-0.6-1.317
				c-0.408-0.339-0.924-0.509-1.564-0.509c-0.598,0-1.199,0.165-1.824,0.497l-0.658-0.436l0.247-4.234h5.001v0.907h-4.146
				l-0.183,2.783c0.587-0.257,1.158-0.385,1.713-0.385c0.87,0,1.585,0.239,2.155,0.72c0.572,0.48,0.851,1.126,0.851,1.938v0.024
				c0,0.843-0.29,1.532-0.867,2.061C158.527-13.689,157.781-13.425,156.87-13.425z"/>
			<path fill="#E6E7E8" d="M162.037-13.574l3.923-7.797h-4.782v-0.892h5.897v0.731l-3.95,7.959L162.037-13.574L162.037-13.574z"/>
		</g>
		<g display="none">
			<path display="inline" fill="#414042" d="M-37.106,43.544l0.371-2.198h-1.352v-0.858h1.503l0.457-2.631h-1.476v-0.859h1.616
				l0.369-2.147h0.87l-0.36,2.147h2.361l0.376-2.147h0.867l-0.355,2.147h1.338v0.859h-1.492l-0.461,2.631h1.467v0.858h-1.6
				l-0.388,2.198h-0.867l0.369-2.198h-2.36l-0.38,2.198H-37.106z M-35.703,40.488h2.359l0.449-2.631h-2.36L-35.703,40.488z"/>
			<path display="inline" fill="#414042" d="M-28.725,43.544v-8.692h6.281v0.891h-5.302v2.969h4.748v0.895h-4.748v3.04h5.363v0.895
				L-28.725,43.544L-28.725,43.544z"/>
			<path display="inline" fill="#414042" d="M-17.503,43.689c-0.937,0-1.7-0.292-2.286-0.88c-0.369-0.372-0.649-0.814-0.823-1.326
				c-0.177-0.513-0.271-1.193-0.271-2.038v-0.027c0-1.355,0.332-2.482,0.98-3.377c0.649-0.894,1.524-1.34,2.634-1.34
				c0.903,0,1.761,0.333,2.57,0.995l-0.569,0.755c-0.679-0.568-1.365-0.855-2.046-0.855c-0.779,0-1.401,0.355-1.861,1.067
				c-0.467,0.711-0.691,1.634-0.686,2.768c0.61-0.885,1.432-1.328,2.476-1.328c0.833,0,1.544,0.246,2.127,0.74
				c0.581,0.493,0.873,1.135,0.873,1.93v0.026c0,0.834-0.297,1.525-0.891,2.073C-15.875,43.418-16.618,43.689-17.503,43.689z
				 M-17.49,42.822c0.63,0,1.137-0.191,1.519-0.571c0.387-0.382,0.579-0.852,0.579-1.415v-0.026c0-0.538-0.197-0.984-0.597-1.336
				c-0.397-0.351-0.906-0.527-1.525-0.527c-0.627,0-1.145,0.191-1.56,0.571c-0.41,0.38-0.613,0.824-0.613,1.327v0.027
				c0,0.554,0.207,1.017,0.616,1.392C-18.651,42.638-18.127,42.822-17.49,42.822z"/>
			<path display="inline" fill="#414042" d="M-12.373,43.544v-8.692h6.28v0.891h-5.299v2.969h4.745v0.895h-4.745v3.04h5.362v0.895
				L-12.373,43.544L-12.373,43.544z"/>
			<path display="inline" fill="#414042" d="M-1.149,43.689c-0.936,0-1.699-0.292-2.284-0.88c-0.376-0.372-0.649-0.814-0.826-1.326
				c-0.178-0.513-0.269-1.193-0.269-2.038v-0.027c0-1.355,0.325-2.482,0.974-3.377c0.647-0.894,1.53-1.34,2.639-1.34
				c0.902,0,1.759,0.333,2.568,0.995l-0.57,0.755c-0.679-0.568-1.361-0.855-2.049-0.855c-0.776,0-1.395,0.355-1.858,1.067
				c-0.465,0.711-0.691,1.634-0.685,2.768c0.606-0.885,1.43-1.328,2.473-1.328c0.837,0,1.546,0.246,2.128,0.74
				c0.585,0.491,0.876,1.135,0.876,1.93v0.026c0,0.834-0.298,1.525-0.895,2.073C0.479,43.418-0.263,43.689-1.149,43.689z
				 M-1.136,42.822c0.625,0,1.134-0.191,1.519-0.571c0.385-0.382,0.579-0.852,0.579-1.415v-0.026c0-0.538-0.2-0.984-0.601-1.336
				c-0.394-0.351-0.903-0.527-1.523-0.527c-0.625,0-1.146,0.191-1.559,0.571c-0.409,0.38-0.613,0.824-0.613,1.327v0.027
				c0,0.554,0.206,1.017,0.62,1.392C-2.298,42.638-1.772,42.822-1.136,42.822z"/>
			<path display="inline" fill="#414042" d="M3.978,43.544v-8.692h6.285v0.891H4.96v2.969h4.744v0.895H4.96v3.04h5.366v0.895
				L3.978,43.544L3.978,43.544z"/>
			<path display="inline" fill="#414042" d="M15.207,43.689c-0.938,0-1.697-0.292-2.286-0.88c-0.373-0.372-0.649-0.814-0.825-1.326
				c-0.18-0.513-0.267-1.193-0.267-2.038v-0.027c0-1.355,0.322-2.482,0.973-3.377c0.648-0.894,1.529-1.34,2.641-1.34
				c0.899,0,1.758,0.333,2.566,0.995l-0.574,0.755c-0.677-0.568-1.357-0.855-2.044-0.855c-0.779,0-1.396,0.355-1.862,1.067
				c-0.463,0.711-0.691,1.634-0.682,2.768c0.604-0.885,1.429-1.328,2.472-1.328c0.836,0,1.546,0.246,2.131,0.74
				c0.585,0.493,0.874,1.135,0.874,1.93v0.026c0,0.834-0.295,1.525-0.897,2.073C16.831,43.418,16.091,43.689,15.207,43.689z
				 M15.219,42.822c0.624,0,1.13-0.191,1.519-0.571c0.381-0.382,0.576-0.852,0.576-1.415v-0.026c0-0.538-0.2-0.984-0.598-1.336
				c-0.397-0.35-0.907-0.527-1.525-0.527c-0.627,0-1.151,0.191-1.558,0.571c-0.412,0.38-0.616,0.824-0.616,1.327v0.027
				c0,0.554,0.21,1.017,0.622,1.392C14.054,42.638,14.582,42.822,15.219,42.822z"/>
		</g>
	</g>
</g>
</svg>
