<?xml version="1.0" encoding="utf-8"?>
<!-- Generator: Adobe Illustrator 16.0.4, SVG Export Plug-In . SVG Version: 6.00 Build 0)  -->
<!DOCTYPE svg PUBLIC "-//W3C//DTD SVG 1.1//EN" "http://www.w3.org/Graphics/SVG/1.1/DTD/svg11.dtd">
<svg version="1.1" id="Layer_1" xmlns="http://www.w3.org/2000/svg" xmlns:xlink="http://www.w3.org/1999/xlink" x="0px" y="0px"
	 width="500px" height="260px" viewBox="0 0 500 260" enable-background="new 0 0 500 260" xml:space="preserve">
<g id="COLOR_SCHEME">
	<g>
		<path d="M56.615,29.406c-1.601,0-2.937-0.555-4.009-1.664C51.537,26.633,51,25.268,51,23.646v-0.031
			c0-1.611,0.539-2.979,1.615-4.104c1.077-1.125,2.428-1.688,4.049-1.688c0.948,0,1.76,0.149,2.432,0.447
			c0.672,0.299,1.316,0.742,1.938,1.328l-0.865,0.928c-1.076-1.023-2.252-1.535-3.521-1.535c-1.237,0-2.27,0.442-3.096,1.327
			c-0.828,0.886-1.24,1.974-1.24,3.265v0.032c0,1.301,0.416,2.397,1.248,3.288c0.832,0.891,1.859,1.336,3.088,1.336
			c0.726,0,1.365-0.134,1.92-0.4c0.556-0.266,1.121-0.672,1.695-1.216l0.832,0.815c-0.641,0.651-1.307,1.142-2,1.473
			C58.402,29.24,57.576,29.406,56.615,29.406z"/>
		<path d="M73.115,27.702c-1.078,1.136-2.449,1.704-4.113,1.704s-3.027-0.562-4.094-1.688c-1.068-1.125-1.603-2.482-1.603-4.072
			v-0.031c0-1.59,0.539-2.952,1.617-4.089c1.076-1.136,2.447-1.703,4.111-1.703c1.664,0,3.028,0.562,4.096,1.688
			c1.065,1.126,1.6,2.482,1.6,4.072v0.032C74.73,25.203,74.193,26.565,73.115,27.702z M65.875,26.894
			c0.838,0.896,1.891,1.345,3.16,1.345c1.268,0,2.315-0.443,3.143-1.328c0.828-0.886,1.242-1.974,1.242-3.265v-0.031
			c0-1.291-0.42-2.385-1.258-3.28c-0.836-0.896-1.892-1.344-3.16-1.344c-1.27,0-2.316,0.442-3.146,1.327
			c-0.823,0.886-1.237,1.974-1.237,3.265v0.032C64.619,24.904,65.037,25.998,65.875,26.894z"/>
		<path d="M78.234,29.214v-11.2h1.265v10.032h6.305v1.168H78.234z"/>
		<path d="M97.572,27.702c-1.077,1.136-2.446,1.704-4.11,1.704s-3.029-0.562-4.096-1.688c-1.066-1.125-1.603-2.482-1.603-4.072
			v-0.031c0-1.59,0.539-2.952,1.617-4.089c1.078-1.136,2.449-1.703,4.113-1.703s3.026,0.562,4.094,1.688
			c1.065,1.126,1.602,2.482,1.602,4.072v0.032C99.189,25.203,98.65,26.565,97.572,27.702z M90.334,26.894
			c0.836,0.896,1.891,1.345,3.16,1.345c1.268,0,2.315-0.443,3.143-1.328c0.826-0.886,1.24-1.974,1.24-3.265v-0.031
			c0-1.291-0.418-2.385-1.256-3.28c-0.838-0.896-1.892-1.344-3.16-1.344c-1.27,0-2.318,0.442-3.146,1.327
			c-0.825,0.886-1.239,1.974-1.239,3.265v0.032C89.076,24.904,89.494,25.998,90.334,26.894z"/>
		<path d="M102.693,29.214v-11.2h4.816c1.375,0,2.436,0.374,3.184,1.12c0.574,0.576,0.863,1.312,0.863,2.208v0.032
			c0,0.896-0.277,1.621-0.832,2.176c-0.555,0.555-1.291,0.918-2.207,1.088l3.438,4.576h-1.552l-3.248-4.352h-3.2v4.352H102.693z
			 M103.955,23.726h3.44c0.854,0,1.547-0.208,2.08-0.624c0.533-0.416,0.799-0.976,0.799-1.68V21.39c0-0.693-0.254-1.234-0.758-1.624
			c-0.508-0.389-1.209-0.584-2.104-0.584h-3.457V23.726z"/>
		<path d="M123.701,29.374c-1.72,0-3.242-0.598-4.578-1.792l0.785-0.928c0.598,0.544,1.196,0.943,1.801,1.199
			c0.602,0.257,1.281,0.385,2.039,0.385c0.746,0,1.35-0.179,1.809-0.536c0.457-0.357,0.688-0.813,0.688-1.368v-0.032
			c0-0.544-0.203-0.976-0.607-1.296c-0.406-0.32-1.174-0.598-2.305-0.832c-1.322-0.288-2.279-0.675-2.873-1.16
			c-0.59-0.485-0.888-1.176-0.888-2.072V20.91c0-0.886,0.349-1.616,1.039-2.192c0.695-0.576,1.574-0.864,2.642-0.864
			c1.483,0,2.795,0.459,3.938,1.376l-0.737,0.977c-0.992-0.811-2.068-1.216-3.23-1.216c-0.715,0-1.291,0.173-1.729,0.52
			c-0.438,0.347-0.656,0.776-0.656,1.288v0.032c0,0.555,0.211,0.992,0.633,1.312c0.42,0.32,1.225,0.608,2.408,0.864
			c1.27,0.277,2.195,0.664,2.774,1.16c0.58,0.496,0.873,1.165,0.873,2.008v0.032c0,0.949-0.358,1.715-1.073,2.296
			C125.738,29.084,124.82,29.374,123.701,29.374z"/>
		<path d="M135.889,29.406c-1.602,0-2.938-0.555-4.008-1.664c-1.074-1.109-1.609-2.475-1.609-4.097v-0.031
			c0-1.611,0.539-2.979,1.617-4.104c1.076-1.125,2.426-1.688,4.047-1.688c0.949,0,1.76,0.149,2.433,0.447
			c0.674,0.299,1.317,0.742,1.936,1.328l-0.863,0.928c-1.078-1.023-2.25-1.535-3.52-1.535c-1.238,0-2.271,0.442-3.099,1.327
			c-0.823,0.886-1.237,1.974-1.237,3.265v0.032c0,1.301,0.416,2.396,1.248,3.288s1.86,1.336,3.088,1.336
			c0.725,0,1.365-0.134,1.92-0.4c0.555-0.266,1.119-0.672,1.695-1.216l0.832,0.815c-0.64,0.651-1.308,1.142-2,1.473
			C137.674,29.24,136.848,29.406,135.889,29.406z"/>
		<path d="M143.379,29.214v-11.2h1.264v4.977h6.463v-4.977h1.267v11.2h-1.267v-5.04h-6.463v5.04H143.379z"/>
		<path d="M156.43,29.214v-11.2h8.096v1.152h-6.832v3.824h6.111v1.151h-6.111v3.92h6.912v1.152L156.43,29.214L156.43,29.214z"/>
		<path d="M167.789,29.214v-11.2h1.278l4.08,6.112l4.08-6.112h1.279v11.2h-1.264v-9.072l-4.08,6H173.1l-4.082-5.983v9.056
			L167.789,29.214L167.789,29.214z"/>
		<path d="M182.574,29.214v-11.2h8.096v1.152h-6.83v3.824h6.111v1.151h-6.111v3.92h6.912v1.152L182.574,29.214L182.574,29.214z"/>
	</g>
	<g id="Color_Swatches">
		<rect x="151" y="128.813" fill="#90C73E" width="100" height="36.8"/>
		<path fill="#181818" d="M351,239.214h95.979c2.224,0,4.021-1.776,4.021-3.969v-42.031H351V239.214z"/>
		<rect x="151" y="202.414" fill="#F15623" width="100" height="36.8"/>
		<rect x="351" y="147.214" fill="#333333" width="100" height="46"/>
		<path fill="#E48325" d="M51,176.789v58.456c0,2.192,1.799,3.969,4.018,3.969H151v-62.425H51L51,176.789z"/>
		<path fill="#F68A1F" d="M151,55.214H55.018c-2.219,0-4.018,1.777-4.018,3.969v57.606h100V55.214z"/>
		<path fill="#575757" d="M351,55.214h95.979c2.224,0,4.021,1.777,4.021,3.969v42.031H351V55.214z"/>
		<rect x="151" y="165.613" fill="#FED105" width="100" height="36.801"/>
		<rect x="151" y="55.214" fill="#428BCA" width="100" height="36.8"/>
		<rect x="51" y="116.789" fill="#E47625" width="100" height="60"/>
		<rect x="251" y="202.414" fill="#8C8C8C" width="100" height="36.8"/>
		<rect x="351" y="101.214" fill="#484748" width="100" height="46"/>
		<rect x="251" y="92.014" fill="#E6E6E6" width="100" height="36.8"/>
		<rect x="151" y="92.014" fill="#2A6497" width="100" height="36.8"/>
		<rect x="251" y="165.613" fill="#AEADAE" width="100" height="36.801"/>
		<rect x="251" y="128.814" fill="#CCCCCC" width="100" height="36.799"/>
		<rect x="251" y="55.214" fill="#EEEEEE" width="100" height="36.8"/>
	</g>
	<g id="Labels">
		<g>
			<path fill="#414042" d="M265.492,68.047l0.238-1.416h-0.871v-0.552h0.969l0.295-1.696h-0.951v-0.552h1.041l0.238-1.384h0.561
				l-0.231,1.384h1.521l0.242-1.384h0.559l-0.229,1.384h0.861v0.552h-0.961l-0.297,1.696h0.944v0.552h-1.03l-0.25,1.416h-0.56
				l0.237-1.416H266.3l-0.245,1.416H265.492z M266.396,66.079h1.521l0.289-1.696h-1.521L266.396,66.079z"/>
			<path fill="#414042" d="M270.893,68.047v-5.6h4.047v0.575h-3.416v1.912h3.06v0.576h-3.06v1.96h3.455v0.576L270.893,68.047
				L270.893,68.047z"/>
			<path fill="#414042" d="M276.252,68.047v-5.6h4.047v0.575h-3.414v1.912h3.055v0.576h-3.055v1.96h3.455v0.576L276.252,68.047
				L276.252,68.047z"/>
			<path fill="#414042" d="M281.611,68.047v-5.6h4.05v0.575h-3.416v1.912h3.057v0.576h-3.057v1.96h3.457v0.576L281.611,68.047
				L281.611,68.047z"/>
		</g>
		<g>
			<path fill="#414042" d="M265.492,177.947l0.238-1.293h-0.871v-0.504h0.969l0.295-1.549h-0.951v-0.504h1.041l0.238-1.267h0.561
				l-0.231,1.267h1.521l0.242-1.267h0.559l-0.229,1.267h0.861v0.504h-0.961l-0.297,1.549h0.944v0.504h-1.03l-0.25,1.293h-0.56
				l0.237-1.293H266.3l-0.245,1.293H265.492z M266.396,176.15h1.521l0.289-1.549h-1.521L266.396,176.15z"/>
			<path fill="#414042" d="M270.412,177.947l2.551-5.149h0.594l2.551,5.149h-0.68l-0.656-1.352h-3.047l-0.664,1.352H270.412z
				 M271.971,176.077h2.553l-1.271-2.606L271.971,176.077z"/>
			<path fill="#414042" d="M277.213,177.947v-5.112h1.941c0.869,0,1.582,0.242,2.141,0.728c0.559,0.483,0.836,1.09,0.836,1.813
				v0.015c0,0.73-0.277,1.34-0.836,1.826c-0.559,0.487-1.271,0.73-2.141,0.73H277.213z M277.844,177.414h1.312
				c0.693,0,1.253-0.189,1.681-0.568c0.429-0.381,0.64-0.859,0.64-1.438v-0.018c0-0.578-0.211-1.062-0.64-1.445
				c-0.428-0.385-0.985-0.574-1.681-0.574h-1.312V177.414z"/>
			<path fill="#414042" d="M282.619,177.947l2.553-5.149h0.592l2.551,5.149h-0.68l-0.656-1.352h-3.047l-0.664,1.352H282.619z
				 M284.18,176.077h2.553l-1.271-2.606L284.18,176.077z"/>
			<path fill="#414042" d="M289.42,177.947v-5.112h1.945c0.865,0,1.58,0.242,2.139,0.728c0.557,0.484,0.836,1.09,0.836,1.813v0.015
				c0,0.73-0.279,1.34-0.836,1.826c-0.559,0.487-1.271,0.73-2.139,0.73H289.42z M290.053,177.414h1.312
				c0.689,0,1.252-0.189,1.68-0.568c0.426-0.381,0.639-0.859,0.639-1.438v-0.018c0-0.578-0.213-1.062-0.639-1.445
				c-0.428-0.385-0.988-0.574-1.68-0.574h-1.312V177.414z"/>
			<path fill="#414042" d="M294.826,177.947l2.555-5.149h0.59l2.553,5.149h-0.68l-0.656-1.352h-3.049l-0.664,1.352H294.826z
				 M296.389,176.077h2.551l-1.271-2.606L296.389,176.077z"/>
			<path fill="#414042" d="M301.627,177.947v-5.112h1.943c0.869,0,1.582,0.242,2.143,0.728c0.557,0.483,0.836,1.09,0.836,1.813
				v0.015c0,0.73-0.279,1.34-0.836,1.826c-0.561,0.487-1.271,0.73-2.143,0.73H301.627z M302.26,177.414h1.312
				c0.693,0,1.255-0.189,1.681-0.568c0.427-0.381,0.642-0.859,0.642-1.438v-0.018c0-0.578-0.215-1.062-0.642-1.445
				c-0.426-0.385-0.985-0.574-1.681-0.574h-1.312V177.414z"/>
		</g>
		<g>
			<path fill="#FFFFFF" d="M165.826,217.402l0.239-1.416h-0.871v-0.553h0.968l0.295-1.695h-0.951v-0.553h1.041l0.238-1.386h0.561
				l-0.232,1.386h1.521l0.242-1.386h0.559l-0.229,1.386h0.862v0.553h-0.961l-0.297,1.695h0.945v0.553h-1.031l-0.25,1.416h-0.559
				l0.24-1.416h-1.521l-0.246,1.416H165.826z M166.73,215.436h1.521l0.289-1.697h-1.521L166.73,215.436z"/>
			<path fill="#FFFFFF" d="M171.227,217.402V211.8h4.023v0.584h-3.394v2h3.033v0.574h-3.033v2.438h-0.63L171.227,217.402
				L171.227,217.402z"/>
			<path fill="#FFFFFF" d="M176.473,217.402V211.8h4.025v0.584h-3.394v2h3.031v0.574h-3.031v2.438h-0.632L176.473,217.402
				L176.473,217.402z"/>
			<path fill="#FFFFFF" d="M183.354,217.498c-0.74,0-1.408-0.296-2-0.889l0.416-0.455c0.527,0.512,1.06,0.768,1.592,0.768
				c0.396,0,0.72-0.117,0.974-0.352c0.252-0.234,0.381-0.53,0.381-0.889v-0.02c0-0.35-0.131-0.629-0.389-0.852
				c-0.261-0.219-0.595-0.328-1.007-0.328c-0.383,0-0.772,0.107-1.176,0.32l-0.422-0.279l0.16-2.729h3.223v0.584h-2.672
				l-0.121,1.793c0.379-0.166,0.748-0.248,1.105-0.248c0.559,0,1.022,0.153,1.387,0.463c0.367,0.312,0.549,0.729,0.549,1.248v0.018
				c0,0.545-0.186,0.986-0.561,1.326C184.42,217.328,183.941,217.498,183.354,217.498z"/>
			<path fill="#FFFFFF" d="M188.273,217.498c-0.879,0-1.573-0.333-2.086-1l0.455-0.407c0.453,0.556,1,0.831,1.639,0.831
				c0.349,0,0.638-0.102,0.873-0.304c0.234-0.202,0.353-0.464,0.353-0.784v-0.016c0-0.342-0.146-0.606-0.432-0.797
				c-0.289-0.188-0.669-0.283-1.138-0.283h-0.358l-0.129-0.377l1.768-1.991h-2.734v-0.567h3.576v0.465l-1.762,1.951
				c0.535,0.043,0.975,0.195,1.326,0.461c0.348,0.264,0.522,0.635,0.522,1.114v0.017c0,0.49-0.18,0.896-0.539,1.213
				C189.246,217.34,188.801,217.498,188.273,217.498z"/>
			<path fill="#FFFFFF" d="M195.26,216.654c-0.438,0.562-1.01,0.844-1.713,0.844c-0.705,0-1.273-0.277-1.709-0.836
				c-0.435-0.557-0.652-1.238-0.652-2.044v-0.017c0-0.809,0.222-1.488,0.66-2.055c0.441-0.562,1.012-0.845,1.717-0.845
				s1.271,0.276,1.705,0.836c0.43,0.562,0.646,1.235,0.646,2.044v0.02C195.914,215.408,195.695,216.092,195.26,216.654z
				 M192.322,216.238c0.32,0.455,0.734,0.684,1.24,0.684s0.916-0.225,1.229-0.676c0.312-0.45,0.469-0.993,0.469-1.628v-0.017
				c0-0.638-0.16-1.184-0.477-1.639c-0.318-0.456-0.73-0.688-1.236-0.688c-0.506,0-0.918,0.227-1.232,0.675
				c-0.313,0.444-0.473,0.989-0.473,1.632v0.02C191.842,215.236,192.002,215.781,192.322,216.238z"/>
			<path fill="#FFFFFF" d="M200.979,216.654c-0.438,0.562-1.008,0.844-1.711,0.844c-0.705,0-1.272-0.277-1.709-0.836
				c-0.436-0.557-0.651-1.238-0.651-2.044v-0.017c0-0.809,0.221-1.488,0.659-2.055c0.439-0.562,1.013-0.845,1.718-0.845
				c0.702,0,1.27,0.276,1.702,0.836c0.433,0.562,0.648,1.235,0.648,2.044v0.02C201.635,215.408,201.416,216.092,200.979,216.654z
				 M198.041,216.238c0.319,0.455,0.733,0.684,1.242,0.684c0.506,0,0.913-0.225,1.227-0.676c0.312-0.45,0.469-0.993,0.469-1.628
				v-0.017c0-0.638-0.16-1.184-0.477-1.639c-0.316-0.456-0.73-0.688-1.234-0.688c-0.508,0-0.918,0.227-1.233,0.675
				c-0.312,0.444-0.472,0.989-0.472,1.632v0.02C197.562,215.236,197.721,215.781,198.041,216.238z"/>
		</g>
		<g>
			<path fill="#414042" d="M165.826,145.48l0.239-1.416h-0.871v-0.551h0.968l0.295-1.697h-0.951v-0.551h1.041l0.238-1.388h0.561
				l-0.232,1.388h1.521l0.242-1.388h0.559l-0.229,1.388h0.862v0.551h-0.961l-0.297,1.697h0.945v0.551h-1.031l-0.25,1.416h-0.559
				l0.24-1.416h-1.521l-0.246,1.416H165.826z M166.73,143.514h1.521l0.289-1.695h-1.521L166.73,143.514z"/>
			<path fill="#414042" d="M174.457,145.117c-0.398,0.296-0.9,0.443-1.504,0.443c-0.603,0-1.104-0.147-1.504-0.443
				c-0.398-0.297-0.601-0.676-0.601-1.141v-0.019c0-0.317,0.104-0.601,0.312-0.832c0.209-0.231,0.487-0.416,0.842-0.545
				c-0.642-0.293-0.959-0.726-0.959-1.287v-0.021c0-0.42,0.188-0.771,0.562-1.055c0.375-0.283,0.824-0.425,1.349-0.425
				c0.523,0,0.973,0.142,1.348,0.425c0.377,0.281,0.564,0.635,0.564,1.055v0.021c0,0.562-0.318,0.994-0.96,1.287
				c0.353,0.135,0.632,0.312,0.841,0.545c0.207,0.229,0.312,0.504,0.312,0.823v0.017
				C175.059,144.438,174.857,144.82,174.457,145.117z M171.887,144.705c0.262,0.203,0.619,0.305,1.066,0.305
				c0.448,0,0.805-0.102,1.067-0.305c0.265-0.202,0.396-0.45,0.396-0.743v-0.017c0-0.312-0.142-0.563-0.426-0.764
				c-0.281-0.201-0.63-0.304-1.039-0.304c-0.41,0-0.759,0.103-1.039,0.304c-0.283,0.196-0.427,0.45-0.427,0.764v0.017
				C171.488,144.255,171.621,144.503,171.887,144.705z M172.043,142.072c0.244,0.193,0.547,0.289,0.91,0.289
				c0.362,0,0.668-0.096,0.912-0.289c0.245-0.19,0.368-0.438,0.368-0.734v-0.018c0-0.276-0.123-0.508-0.368-0.69
				c-0.244-0.185-0.55-0.276-0.912-0.276c-0.367,0-0.673,0.092-0.916,0.276c-0.242,0.185-0.363,0.414-0.363,0.69v0.018
				C171.674,141.637,171.797,141.882,172.043,142.072z"/>
			<path fill="#414042" d="M178.93,145.48v-1.328h-2.953l-0.16-0.455l3.168-3.855h0.556v3.783h0.871v0.527h-0.871v1.328H178.93z
				 M176.578,143.625h2.352v-2.889L176.578,143.625z"/>
			<path fill="#414042" d="M181.633,145.48v-5.603h4.049v0.575h-3.416v1.912h3.057v0.572h-3.057v1.961h3.457v0.576h-4.09V145.48z"/>
			<path fill="#414042" d="M188.562,145.577c-0.598,0-1.174-0.229-1.729-0.688l0.369-0.488c0.452,0.4,0.909,0.604,1.375,0.604
				c0.5,0,0.905-0.229,1.217-0.688c0.309-0.459,0.457-1.047,0.447-1.77c-0.373,0.6-0.9,0.896-1.584,0.896
				c-0.576,0-1.046-0.162-1.408-0.486c-0.363-0.325-0.543-0.741-0.543-1.248v-0.018c0-0.539,0.188-0.988,0.565-1.354
				c0.379-0.364,0.863-0.548,1.449-0.548c0.596,0,1.088,0.189,1.471,0.574c0.465,0.465,0.697,1.188,0.697,2.168v0.019
				c0,0.894-0.217,1.618-0.647,2.187C189.81,145.296,189.25,145.577,188.562,145.577z M188.73,142.896
				c0.41,0,0.744-0.127,1.004-0.379c0.261-0.254,0.39-0.552,0.39-0.888v-0.017c0-0.362-0.133-0.665-0.402-0.908
				c-0.266-0.242-0.607-0.359-1.021-0.359c-0.406,0-0.73,0.127-0.978,0.383s-0.367,0.562-0.367,0.928v0.018
				c0,0.357,0.127,0.65,0.383,0.881C187.995,142.784,188.324,142.896,188.73,142.896z"/>
			<path fill="#414042" d="M195.947,144.732c-0.438,0.562-1.01,0.845-1.713,0.845c-0.705,0-1.272-0.278-1.709-0.836
				c-0.434-0.558-0.651-1.238-0.651-2.044v-0.016c0-0.81,0.221-1.49,0.66-2.056c0.44-0.562,1.012-0.845,1.717-0.845
				s1.271,0.275,1.705,0.836c0.43,0.558,0.646,1.236,0.646,2.044v0.021C196.602,143.486,196.383,144.171,195.947,144.732z
				 M193.01,144.316c0.32,0.457,0.734,0.685,1.24,0.685s0.916-0.226,1.229-0.676s0.469-0.993,0.469-1.628v-0.016
				c0-0.639-0.159-1.185-0.477-1.64c-0.318-0.456-0.729-0.688-1.236-0.688c-0.506,0-0.918,0.228-1.231,0.672
				c-0.314,0.449-0.474,0.992-0.474,1.636v0.021C192.529,143.316,192.689,143.861,193.01,144.316z"/>
			<path fill="#414042" d="M201.666,144.732c-0.438,0.562-1.008,0.845-1.711,0.845c-0.705,0-1.273-0.278-1.709-0.836
				c-0.437-0.558-0.652-1.238-0.652-2.044v-0.016c0-0.81,0.221-1.49,0.66-2.056c0.438-0.562,1.012-0.845,1.717-0.845
				c0.703,0,1.271,0.275,1.703,0.836c0.432,0.558,0.647,1.236,0.647,2.044v0.021C202.322,143.486,202.104,144.171,201.666,144.732z
				 M198.729,144.316c0.32,0.457,0.734,0.685,1.242,0.685c0.506,0,0.914-0.226,1.228-0.676c0.312-0.45,0.469-0.993,0.469-1.628
				v-0.016c0-0.639-0.16-1.185-0.478-1.64c-0.315-0.456-0.729-0.688-1.233-0.688c-0.508,0-0.918,0.228-1.234,0.672
				c-0.312,0.449-0.471,0.992-0.471,1.636v0.021C198.25,143.316,198.408,143.861,198.729,144.316z"/>
		</g>
		<g>
			<path fill="#414042" d="M165.826,177.947l0.239-1.416h-0.871v-0.553h0.968l0.295-1.695h-0.951v-0.553h1.041l0.238-1.383h0.561
				l-0.232,1.383h1.521l0.242-1.383h0.559l-0.229,1.383h0.862v0.553h-0.961l-0.297,1.695h0.945v0.553h-1.031l-0.25,1.416h-0.559
				l0.24-1.416h-1.521l-0.246,1.416H165.826z M166.73,175.979h1.521l0.289-1.692h-1.521L166.73,175.979z"/>
			<path fill="#414042" d="M171.227,177.947v-5.6h4.023v0.584h-3.394v2h3.033v0.571h-3.033v2.438h-0.63L171.227,177.947
				L171.227,177.947z"/>
			<path fill="#414042" d="M176.473,177.947v-5.6h4.025v0.584h-3.394v2h3.031v0.571h-3.031v2.438h-0.632L176.473,177.947
				L176.473,177.947z"/>
			<path fill="#414042" d="M181.723,177.947v-5.6h1.943c0.869,0,1.582,0.264,2.139,0.795c0.559,0.527,0.836,1.19,0.836,1.984v0.02
				c0,0.801-0.277,1.467-0.836,2c-0.557,0.533-1.27,0.801-2.139,0.801H181.723L181.723,177.947z M182.354,177.363h1.312
				c0.692,0,1.252-0.209,1.68-0.625c0.428-0.416,0.639-0.94,0.639-1.575v-0.017c0-0.635-0.211-1.162-0.639-1.584
				c-0.428-0.422-0.986-0.631-1.68-0.631h-1.312V177.363z"/>
			<path fill="#414042" d="M188.617,177.947v-4.984l-1.056,0.328l-0.151-0.512l1.366-0.473h0.464v5.641H188.617L188.617,177.947z"/>
			<path fill="#414042" d="M194.619,177.199c-0.438,0.562-1.011,0.844-1.714,0.844c-0.704,0-1.272-0.277-1.709-0.836
				c-0.434-0.557-0.651-1.238-0.651-2.044v-0.017c0-0.809,0.221-1.488,0.66-2.051c0.44-0.564,1.012-0.849,1.717-0.849
				s1.271,0.276,1.705,0.836c0.43,0.562,0.646,1.239,0.646,2.044v0.02C195.273,175.953,195.055,176.637,194.619,177.199z
				 M191.682,176.783c0.32,0.455,0.734,0.684,1.24,0.684c0.506,0,0.916-0.225,1.229-0.676c0.312-0.45,0.47-0.993,0.47-1.628v-0.017
				c0-0.635-0.16-1.184-0.478-1.635c-0.317-0.457-0.729-0.688-1.235-0.688c-0.507,0-0.919,0.224-1.232,0.672
				c-0.314,0.444-0.473,0.991-0.473,1.632v0.02C191.201,175.781,191.361,176.327,191.682,176.783z"/>
			<path fill="#414042" d="M200.338,177.199c-0.438,0.562-1.008,0.844-1.711,0.844c-0.705,0-1.273-0.277-1.709-0.836
				c-0.437-0.557-0.652-1.238-0.652-2.044v-0.017c0-0.809,0.221-1.488,0.66-2.051c0.439-0.564,1.012-0.849,1.717-0.849
				c0.703,0,1.271,0.276,1.703,0.836c0.432,0.562,0.648,1.239,0.648,2.044v0.02C200.994,175.953,200.775,176.637,200.338,177.199z
				 M197.4,176.783c0.32,0.455,0.734,0.684,1.242,0.684c0.506,0,0.914-0.225,1.228-0.676c0.312-0.45,0.469-0.993,0.469-1.628v-0.017
				c0-0.635-0.16-1.184-0.478-1.635c-0.315-0.457-0.729-0.688-1.233-0.688c-0.508,0-0.918,0.224-1.234,0.672
				c-0.312,0.444-0.471,0.991-0.471,1.632v0.02C196.922,175.781,197.08,176.327,197.4,176.783z"/>
		</g>
		<g>
			<path fill="#E6E7E8" d="M364.992,163.881l0.239-1.416h-0.873v-0.552h0.97l0.297-1.696h-0.953v-0.552h1.039l0.242-1.384h0.559
				l-0.229,1.384h1.521l0.238-1.384h0.562l-0.23,1.384h0.864v0.552h-0.959l-0.297,1.696h0.94v0.552h-1.033l-0.245,1.416h-0.562
				l0.239-1.416h-1.521l-0.25,1.416H364.992z M365.896,161.913h1.521l0.287-1.696h-1.521L365.896,161.913z"/>
			<path fill="#E6E7E8" d="M372.088,163.977c-0.881,0-1.576-0.332-2.088-1l0.457-0.406c0.453,0.558,1,0.83,1.639,0.83
				c0.349,0,0.64-0.101,0.873-0.303c0.234-0.203,0.354-0.465,0.354-0.785v-0.016c0-0.341-0.146-0.605-0.437-0.796
				c-0.287-0.188-0.666-0.284-1.135-0.284h-0.361l-0.127-0.376l1.771-1.991H370.3v-0.565h3.574v0.465l-1.761,1.951
				c0.53,0.043,0.976,0.192,1.321,0.461c0.354,0.264,0.525,0.636,0.525,1.112v0.02c0,0.486-0.183,0.896-0.541,1.212
				C373.059,163.818,372.615,163.977,372.088,163.977z"/>
			<path fill="#E6E7E8" d="M376.992,163.977c-0.88,0-1.576-0.332-2.089-1l0.455-0.406c0.45,0.558,1,0.83,1.642,0.83
				c0.348,0,0.637-0.101,0.871-0.303c0.23-0.203,0.352-0.465,0.352-0.785v-0.016c0-0.341-0.143-0.605-0.43-0.796
				c-0.289-0.188-0.668-0.284-1.138-0.284h-0.358l-0.129-0.376l1.768-1.991H375.2v-0.565h3.577v0.465l-1.765,1.951
				c0.533,0.043,0.979,0.192,1.324,0.461c0.353,0.264,0.522,0.636,0.522,1.112v0.02c0,0.486-0.183,0.896-0.538,1.212
				C377.965,163.818,377.52,163.977,376.992,163.977z"/>
			<path fill="#E6E7E8" d="M381.896,163.977c-0.884,0-1.576-0.332-2.091-1l0.457-0.406c0.453,0.558,1,0.83,1.642,0.83
				c0.347,0,0.638-0.101,0.873-0.303c0.231-0.203,0.353-0.465,0.353-0.785v-0.016c0-0.341-0.146-0.605-0.435-0.796
				c-0.286-0.188-0.666-0.284-1.138-0.284h-0.358l-0.127-0.376l1.769-1.991h-2.731v-0.565h3.571v0.465l-1.76,1.951
				c0.533,0.043,0.976,0.192,1.324,0.461c0.35,0.264,0.521,0.636,0.521,1.112v0.02c0,0.486-0.182,0.896-0.541,1.212
				C382.867,163.818,382.424,163.977,381.896,163.977z"/>
		</g>
		<g>
			<path fill="#E6E7E8" d="M65.826,141.646l0.239-1.416h-0.873v-0.551h0.97l0.297-1.697h-0.953v-0.551h1.039l0.242-1.388h0.559
				l-0.229,1.388h1.52l0.238-1.388h0.561l-0.231,1.388h0.864v0.551H69.11l-0.297,1.697h0.943v0.551h-1.033l-0.246,1.416h-0.561
				l0.239-1.416h-1.52l-0.25,1.416H65.826z M66.73,139.68h1.521l0.287-1.695h-1.521L66.73,139.68z"/>
			<path fill="#E6E7E8" d="M71.225,141.646v-5.603h4.049v0.575h-3.416v1.912h3.058v0.572h-3.058v1.961h3.457v0.576h-4.09V141.646z"
				/>
			<path fill="#E6E7E8" d="M78.217,141.743c-0.74,0-1.406-0.296-2-0.888l0.418-0.457c0.527,0.513,1.059,0.769,1.59,0.769
				c0.396,0,0.719-0.117,0.973-0.353c0.255-0.234,0.382-0.529,0.382-0.89v-0.018c0-0.351-0.132-0.632-0.39-0.851
				c-0.258-0.22-0.594-0.328-1.004-0.328c-0.383,0-0.774,0.105-1.176,0.32l-0.424-0.281l0.16-2.728h3.225v0.584h-2.672l-0.121,1.792
				c0.379-0.166,0.746-0.248,1.105-0.248c0.559,0,1.021,0.154,1.387,0.465c0.366,0.309,0.547,0.725,0.547,1.248v0.016
				c0,0.543-0.187,0.986-0.559,1.328C79.283,141.572,78.805,141.743,78.217,141.743z"/>
			<path fill="#E6E7E8" d="M81.545,141.646l2.526-5.023h-3.077v-0.575h3.799v0.472l-2.545,5.129h-0.703V141.646z"/>
			<path fill="#E6E7E8" d="M87.441,141.743c-0.739,0-1.407-0.296-2-0.888l0.416-0.457c0.527,0.513,1.06,0.769,1.593,0.769
				c0.395,0,0.719-0.117,0.973-0.353c0.252-0.233,0.381-0.529,0.381-0.89v-0.018c0-0.351-0.131-0.632-0.389-0.851
				c-0.261-0.219-0.595-0.328-1.006-0.328c-0.384,0-0.773,0.105-1.177,0.32l-0.422-0.281l0.16-2.728h3.223v0.584h-2.672L86.4,138.42
				c0.379-0.166,0.748-0.248,1.105-0.248c0.559,0,1.022,0.154,1.387,0.465c0.367,0.309,0.549,0.725,0.549,1.248v0.016
				c0,0.543-0.186,0.986-0.561,1.328C88.508,141.572,88.029,141.743,87.441,141.743z"/>
			<path fill="#E6E7E8" d="M94.482,140.898c-0.438,0.562-1.008,0.845-1.711,0.845c-0.705,0-1.272-0.278-1.709-0.837
				c-0.436-0.557-0.651-1.237-0.651-2.043v-0.016c0-0.81,0.221-1.49,0.659-2.056c0.439-0.562,1.013-0.845,1.718-0.845
				c0.703,0,1.27,0.275,1.703,0.836c0.432,0.558,0.647,1.236,0.647,2.044v0.021C95.139,139.652,94.92,140.337,94.482,140.898z
				 M91.545,140.482c0.32,0.457,0.733,0.685,1.242,0.685c0.506,0,0.914-0.226,1.227-0.676s0.469-0.993,0.469-1.628v-0.016
				c0-0.639-0.16-1.185-0.477-1.64c-0.316-0.456-0.73-0.688-1.234-0.688c-0.508,0-0.918,0.228-1.233,0.672
				c-0.312,0.449-0.472,0.992-0.472,1.636v0.021C91.066,139.482,91.225,140.027,91.545,140.482z"/>
			<path fill="#E6E7E8" d="M96.498,141.646l2.526-5.023h-3.08v-0.575h3.8v0.472l-2.543,5.129h-0.703V141.646z"/>
			<path fill="#E6E7E8" d="M65.627,151.247v-5.601h2.383c0.635,0,1.123,0.166,1.465,0.496c0.238,0.25,0.359,0.549,0.359,0.896v0.017
				c0,0.607-0.297,1.041-0.888,1.297c0.8,0.238,1.199,0.689,1.199,1.354v0.019c0,0.475-0.184,0.848-0.553,1.117
				c-0.369,0.271-0.861,0.408-1.479,0.408L65.627,151.247L65.627,151.247z M66.25,148.145h1.655c0.39,0,0.701-0.088,0.937-0.262
				c0.234-0.173,0.352-0.42,0.352-0.738v-0.018c0-0.281-0.106-0.505-0.323-0.668c-0.216-0.162-0.521-0.244-0.914-0.244H66.25
				V148.145z M66.25,150.68h1.881c0.426,0,0.762-0.09,1.008-0.269c0.244-0.179,0.367-0.423,0.367-0.731v-0.017
				c0-0.31-0.127-0.547-0.379-0.712c-0.254-0.165-0.625-0.248-1.109-0.248H66.25V150.68z"/>
			<path fill="#E6E7E8" d="M72.682,151.318c-0.356,0-0.641-0.094-0.852-0.283s-0.316-0.484-0.316-0.885v-2.496h-0.576v-0.543h0.576
				v-1.248h0.615v1.248h1.312v0.543h-1.312v2.416c0,0.459,0.231,0.688,0.697,0.688c0.202,0,0.401-0.048,0.6-0.144v0.526
				C73.201,151.262,72.953,151.318,72.682,151.318z"/>
			<path fill="#E6E7E8" d="M74.529,151.247v-4.136h0.617v0.72c0.324-0.539,0.797-0.808,1.414-0.808c0.492,0,0.879,0.146,1.16,0.451
				c0.285,0.301,0.426,0.7,0.426,1.2v2.568h-0.617v-2.416c0-0.394-0.1-0.693-0.301-0.916c-0.199-0.226-0.479-0.332-0.844-0.332
				c-0.355,0-0.652,0.12-0.887,0.356c-0.234,0.24-0.353,0.556-0.353,0.938v2.368L74.529,151.247L74.529,151.247z"/>
			<path fill="#E6E7E8" d="M84.057,151.335c-0.647,0-1.178-0.293-1.582-0.88v0.792h-0.617v-5.84h0.617v2.536
				c0.414-0.613,0.943-0.92,1.582-0.92c0.529,0,0.99,0.19,1.387,0.584c0.396,0.389,0.591,0.908,0.591,1.56v0.017
				c0,0.646-0.195,1.166-0.591,1.562C85.047,151.139,84.586,151.335,84.057,151.335z M83.947,150.783
				c0.414,0,0.763-0.145,1.039-0.434c0.277-0.287,0.416-0.677,0.416-1.158v-0.021c0-0.476-0.143-0.856-0.424-1.151
				c-0.283-0.297-0.627-0.444-1.031-0.444c-0.401,0-0.75,0.149-1.051,0.452c-0.297,0.301-0.444,0.681-0.444,1.14v0.017
				c0,0.465,0.147,0.851,0.444,1.147C83.197,150.633,83.545,150.783,83.947,150.783z"/>
			<path fill="#E6E7E8" d="M88.4,151.335c-0.414,0-0.776-0.114-1.082-0.344c-0.309-0.229-0.461-0.544-0.461-0.944v-0.016
				c0-0.434,0.16-0.766,0.48-1c0.32-0.234,0.75-0.354,1.287-0.354c0.428,0,0.85,0.062,1.264,0.179v-0.129
				c0-0.361-0.104-0.642-0.32-0.832c-0.211-0.189-0.514-0.287-0.901-0.287c-0.406,0-0.824,0.101-1.258,0.295l-0.185-0.504
				c0.512-0.232,1.014-0.354,1.504-0.354c0.588,0,1.033,0.15,1.336,0.456c0.289,0.288,0.435,0.692,0.435,1.217v2.527H89.89v-0.616
				C89.521,151.102,89.025,151.335,88.4,151.335z M88.521,150.839c0.383,0,0.709-0.104,0.978-0.312
				c0.266-0.209,0.397-0.478,0.397-0.801v-0.388c-0.403-0.114-0.807-0.176-1.207-0.176c-0.379,0-0.676,0.076-0.887,0.229
				c-0.215,0.149-0.32,0.354-0.32,0.604v0.02c0,0.25,0.099,0.447,0.299,0.601C87.982,150.766,88.229,150.839,88.521,150.839z"/>
			<path fill="#E6E7E8" d="M93.666,151.344c-0.599,0-1.103-0.211-1.508-0.633c-0.41-0.421-0.613-0.925-0.613-1.512v-0.018
				c0-0.595,0.203-1.103,0.613-1.522c0.405-0.425,0.909-0.636,1.508-0.636c0.641,0,1.19,0.244,1.655,0.731l-0.409,0.437
				c-0.396-0.416-0.812-0.625-1.254-0.625c-0.418,0-0.769,0.154-1.054,0.465c-0.285,0.31-0.428,0.688-0.428,1.136v0.017
				c0,0.447,0.145,0.828,0.436,1.144s0.652,0.468,1.084,0.468c0.459,0,0.88-0.205,1.265-0.615l0.393,0.367
				C94.873,151.076,94.311,151.344,93.666,151.344z"/>
			<path fill="#E6E7E8" d="M96.369,151.247v-5.841h0.616v4.033l2.23-2.328h0.77l-1.735,1.772l1.791,2.359h-0.734l-1.479-1.931
				l-0.841,0.851v1.08L96.369,151.247L96.369,151.247z"/>
			<path fill="#E6E7E8" d="M102.553,152.543c-0.699,0-1.324-0.191-1.879-0.576l0.279-0.479c0.485,0.352,1.016,0.527,1.592,0.527
				c0.465,0,0.832-0.127,1.102-0.384c0.269-0.253,0.402-0.614,0.402-1.092v-0.485c-0.438,0.579-0.979,0.869-1.625,0.869
				c-0.521,0-0.978-0.18-1.363-0.54c-0.387-0.356-0.578-0.821-0.578-1.396v-0.018c0-0.582,0.193-1.054,0.582-1.412
				c0.392-0.357,0.845-0.539,1.359-0.539c0.664,0,1.201,0.275,1.617,0.832v-0.744h0.617v3.416c0,0.623-0.177,1.111-0.529,1.466
				C103.76,152.359,103.236,152.543,102.553,152.543z M102.545,150.383c0.406,0,0.762-0.132,1.063-0.396
				c0.304-0.264,0.455-0.598,0.455-1.004v-0.017c0-0.409-0.149-0.745-0.451-1.008c-0.303-0.261-0.657-0.392-1.067-0.392
				c-0.398,0-0.738,0.127-1.017,0.384c-0.277,0.256-0.416,0.592-0.416,1.008v0.017c0,0.405,0.14,0.741,0.421,1.008
				C101.814,150.25,102.15,150.383,102.545,150.383z"/>
			<path fill="#E6E7E8" d="M106.033,151.247v-4.136h0.614v1.08c0.16-0.357,0.388-0.646,0.683-0.856
				c0.293-0.213,0.629-0.312,1.008-0.296v0.664h-0.049c-0.476,0-0.867,0.165-1.179,0.496c-0.309,0.33-0.463,0.797-0.463,1.398v1.646
				L106.033,151.247L106.033,151.247z"/>
			<path fill="#E6E7E8" d="M109.273,151.247v-4.136h0.615v0.72c0.324-0.539,0.797-0.808,1.416-0.808c0.49,0,0.877,0.146,1.16,0.451
				c0.283,0.301,0.424,0.7,0.424,1.2v2.568h-0.615v-2.416c0-0.394-0.1-0.693-0.301-0.916c-0.199-0.226-0.481-0.332-0.844-0.332
				c-0.357,0-0.654,0.12-0.89,0.356c-0.233,0.24-0.352,0.556-0.352,0.938v2.368L109.273,151.247L109.273,151.247z"/>
			<path fill="#E6E7E8" d="M115.936,151.335c-0.526,0-0.988-0.194-1.383-0.584s-0.592-0.909-0.592-1.56v-0.021
				c0-0.646,0.197-1.164,0.592-1.562c0.395-0.396,0.855-0.592,1.383-0.592c0.652,0,1.181,0.293,1.586,0.881v-2.496h0.615v5.842
				h-0.615v-0.832C117.104,151.027,116.576,151.335,115.936,151.335z M116.049,150.783c0.397,0,0.75-0.15,1.047-0.452
				c0.301-0.302,0.449-0.685,0.449-1.147v-0.017c0-0.459-0.148-0.839-0.449-1.14c-0.297-0.303-0.648-0.452-1.047-0.452
				c-0.416,0-0.762,0.144-1.039,0.432c-0.277,0.288-0.418,0.675-0.418,1.16v0.017c0,0.479,0.143,0.859,0.426,1.155
				C115.299,150.635,115.643,150.783,116.049,150.783z"/>
		</g>
		<g>
			<path fill="#E6E7E8" d="M165.826,68.047l0.239-1.416h-0.871v-0.552h0.968l0.295-1.696h-0.951v-0.552h1.041l0.238-1.384h0.561
				l-0.232,1.384h1.521l0.242-1.384h0.559l-0.229,1.384h0.862v0.552h-0.961l-0.297,1.696h0.945v0.552h-1.031l-0.25,1.416h-0.559
				l0.24-1.416h-1.521l-0.246,1.416H165.826z M166.73,66.079h1.521l0.289-1.696h-1.521L166.73,66.079z"/>
			<path fill="#E6E7E8" d="M173.891,68.047v-1.328h-2.953l-0.16-0.456l3.168-3.855h0.554v3.783h0.871v0.528H174.5v1.328H173.891z
				 M171.537,66.19h2.354v-2.888L171.537,66.19z"/>
			<path fill="#E6E7E8" d="M176.186,68.047v-0.488l2.033-1.792c0.438-0.389,0.74-0.71,0.91-0.964
				c0.172-0.253,0.258-0.519,0.258-0.796c0-0.32-0.109-0.578-0.328-0.776c-0.219-0.197-0.485-0.296-0.801-0.296
				c-0.305,0-0.572,0.078-0.805,0.232c-0.23,0.154-0.466,0.397-0.699,0.728l-0.465-0.336c0.272-0.405,0.561-0.705,0.862-0.899
				c0.306-0.195,0.689-0.292,1.152-0.292c0.502,0,0.918,0.149,1.246,0.447c0.328,0.299,0.492,0.678,0.492,1.137v0.016
				c0,0.39-0.105,0.734-0.312,1.036c-0.209,0.302-0.578,0.682-1.104,1.14l-1.496,1.328h2.969v0.576L176.186,68.047L176.186,68.047z"
				/>
			<path fill="#E6E7E8" d="M184.617,67.683c-0.398,0.296-0.9,0.444-1.505,0.444c-0.602,0-1.104-0.148-1.504-0.444
				c-0.397-0.296-0.6-0.676-0.6-1.14v-0.016c0-0.32,0.104-0.598,0.311-0.832c0.209-0.235,0.488-0.416,0.843-0.545
				c-0.642-0.293-0.959-0.722-0.959-1.287v-0.017c0-0.421,0.188-0.773,0.562-1.056c0.375-0.283,0.824-0.424,1.348-0.424
				c0.524,0,0.974,0.141,1.349,0.424c0.377,0.282,0.563,0.635,0.563,1.056v0.017c0,0.565-0.317,0.994-0.959,1.287
				c0.353,0.134,0.631,0.315,0.84,0.545c0.207,0.229,0.312,0.504,0.312,0.823v0.017C185.219,67.004,185.018,67.387,184.617,67.683z
				 M182.047,67.271c0.262,0.203,0.619,0.305,1.065,0.305c0.449,0,0.806-0.102,1.068-0.305c0.264-0.202,0.396-0.45,0.396-0.743
				v-0.017c0-0.31-0.142-0.563-0.427-0.764c-0.28-0.2-0.629-0.3-1.039-0.3c-0.409,0-0.758,0.1-1.039,0.3
				c-0.282,0.2-0.426,0.454-0.426,0.764v0.017C181.648,66.82,181.781,67.068,182.047,67.271z M182.203,64.639
				c0.243,0.192,0.547,0.288,0.909,0.288c0.363,0,0.668-0.096,0.912-0.288c0.246-0.191,0.369-0.438,0.369-0.735v-0.017
				c0-0.277-0.123-0.508-0.369-0.691c-0.244-0.185-0.549-0.276-0.912-0.276c-0.366,0-0.672,0.092-0.916,0.276
				c-0.241,0.184-0.362,0.414-0.362,0.691v0.017C181.834,64.201,181.957,64.447,182.203,64.639z"/>
			<path fill="#E6E7E8" d="M186.426,68.047v-5.6h2.383c0.635,0,1.123,0.165,1.465,0.496c0.24,0.25,0.361,0.549,0.361,0.896v0.016
				c0,0.608-0.297,1.04-0.889,1.296c0.799,0.24,1.198,0.691,1.198,1.353v0.016c0,0.475-0.184,0.849-0.553,1.12
				c-0.367,0.272-0.858,0.408-1.479,0.408L186.426,68.047L186.426,68.047z M187.051,64.943h1.656c0.387,0,0.701-0.087,0.936-0.261
				c0.234-0.173,0.353-0.42,0.353-0.739v-0.017c0-0.282-0.109-0.505-0.324-0.668c-0.215-0.162-0.521-0.244-0.916-0.244h-1.703
				L187.051,64.943L187.051,64.943z M187.051,67.479h1.879c0.428,0,0.764-0.089,1.008-0.268c0.244-0.179,0.369-0.423,0.369-0.732
				v-0.016c0-0.31-0.129-0.547-0.381-0.712c-0.252-0.165-0.623-0.248-1.109-0.248h-1.766V67.479z"/>
			<path fill="#E6E7E8" d="M194.762,68.143c-0.799,0-1.467-0.277-2.004-0.832c-0.537-0.555-0.803-1.237-0.803-2.048v-0.016
				c0-0.806,0.27-1.489,0.807-2.052c0.539-0.563,1.213-0.845,2.025-0.845c0.473,0,0.879,0.075,1.215,0.225
				c0.336,0.15,0.66,0.37,0.969,0.664l-0.434,0.464c-0.539-0.513-1.125-0.769-1.759-0.769c-0.62,0-1.137,0.222-1.549,0.664
				c-0.414,0.443-0.619,0.987-0.619,1.632v0.017c0,0.65,0.207,1.198,0.623,1.644c0.416,0.446,0.933,0.668,1.545,0.668
				c0.361,0,0.683-0.066,0.959-0.2c0.277-0.133,0.562-0.336,0.849-0.607l0.416,0.408c-0.32,0.325-0.652,0.57-1,0.735
				C195.654,68.061,195.242,68.143,194.762,68.143z"/>
			<path fill="#E6E7E8" d="M197.627,68.047l2.551-5.64h0.594l2.551,5.64h-0.68l-0.656-1.48h-3.047l-0.664,1.48H197.627z
				 M199.186,65.999h2.553l-1.271-2.856L199.186,65.999z"/>
		</g>
		<g>
			<path fill="#E6E7E8" d="M165.826,104.847l0.239-1.416h-0.871v-0.552h0.968l0.295-1.696h-0.951v-0.552h1.041l0.238-1.384h0.561
				l-0.232,1.384h1.521l0.242-1.384h0.559l-0.229,1.384h0.862v0.552h-0.961l-0.297,1.696h0.945v0.552h-1.031l-0.25,1.416h-0.559
				l0.24-1.416h-1.521l-0.246,1.416H165.826z M166.73,102.879h1.521l0.289-1.696h-1.521L166.73,102.879z"/>
			<path fill="#E6E7E8" d="M170.816,104.847v-0.488l2.033-1.792c0.438-0.389,0.74-0.71,0.912-0.964
				c0.172-0.253,0.256-0.519,0.256-0.796c0-0.32-0.108-0.578-0.328-0.776c-0.219-0.197-0.485-0.296-0.799-0.296
				c-0.305,0-0.574,0.078-0.805,0.232c-0.232,0.154-0.465,0.397-0.699,0.728l-0.465-0.336c0.271-0.405,0.559-0.705,0.863-0.899
				c0.305-0.195,0.688-0.292,1.151-0.292c0.5,0,0.916,0.149,1.244,0.447c0.328,0.299,0.492,0.678,0.492,1.137v0.016
				c0,0.39-0.104,0.734-0.312,1.036c-0.208,0.302-0.575,0.682-1.104,1.14l-1.496,1.328h2.969v0.576L170.816,104.847L170.816,104.847
				z"/>
			<path fill="#E6E7E8" d="M175.537,104.847l2.553-5.64h0.592l2.553,5.64h-0.68l-0.656-1.48h-3.049l-0.664,1.48H175.537z
				 M177.098,102.799h2.551l-1.27-2.856L177.098,102.799z"/>
			<path fill="#E6E7E8" d="M184.211,104.942c-0.604,0-1.094-0.188-1.474-0.567c-0.239-0.24-0.418-0.525-0.53-0.856
				c-0.117-0.33-0.172-0.768-0.172-1.312v-0.017c0-0.874,0.207-1.6,0.627-2.176c0.418-0.576,0.985-0.864,1.7-0.864
				c0.58,0,1.134,0.214,1.654,0.641l-0.369,0.487c-0.436-0.367-0.875-0.552-1.317-0.552c-0.502,0-0.9,0.229-1.201,0.688
				c-0.297,0.458-0.445,1.053-0.439,1.783c0.39-0.57,0.92-0.855,1.593-0.855c0.538,0,0.995,0.158,1.372,0.476
				c0.378,0.318,0.564,0.732,0.564,1.244v0.017c0,0.538-0.191,0.983-0.578,1.336C185.258,104.767,184.781,104.942,184.211,104.942z
				 M184.219,104.383c0.404,0,0.73-0.123,0.98-0.368c0.245-0.245,0.37-0.549,0.37-0.912v-0.016c0-0.347-0.129-0.634-0.385-0.86
				s-0.584-0.34-0.981-0.34c-0.406,0-0.742,0.123-1.004,0.368c-0.267,0.245-0.398,0.53-0.398,0.855v0.017
				c0,0.357,0.135,0.655,0.402,0.896C183.469,104.263,183.809,104.383,184.219,104.383z"/>
			<path fill="#E6E7E8" d="M190.178,104.847v-1.328h-2.951l-0.16-0.456l3.166-3.855h0.556v3.783h0.871v0.528h-0.871v1.328H190.178z
				 M187.824,102.99h2.354v-2.888L187.824,102.99z"/>
			<path fill="#E6E7E8" d="M194.369,104.942c-0.599,0-1.173-0.229-1.728-0.688l0.367-0.488c0.453,0.4,0.912,0.6,1.375,0.6
				c0.502,0,0.906-0.229,1.217-0.688c0.312-0.459,0.459-1.048,0.447-1.768c-0.371,0.597-0.9,0.896-1.582,0.896
				c-0.578,0-1.047-0.162-1.41-0.488c-0.361-0.325-0.543-0.741-0.543-1.248v-0.016c0-0.539,0.189-0.99,0.568-1.356
				c0.377-0.365,0.86-0.548,1.446-0.548c0.599,0,1.091,0.192,1.474,0.576c0.465,0.464,0.694,1.187,0.694,2.168v0.017
				c0,0.891-0.215,1.618-0.647,2.184C195.619,104.66,195.057,104.942,194.369,104.942z M194.537,102.263
				c0.409,0,0.746-0.127,1.004-0.38c0.26-0.253,0.389-0.548,0.389-0.884v-0.017c0-0.362-0.133-0.665-0.4-0.908
				c-0.266-0.242-0.606-0.363-1.022-0.363c-0.406,0-0.73,0.128-0.978,0.384c-0.246,0.256-0.366,0.565-0.366,0.928v0.017
				c0,0.357,0.129,0.65,0.383,0.88C193.803,102.148,194.133,102.263,194.537,102.263z"/>
			<path fill="#E6E7E8" d="M199.85,104.942c-0.602,0-1.094-0.188-1.473-0.567c-0.238-0.24-0.418-0.525-0.531-0.856
				c-0.115-0.33-0.172-0.768-0.172-1.312v-0.017c0-0.874,0.209-1.6,0.629-2.176c0.418-0.576,0.984-0.864,1.699-0.864
				c0.582,0,1.133,0.214,1.656,0.641l-0.369,0.487c-0.437-0.367-0.877-0.552-1.318-0.552c-0.504,0-0.902,0.229-1.201,0.688
				c-0.299,0.458-0.444,1.053-0.438,1.783c0.389-0.57,0.92-0.855,1.592-0.855c0.537,0,0.996,0.158,1.373,0.476
				c0.375,0.317,0.562,0.732,0.562,1.244v0.017c0,0.538-0.19,0.983-0.575,1.336C200.896,104.767,200.42,104.942,199.85,104.942z
				 M199.857,104.383c0.406,0,0.732-0.123,0.98-0.368c0.248-0.245,0.371-0.549,0.371-0.912v-0.016c0-0.347-0.127-0.634-0.383-0.86
				c-0.259-0.227-0.587-0.34-0.984-0.34c-0.406,0-0.74,0.123-1.004,0.368c-0.267,0.245-0.396,0.53-0.396,0.855v0.017
				c0,0.357,0.136,0.655,0.4,0.896C199.106,104.264,199.447,104.383,199.857,104.383z"/>
		</g>
		<g>
			<path fill="#E6E7E8" d="M65.826,70.547l0.239-1.416h-0.873v-0.552h0.97l0.297-1.696h-0.953v-0.552h1.039l0.242-1.384h0.559
				l-0.229,1.384h1.52l0.238-1.384h0.561l-0.231,1.384h0.864v0.552H69.11l-0.297,1.696h0.943v0.552h-1.033l-0.246,1.416h-0.561
				l0.239-1.416h-1.52l-0.25,1.416H65.826z M66.73,68.579h1.521l0.287-1.696h-1.521L66.73,68.579z"/>
			<path fill="#E6E7E8" d="M71.225,70.547v-5.6h4.025v0.584h-3.394v2h3.031v0.575h-3.031v2.44L71.225,70.547L71.225,70.547z"/>
			<path fill="#E6E7E8" d="M76.475,70.547v-5.6h4.023v0.584h-3.394v2h3.033v0.575h-3.033v2.44L76.475,70.547L76.475,70.547z"/>
			<path fill="#E6E7E8" d="M84.955,70.183c-0.402,0.296-0.902,0.444-1.506,0.444s-1.104-0.148-1.505-0.444
				c-0.399-0.296-0.6-0.676-0.6-1.14v-0.016c0-0.32,0.104-0.598,0.312-0.832c0.206-0.235,0.487-0.416,0.84-0.545
				c-0.642-0.293-0.961-0.722-0.961-1.287v-0.017c0-0.421,0.188-0.773,0.563-1.056c0.377-0.283,0.826-0.424,1.348-0.424
				c0.523,0,0.974,0.141,1.351,0.424c0.375,0.282,0.562,0.635,0.562,1.056v0.017c0,0.565-0.319,0.994-0.961,1.287
				c0.354,0.134,0.634,0.315,0.84,0.545c0.209,0.229,0.312,0.504,0.312,0.823v0.017C85.553,69.504,85.354,69.887,84.955,70.183z
				 M82.381,69.771c0.266,0.203,0.621,0.305,1.068,0.305c0.446,0,0.805-0.102,1.067-0.305c0.264-0.202,0.396-0.45,0.396-0.743
				v-0.017c0-0.31-0.144-0.563-0.425-0.764c-0.282-0.2-0.629-0.3-1.041-0.3c-0.409,0-0.756,0.1-1.038,0.3
				c-0.283,0.2-0.425,0.454-0.425,0.764v0.017C81.986,69.32,82.119,69.568,82.381,69.771z M82.537,67.139
				c0.246,0.192,0.551,0.288,0.912,0.288c0.362,0,0.666-0.096,0.911-0.288c0.246-0.191,0.367-0.438,0.367-0.735v-0.017
				c0-0.277-0.121-0.508-0.367-0.691c-0.245-0.185-0.549-0.276-0.911-0.276c-0.367,0-0.675,0.092-0.916,0.276
				c-0.242,0.184-0.363,0.414-0.363,0.691v0.017C82.17,66.701,82.291,66.947,82.537,67.139z"/>
			<path fill="#E6E7E8" d="M86.281,70.547l2.554-5.64h0.592l2.553,5.64H91.3l-0.656-1.48h-3.049l-0.664,1.48H86.281z M87.842,68.499
				h2.551l-1.27-2.856L87.842,68.499z"/>
			<path fill="#E6E7E8" d="M96.857,69.799c-0.438,0.562-1.008,0.844-1.711,0.844s-1.272-0.278-1.707-0.836
				c-0.438-0.557-0.651-1.238-0.651-2.044v-0.016c0-0.806,0.219-1.489,0.659-2.052c0.438-0.563,1.013-0.845,1.716-0.845
				s1.271,0.279,1.703,0.836c0.434,0.558,0.647,1.239,0.647,2.044v0.017C97.514,68.553,97.295,69.236,96.857,69.799z M93.922,69.383
				c0.32,0.456,0.731,0.684,1.24,0.684c0.508,0,0.916-0.225,1.227-0.676c0.312-0.45,0.469-0.993,0.469-1.628v-0.016
				c0-0.635-0.157-1.181-0.477-1.636c-0.316-0.456-0.729-0.685-1.234-0.685c-0.508,0-0.918,0.224-1.231,0.672
				c-0.314,0.448-0.472,0.992-0.472,1.632v0.017C93.443,68.382,93.602,68.927,93.922,69.383z"/>
			<path fill="#E6E7E8" d="M102.578,69.799c-0.438,0.562-1.011,0.844-1.713,0.844c-0.703,0-1.273-0.278-1.707-0.836
				c-0.437-0.557-0.652-1.238-0.652-2.044v-0.016c0-0.806,0.219-1.489,0.66-2.052c0.438-0.563,1.012-0.845,1.715-0.845
				c0.705,0,1.272,0.279,1.705,0.836c0.432,0.558,0.646,1.239,0.646,2.044v0.017C103.232,68.553,103.014,69.236,102.578,69.799z
				 M99.643,69.383c0.32,0.456,0.732,0.684,1.238,0.684c0.508,0,0.918-0.225,1.229-0.676c0.312-0.45,0.47-0.993,0.47-1.628v-0.016
				c0-0.635-0.158-1.181-0.478-1.636c-0.317-0.456-0.729-0.685-1.235-0.685c-0.506,0-0.919,0.224-1.23,0.672
				c-0.316,0.448-0.473,0.992-0.473,1.632v0.017C99.162,68.382,99.322,68.927,99.643,69.383z"/>
			<path fill="#E6E7E8" d="M67.107,80.146V75.13h-1.883v-0.584h4.402v0.584h-1.881v5.016H67.107z"/>
			<path fill="#E6E7E8" d="M70.467,75.106v-0.68h0.703v0.68H70.467z M70.506,80.146V76.01h0.617v4.136H70.506z"/>
			<path fill="#E6E7E8" d="M73.938,80.219c-0.356,0-0.643-0.095-0.854-0.284s-0.314-0.484-0.314-0.884v-2.496h-0.576v-0.544h0.576
				v-1.248h0.615v1.248h1.312v0.544h-1.312v2.416c0,0.459,0.232,0.688,0.695,0.688c0.203,0,0.401-0.048,0.602-0.144v0.528
				C74.457,80.16,74.209,80.219,73.938,80.219z"/>
			<path fill="#E6E7E8" d="M75.842,80.146v-5.84h0.617v5.84H75.842z"/>
			<path fill="#E6E7E8" d="M78.256,78.33c0.043,0.422,0.203,0.757,0.477,1.005c0.275,0.247,0.603,0.371,0.98,0.371
				c0.496,0,0.93-0.194,1.305-0.584l0.383,0.345c-0.463,0.517-1.03,0.775-1.703,0.775c-0.581,0-1.069-0.201-1.469-0.604
				c-0.396-0.402-0.596-0.922-0.596-1.557c0-0.603,0.188-1.113,0.568-1.531c0.379-0.419,0.852-0.628,1.416-0.628
				c0.592,0,1.061,0.208,1.407,0.624c0.348,0.416,0.521,0.938,0.521,1.567c0,0.08-0.004,0.152-0.008,0.216L78.256,78.33
				L78.256,78.33z M78.256,77.835h2.664c-0.035-0.4-0.168-0.732-0.396-0.996c-0.227-0.265-0.534-0.396-0.924-0.396
				c-0.354,0-0.654,0.131-0.904,0.393C78.447,77.096,78.299,77.43,78.256,77.835z"/>
			<path fill="#E6E7E8" d="M83.994,80.227c-0.302,0-0.603-0.055-0.908-0.164c-0.307-0.109-0.576-0.257-0.806-0.444l0.312-0.439
				c0.469,0.352,0.947,0.527,1.432,0.527c0.25,0,0.457-0.06,0.617-0.18c0.16-0.12,0.238-0.278,0.238-0.476v-0.017
				c0-0.187-0.086-0.33-0.26-0.432c-0.175-0.102-0.433-0.2-0.771-0.296c-0.207-0.059-0.373-0.112-0.496-0.16
				s-0.262-0.116-0.416-0.204c-0.153-0.088-0.27-0.198-0.344-0.332c-0.076-0.133-0.111-0.29-0.111-0.472v-0.017
				c0-0.352,0.131-0.637,0.396-0.855c0.266-0.219,0.602-0.328,1.012-0.328c0.535,0,1.031,0.152,1.488,0.456l-0.279,0.464
				c-0.412-0.267-0.818-0.4-1.225-0.4c-0.238,0-0.435,0.057-0.578,0.169c-0.148,0.111-0.224,0.256-0.224,0.432v0.016
				c0,0.075,0.023,0.146,0.066,0.208c0.041,0.064,0.09,0.117,0.143,0.16c0.054,0.043,0.14,0.088,0.253,0.136
				c0.114,0.049,0.207,0.083,0.276,0.104c0.068,0.021,0.178,0.056,0.328,0.104c0.152,0.049,0.283,0.091,0.387,0.128
				c0.105,0.038,0.224,0.09,0.353,0.156c0.131,0.067,0.233,0.139,0.312,0.216c0.078,0.078,0.144,0.175,0.195,0.292
				c0.055,0.118,0.082,0.248,0.082,0.393v0.016c0,0.384-0.141,0.687-0.418,0.908C84.771,80.117,84.42,80.227,83.994,80.227z"/>
			<path fill="#E6E7E8" d="M65.627,89.747v-5.6h2.383c0.635,0,1.123,0.165,1.465,0.496c0.238,0.25,0.359,0.549,0.359,0.896v0.016
				c0,0.608-0.297,1.04-0.888,1.296c0.8,0.24,1.199,0.691,1.199,1.353v0.016c0,0.475-0.184,0.849-0.553,1.12
				c-0.369,0.272-0.861,0.408-1.479,0.408L65.627,89.747L65.627,89.747z M66.25,86.644h1.655c0.39,0,0.701-0.087,0.937-0.261
				c0.234-0.173,0.352-0.42,0.352-0.739v-0.017c0-0.282-0.106-0.505-0.323-0.668c-0.216-0.162-0.521-0.244-0.914-0.244H66.25V86.644
				z M66.25,89.179h1.881c0.426,0,0.762-0.089,1.008-0.268c0.244-0.179,0.367-0.423,0.367-0.732v-0.016
				c0-0.31-0.127-0.547-0.379-0.712c-0.254-0.165-0.625-0.248-1.109-0.248H66.25V89.179z"/>
			<path fill="#E6E7E8" d="M72.682,89.819c-0.356,0-0.641-0.095-0.852-0.284s-0.316-0.484-0.316-0.884v-2.496h-0.576v-0.544h0.576
				v-1.248h0.615v1.248h1.312v0.544h-1.312v2.416c0,0.459,0.231,0.688,0.697,0.688c0.202,0,0.401-0.048,0.6-0.145v0.528
				C73.201,89.761,72.953,89.819,72.682,89.819z"/>
			<path fill="#E6E7E8" d="M74.529,89.747v-4.136h0.617v0.72c0.324-0.539,0.797-0.808,1.414-0.808c0.492,0,0.879,0.15,1.16,0.451
				c0.285,0.302,0.426,0.703,0.426,1.204v2.568h-0.617V87.33c0-0.39-0.1-0.694-0.301-0.916c-0.199-0.222-0.479-0.332-0.844-0.332
				c-0.355,0-0.652,0.12-0.887,0.36c-0.234,0.239-0.353,0.552-0.353,0.936v2.368L74.529,89.747L74.529,89.747z"/>
			<path fill="#E6E7E8" d="M84.057,89.835c-0.647,0-1.178-0.293-1.582-0.88v0.792h-0.617v-5.84h0.617v2.536
				c0.414-0.613,0.943-0.92,1.582-0.92c0.529,0,0.99,0.194,1.387,0.584c0.396,0.389,0.591,0.909,0.591,1.56v0.016
				c0,0.646-0.195,1.166-0.591,1.561C85.047,89.638,84.586,89.835,84.057,89.835z M83.947,89.283c0.414,0,0.763-0.145,1.039-0.433
				c0.277-0.287,0.416-0.674,0.416-1.159v-0.017c0-0.475-0.143-0.859-0.424-1.155c-0.283-0.297-0.627-0.444-1.031-0.444
				c-0.401,0-0.75,0.15-1.051,0.452c-0.297,0.301-0.444,0.681-0.444,1.14v0.016c0,0.465,0.147,0.848,0.444,1.148
				C83.197,89.133,83.545,89.283,83.947,89.283z"/>
			<path fill="#E6E7E8" d="M88.4,89.835c-0.414,0-0.776-0.114-1.082-0.344c-0.309-0.229-0.461-0.544-0.461-0.944v-0.016
				c0-0.433,0.16-0.766,0.48-1c0.32-0.234,0.75-0.353,1.287-0.353c0.428,0,0.85,0.06,1.264,0.177v-0.128
				c0-0.363-0.104-0.641-0.32-0.832c-0.211-0.192-0.514-0.288-0.901-0.288c-0.406,0-0.824,0.099-1.258,0.296l-0.185-0.504
				c0.512-0.235,1.014-0.353,1.504-0.353c0.588,0,1.033,0.152,1.336,0.456c0.289,0.288,0.435,0.693,0.435,1.216v2.528H89.89V89.13
				C89.521,89.601,89.025,89.835,88.4,89.835z M88.521,89.339c0.383,0,0.709-0.104,0.978-0.312c0.266-0.208,0.397-0.475,0.397-0.8
				v-0.385c-0.403-0.117-0.807-0.176-1.207-0.176c-0.379,0-0.676,0.076-0.887,0.229c-0.215,0.151-0.32,0.353-0.32,0.604v0.016
				c0,0.251,0.099,0.451,0.299,0.601C87.982,89.266,88.229,89.339,88.521,89.339z"/>
			<path fill="#E6E7E8" d="M93.666,89.843c-0.599,0-1.103-0.21-1.508-0.632c-0.41-0.421-0.613-0.925-0.613-1.512v-0.017
				c0-0.592,0.203-1.1,0.613-1.523c0.405-0.424,0.909-0.636,1.508-0.636c0.641,0,1.19,0.245,1.655,0.735l-0.409,0.433
				c-0.396-0.416-0.812-0.624-1.254-0.624c-0.418,0-0.769,0.154-1.054,0.464c-0.285,0.31-0.428,0.688-0.428,1.136v0.016
				c0,0.448,0.145,0.828,0.436,1.141c0.291,0.313,0.652,0.468,1.084,0.468c0.459,0,0.88-0.205,1.265-0.616l0.393,0.368
				C94.873,89.576,94.311,89.843,93.666,89.843z"/>
			<path fill="#E6E7E8" d="M96.369,89.747v-5.84h0.616v4.032l2.23-2.328h0.77l-1.735,1.775l1.791,2.36h-0.734l-1.479-1.928
				l-0.841,0.848v1.08L96.369,89.747L96.369,89.747z"/>
			<path fill="#E6E7E8" d="M102.553,91.043c-0.699,0-1.324-0.192-1.879-0.576l0.279-0.479c0.485,0.352,1.016,0.527,1.592,0.527
				c0.465,0,0.832-0.126,1.102-0.38c0.269-0.253,0.402-0.617,0.402-1.092v-0.488c-0.438,0.582-0.979,0.872-1.625,0.872
				c-0.521,0-0.978-0.18-1.363-0.54c-0.387-0.359-0.578-0.825-0.578-1.396v-0.017c0-0.581,0.193-1.052,0.582-1.411
				c0.392-0.36,0.845-0.54,1.359-0.54c0.664,0,1.201,0.277,1.617,0.832v-0.744h0.617v3.416c0,0.624-0.177,1.111-0.529,1.464
				C103.76,90.859,103.236,91.043,102.553,91.043z M102.545,88.883c0.406,0,0.762-0.132,1.063-0.396
				c0.304-0.265,0.455-0.599,0.455-1.004v-0.017c0-0.41-0.149-0.746-0.451-1.008c-0.303-0.261-0.657-0.392-1.067-0.392
				c-0.398,0-0.738,0.128-1.017,0.384c-0.277,0.256-0.416,0.592-0.416,1.008v0.016c0,0.406,0.14,0.742,0.421,1.009
				C101.814,88.75,102.15,88.883,102.545,88.883z"/>
			<path fill="#E6E7E8" d="M106.033,89.747v-4.136h0.614v1.08c0.16-0.357,0.388-0.643,0.683-0.856
				c0.293-0.213,0.629-0.312,1.008-0.296v0.664h-0.049c-0.476,0-0.867,0.165-1.179,0.496c-0.309,0.331-0.463,0.797-0.463,1.399
				v1.648L106.033,89.747L106.033,89.747z"/>
			<path fill="#E6E7E8" d="M109.273,89.747v-4.136h0.615v0.72c0.324-0.539,0.797-0.808,1.416-0.808c0.49,0,0.877,0.15,1.16,0.451
				c0.283,0.302,0.424,0.703,0.424,1.204v2.568h-0.615V87.33c0-0.39-0.1-0.694-0.301-0.916c-0.199-0.222-0.481-0.332-0.844-0.332
				c-0.357,0-0.654,0.12-0.89,0.36c-0.233,0.239-0.352,0.552-0.352,0.936v2.368L109.273,89.747L109.273,89.747z"/>
			<path fill="#E6E7E8" d="M115.936,89.835c-0.526,0-0.988-0.194-1.383-0.584c-0.395-0.389-0.592-0.909-0.592-1.56v-0.017
				c0-0.645,0.197-1.165,0.592-1.56c0.395-0.396,0.855-0.592,1.383-0.592c0.652,0,1.181,0.293,1.586,0.88v-2.496h0.615v5.84h-0.615
				v-0.832C117.104,89.528,116.576,89.835,115.936,89.835z M116.049,89.283c0.397,0,0.75-0.15,1.047-0.452
				c0.301-0.301,0.449-0.684,0.449-1.148v-0.016c0-0.459-0.148-0.839-0.449-1.14c-0.297-0.302-0.648-0.452-1.047-0.452
				c-0.416,0-0.762,0.144-1.039,0.432c-0.277,0.288-0.418,0.675-0.418,1.16v0.016c0,0.476,0.143,0.86,0.426,1.156
				C115.299,89.135,115.643,89.283,116.049,89.283z"/>
		</g>
		<g>
			<path fill="#E6E7E8" d="M65.826,202.18l0.239-1.416h-0.873v-0.552h0.97l0.297-1.696h-0.953v-0.552h1.039l0.242-1.384h0.559
				l-0.229,1.384h1.52l0.238-1.384h0.561l-0.231,1.384h0.864v0.552H69.11l-0.297,1.696h0.943v0.552h-1.033l-0.246,1.416h-0.561
				l0.239-1.416h-1.52l-0.25,1.416H65.826z M66.73,200.212h1.521l0.287-1.696h-1.521L66.73,200.212z"/>
			<path fill="#E6E7E8" d="M71.225,202.18v-5.6h4.049v0.574h-3.416v1.912h3.058v0.576h-3.058v1.961h3.457v0.576H71.225
				L71.225,202.18z"/>
			<path fill="#E6E7E8" d="M78.217,202.275c-0.74,0-1.406-0.297-2-0.892l0.418-0.452c0.527,0.512,1.059,0.768,1.59,0.768
				c0.396,0,0.719-0.117,0.973-0.352c0.255-0.236,0.382-0.531,0.382-0.892v-0.021c0-0.346-0.132-0.629-0.39-0.848
				c-0.258-0.219-0.594-0.328-1.004-0.328c-0.383,0-0.774,0.106-1.176,0.32l-0.424-0.279l0.16-2.729h3.225v0.584h-2.672
				l-0.121,1.791c0.379-0.166,0.746-0.247,1.105-0.247c0.559,0,1.021,0.153,1.387,0.464c0.366,0.311,0.547,0.727,0.547,1.248v0.016
				c0,0.545-0.187,0.987-0.559,1.328C79.283,202.105,78.805,202.275,78.217,202.275z"/>
			<path fill="#E6E7E8" d="M84.713,201.814c-0.398,0.297-0.9,0.441-1.504,0.441c-0.603,0-1.104-0.146-1.504-0.441
				c-0.398-0.295-0.601-0.676-0.601-1.143v-0.016c0-0.32,0.104-0.602,0.312-0.832c0.209-0.235,0.487-0.416,0.842-0.549
				c-0.641-0.293-0.959-0.721-0.959-1.283v-0.02c0-0.422,0.188-0.771,0.562-1.057c0.375-0.283,0.824-0.424,1.349-0.424
				c0.523,0,0.973,0.141,1.348,0.424c0.377,0.281,0.564,0.635,0.564,1.057v0.02c0,0.562-0.318,0.99-0.959,1.283
				c0.352,0.138,0.631,0.316,0.84,0.549c0.207,0.229,0.312,0.504,0.312,0.82v0.02C85.314,201.137,85.113,201.52,84.713,201.814z
				 M82.143,201.402c0.262,0.203,0.619,0.306,1.066,0.306c0.449,0,0.805-0.103,1.067-0.306c0.265-0.201,0.396-0.449,0.396-0.742
				v-0.018c0-0.312-0.141-0.562-0.426-0.767c-0.281-0.196-0.629-0.3-1.039-0.3s-0.758,0.104-1.039,0.3
				c-0.283,0.2-0.426,0.454-0.426,0.767v0.018C81.744,200.953,81.877,201.201,82.143,201.402z M82.299,198.771
				c0.244,0.188,0.547,0.287,0.91,0.287c0.362,0,0.668-0.099,0.912-0.287c0.246-0.191,0.369-0.438,0.369-0.735v-0.017
				c0-0.277-0.123-0.508-0.369-0.691c-0.244-0.186-0.55-0.275-0.912-0.275c-0.367,0-0.672,0.092-0.916,0.275
				c-0.242,0.184-0.363,0.414-0.363,0.691v0.017C81.93,198.334,82.053,198.58,82.299,198.771z"/>
			<path fill="#E6E7E8" d="M86.113,202.18v-0.488l2.033-1.791c0.438-0.389,0.74-0.711,0.91-0.965
				c0.172-0.252,0.258-0.519,0.258-0.795c0-0.32-0.108-0.578-0.328-0.777c-0.219-0.193-0.485-0.295-0.801-0.295
				c-0.305,0-0.572,0.078-0.805,0.231c-0.23,0.154-0.465,0.397-0.699,0.728l-0.465-0.336c0.272-0.401,0.561-0.705,0.863-0.896
				c0.305-0.192,0.688-0.292,1.151-0.292c0.502,0,0.918,0.146,1.246,0.446s0.492,0.679,0.492,1.138v0.02
				c0,0.389-0.105,0.73-0.312,1.035c-0.21,0.303-0.578,0.682-1.105,1.141l-1.496,1.328h2.969v0.576h-3.912L86.113,202.18
				L86.113,202.18z"/>
			<path fill="#E6E7E8" d="M95.09,201.432c-0.438,0.562-1.01,0.844-1.713,0.844s-1.273-0.274-1.707-0.836
				c-0.437-0.557-0.652-1.234-0.652-2.043v-0.017c0-0.806,0.219-1.489,0.66-2.052c0.439-0.562,1.012-0.846,1.715-0.846
				c0.705,0,1.273,0.279,1.705,0.836c0.432,0.559,0.646,1.24,0.646,2.045v0.017C95.744,200.186,95.525,200.869,95.09,201.432z
				 M92.154,201.016c0.32,0.457,0.732,0.688,1.238,0.688c0.508,0,0.918-0.229,1.229-0.68c0.312-0.446,0.469-0.989,0.469-1.627
				v-0.017c0-0.635-0.158-1.181-0.478-1.636c-0.317-0.456-0.729-0.686-1.235-0.686s-0.918,0.225-1.23,0.672
				c-0.315,0.449-0.473,0.992-0.473,1.633v0.017C91.674,200.016,91.834,200.561,92.154,201.016z"/>
			<path fill="#E6E7E8" d="M97.033,202.18v-5.6h2.383c0.637,0,1.125,0.165,1.465,0.496c0.24,0.25,0.359,0.549,0.359,0.896v0.016
				c0,0.607-0.296,1.039-0.888,1.296c0.801,0.239,1.199,0.69,1.199,1.353v0.016c0,0.479-0.184,0.853-0.551,1.121
				c-0.369,0.271-0.863,0.408-1.48,0.408h-2.487V202.18z M97.658,199.076h1.655c0.388,0,0.699-0.088,0.935-0.262
				c0.233-0.172,0.354-0.42,0.354-0.738v-0.018c0-0.281-0.106-0.504-0.324-0.668c-0.217-0.162-0.521-0.244-0.916-0.244H97.66
				L97.658,199.076L97.658,199.076z M97.658,201.611h1.879c0.426,0,0.762-0.09,1.008-0.271c0.246-0.179,0.367-0.423,0.367-0.729
				v-0.016c0-0.312-0.125-0.551-0.379-0.716c-0.255-0.165-0.623-0.248-1.109-0.248h-1.766V201.611z"/>
			<path fill="#E6E7E8" d="M65.627,211.779v-5.6h2.383c0.635,0,1.123,0.161,1.465,0.492c0.238,0.25,0.359,0.553,0.359,0.896v0.018
				c0,0.607-0.297,1.04-0.888,1.296c0.8,0.24,1.199,0.691,1.199,1.354v0.017c0,0.476-0.184,0.851-0.553,1.12
				c-0.369,0.271-0.861,0.406-1.479,0.406H65.627L65.627,211.779z M66.25,208.676h1.655c0.39,0,0.701-0.087,0.937-0.261
				c0.234-0.173,0.352-0.42,0.352-0.739v-0.017c0-0.282-0.106-0.505-0.323-0.668c-0.216-0.162-0.521-0.244-0.914-0.244H66.25
				V208.676z M66.25,211.211h1.881c0.426,0,0.762-0.089,1.008-0.268c0.244-0.18,0.367-0.424,0.367-0.732v-0.016
				c0-0.312-0.127-0.547-0.379-0.713c-0.254-0.164-0.625-0.248-1.109-0.248H66.25V211.211z"/>
			<path fill="#E6E7E8" d="M72.682,211.852c-0.356,0-0.641-0.095-0.852-0.283c-0.211-0.188-0.316-0.481-0.316-0.885v-2.496h-0.576
				v-0.543h0.576v-1.248h0.615v1.248h1.312v0.543h-1.312v2.416c0,0.459,0.231,0.688,0.697,0.688c0.202,0,0.401-0.048,0.6-0.144
				v0.524C73.201,211.793,72.953,211.852,72.682,211.852z"/>
			<path fill="#E6E7E8" d="M74.529,211.779v-4.137h0.617v0.721c0.324-0.539,0.797-0.809,1.414-0.809c0.492,0,0.879,0.147,1.16,0.448
				c0.285,0.306,0.426,0.703,0.426,1.204v2.564h-0.617v-2.416c0-0.389-0.1-0.69-0.301-0.916c-0.199-0.221-0.479-0.332-0.844-0.332
				c-0.355,0-0.652,0.121-0.887,0.361c-0.234,0.238-0.353,0.551-0.353,0.938v2.364h-0.616L74.529,211.779L74.529,211.779z"/>
			<path fill="#E6E7E8" d="M84.057,211.867c-0.647,0-1.178-0.293-1.582-0.881v0.793h-0.617v-5.84h0.617v2.535
				c0.414-0.613,0.943-0.92,1.582-0.92c0.529,0,0.99,0.191,1.387,0.584c0.396,0.389,0.591,0.906,0.591,1.561v0.016
				c0,0.646-0.195,1.166-0.591,1.561C85.047,211.67,84.586,211.867,84.057,211.867z M83.947,211.314
				c0.414,0,0.763-0.146,1.039-0.436c0.277-0.283,0.416-0.674,0.416-1.156v-0.02c0-0.479-0.143-0.855-0.424-1.155
				c-0.283-0.297-0.627-0.44-1.031-0.44c-0.401,0-0.75,0.146-1.051,0.451c-0.297,0.301-0.444,0.682-0.444,1.141v0.016
				c0,0.465,0.147,0.848,0.444,1.148C83.197,211.165,83.545,211.314,83.947,211.314z"/>
			<path fill="#E6E7E8" d="M90.602,211.238c-0.416,0.425-0.932,0.637-1.545,0.637c-0.613,0-1.123-0.209-1.531-0.628
				c-0.407-0.418-0.612-0.925-0.612-1.517v-0.02c0-0.592,0.207-1.104,0.621-1.521c0.413-0.424,0.926-0.637,1.539-0.637
				c0.612,0,1.125,0.209,1.536,0.629c0.412,0.418,0.615,0.924,0.615,1.517v0.016C91.225,210.309,91.018,210.814,90.602,211.238z
				 M89.072,211.322c0.443,0,0.81-0.153,1.095-0.463c0.285-0.312,0.428-0.688,0.428-1.129v-0.02c0-0.443-0.148-0.829-0.443-1.146
				c-0.297-0.312-0.659-0.473-1.094-0.473c-0.438,0-0.797,0.155-1.082,0.469c-0.285,0.312-0.43,0.688-0.43,1.131v0.02
				c0,0.448,0.147,0.828,0.44,1.145C88.279,211.167,88.643,211.322,89.072,211.322z"/>
			<path fill="#E6E7E8" d="M92.338,211.779v-4.137h0.615v1.08c0.159-0.356,0.387-0.646,0.682-0.855
				c0.293-0.213,0.629-0.312,1.008-0.297v0.664h-0.049c-0.475,0-0.867,0.166-1.178,0.496c-0.31,0.332-0.463,0.797-0.463,1.396v1.646
				h-0.615V211.779z"/>
			<path fill="#E6E7E8" d="M97.146,211.867c-0.526,0-0.99-0.194-1.385-0.584c-0.395-0.389-0.592-0.909-0.592-1.561v-0.02
				c0-0.646,0.197-1.165,0.592-1.562c0.395-0.396,0.857-0.592,1.385-0.592c0.648,0,1.179,0.293,1.582,0.879v-2.496h0.617v5.84
				h-0.617v-0.832C98.314,211.561,97.787,211.867,97.146,211.867z M97.258,211.314c0.4,0,0.748-0.149,1.049-0.451
				c0.297-0.301,0.447-0.684,0.447-1.148v-0.016c0-0.459-0.15-0.84-0.447-1.141c-0.301-0.305-0.647-0.451-1.049-0.451
				c-0.416,0-0.764,0.144-1.041,0.432c-0.277,0.288-0.414,0.675-0.414,1.16v0.016c0,0.477,0.141,0.86,0.422,1.156
				C96.51,211.167,96.854,211.314,97.258,211.314z"/>
			<path fill="#E6E7E8" d="M101.088,209.963c0.043,0.422,0.203,0.758,0.477,1.006c0.275,0.246,0.603,0.37,0.98,0.37
				c0.496,0,0.93-0.194,1.305-0.584l0.383,0.345c-0.463,0.521-1.03,0.775-1.703,0.775c-0.582,0-1.069-0.201-1.469-0.604
				c-0.396-0.402-0.596-0.922-0.596-1.561c0-0.604,0.188-1.109,0.568-1.527c0.379-0.42,0.852-0.629,1.416-0.629
				c0.592,0,1.061,0.209,1.407,0.625c0.348,0.414,0.521,0.938,0.521,1.563c0,0.079-0.004,0.149-0.008,0.216L101.088,209.963
				L101.088,209.963z M101.088,209.469h2.664c-0.035-0.4-0.168-0.732-0.396-0.996c-0.227-0.266-0.535-0.396-0.924-0.396
				c-0.354,0-0.654,0.131-0.904,0.394C101.279,208.729,101.131,209.062,101.088,209.469z"/>
			<path fill="#E6E7E8" d="M105.459,211.779v-4.137h0.612v1.08c0.16-0.356,0.388-0.646,0.683-0.855
				c0.293-0.213,0.629-0.312,1.008-0.297v0.664h-0.049c-0.473,0-0.867,0.166-1.176,0.496c-0.31,0.332-0.466,0.797-0.466,1.396v1.646
				h-0.612V211.779L105.459,211.779z"/>
		</g>
		<g>
			<path fill="#E6E7E8" d="M364.992,207.547l0.239-1.416h-0.873v-0.552h0.97l0.297-1.696h-0.953v-0.552h1.039l0.242-1.384h0.559
				l-0.229,1.384h1.521l0.238-1.384h0.562l-0.23,1.384h0.864v0.552h-0.959l-0.297,1.696h0.94v0.552h-1.033l-0.245,1.416h-0.562
				l0.239-1.416h-1.521l-0.25,1.416H364.992z M365.896,205.579h1.521l0.287-1.696h-1.521L365.896,205.579z"/>
			<path fill="#E6E7E8" d="M371.031,207.547v-4.984l-1.058,0.328l-0.148-0.512l1.366-0.472h0.465v5.64H371.031L371.031,207.547z"/>
			<path fill="#E6E7E8" d="M376.488,207.184c-0.399,0.295-0.901,0.443-1.504,0.443c-0.604,0-1.104-0.148-1.504-0.443
				c-0.399-0.297-0.604-0.677-0.604-1.141v-0.016c0-0.32,0.104-0.598,0.312-0.832c0.206-0.235,0.485-0.416,0.84-0.545
				c-0.644-0.293-0.959-0.726-0.959-1.287v-0.018c0-0.424,0.188-0.773,0.562-1.059c0.375-0.283,0.824-0.426,1.351-0.426
				c0.521,0,0.974,0.143,1.349,0.426c0.375,0.279,0.562,0.635,0.562,1.059v0.018c0,0.562-0.314,0.994-0.959,1.287
				c0.354,0.134,0.634,0.312,0.843,0.545c0.209,0.229,0.312,0.504,0.312,0.822v0.018
				C377.088,206.504,376.887,206.887,376.488,207.184z M373.916,206.771c0.264,0.203,0.619,0.305,1.067,0.305
				c0.444,0,0.806-0.102,1.063-0.305c0.269-0.203,0.397-0.451,0.397-0.744v-0.019c0-0.312-0.146-0.562-0.429-0.765
				c-0.277-0.2-0.629-0.303-1.037-0.303c-0.409,0-0.76,0.103-1.038,0.303c-0.284,0.197-0.429,0.453-0.429,0.765v0.019
				C373.52,206.32,373.652,206.568,373.916,206.771z M374.072,204.139c0.244,0.192,0.55,0.289,0.912,0.289
				c0.36,0,0.666-0.097,0.907-0.289c0.246-0.188,0.369-0.438,0.369-0.734v-0.018c0-0.277-0.123-0.508-0.369-0.691
				c-0.241-0.184-0.547-0.272-0.907-0.272c-0.366,0-0.677,0.095-0.918,0.272c-0.242,0.188-0.362,0.414-0.362,0.691v0.018
				C373.703,203.701,373.826,203.947,374.072,204.139z"/>
			<path fill="#E6E7E8" d="M378.936,207.547v-4.984l-1.057,0.328l-0.152-0.512l1.369-0.472h0.463v5.64H378.936L378.936,207.547z"/>
			<path fill="#E6E7E8" d="M384.393,207.184c-0.396,0.295-0.896,0.443-1.506,0.443c-0.602,0-1.102-0.148-1.504-0.443
				c-0.396-0.297-0.598-0.677-0.598-1.141v-0.016c0-0.32,0.102-0.598,0.311-0.832c0.209-0.235,0.488-0.416,0.845-0.545
				c-0.644-0.293-0.964-0.726-0.964-1.287v-0.018c0-0.424,0.188-0.773,0.562-1.059c0.377-0.283,0.826-0.426,1.348-0.426
				c0.523,0,0.976,0.143,1.353,0.426c0.378,0.279,0.562,0.635,0.562,1.059v0.018c0,0.562-0.317,0.994-0.961,1.287
				c0.354,0.134,0.633,0.312,0.84,0.545c0.207,0.229,0.312,0.504,0.312,0.822v0.018
				C384.992,206.504,384.793,206.887,384.393,207.184z M381.82,206.771c0.265,0.203,0.621,0.305,1.063,0.305
				c0.449,0,0.808-0.102,1.07-0.305c0.262-0.203,0.395-0.451,0.395-0.744v-0.019c0-0.312-0.141-0.562-0.424-0.765
				s-0.629-0.303-1.041-0.303c-0.41,0-0.756,0.103-1.039,0.303c-0.278,0.197-0.424,0.453-0.424,0.765v0.019
				C381.424,206.32,381.557,206.568,381.82,206.771z M381.977,204.139c0.246,0.192,0.552,0.289,0.91,0.289
				c0.363,0,0.668-0.097,0.914-0.289c0.246-0.188,0.367-0.438,0.367-0.734v-0.018c0-0.277-0.121-0.508-0.367-0.691
				c-0.246-0.182-0.551-0.272-0.914-0.272c-0.367,0-0.672,0.095-0.914,0.272c-0.239,0.188-0.36,0.414-0.36,0.691v0.018
				C381.609,203.701,381.73,203.947,381.977,204.139z"/>
			<path fill="#E6E7E8" d="M386.84,207.547v-4.984l-1.055,0.328l-0.152-0.512l1.367-0.472h0.465v5.64H386.84L386.84,207.547z"/>
			<path fill="#E6E7E8" d="M392.297,207.184c-0.397,0.295-0.902,0.443-1.504,0.443c-0.604,0-1.105-0.148-1.504-0.443
				c-0.4-0.297-0.604-0.677-0.604-1.141v-0.016c0-0.32,0.105-0.598,0.312-0.832c0.207-0.235,0.487-0.416,0.84-0.545
				c-0.641-0.293-0.959-0.726-0.959-1.287v-0.018c0-0.424,0.188-0.773,0.563-1.059s0.821-0.426,1.349-0.426
				c0.521,0,0.973,0.143,1.348,0.426c0.375,0.279,0.562,0.635,0.562,1.059v0.018c0,0.562-0.318,0.994-0.959,1.287
				c0.354,0.134,0.631,0.312,0.84,0.545c0.209,0.229,0.312,0.504,0.312,0.822v0.018
				C392.896,206.504,392.695,206.887,392.297,207.184z M389.725,206.771c0.267,0.203,0.619,0.305,1.068,0.305
				c0.446,0,0.805-0.102,1.065-0.305c0.267-0.203,0.396-0.451,0.396-0.744v-0.019c0-0.312-0.144-0.562-0.426-0.765
				c-0.281-0.2-0.629-0.303-1.039-0.303s-0.758,0.103-1.039,0.303c-0.285,0.197-0.426,0.453-0.426,0.765v0.019
				C389.328,206.32,389.461,206.568,389.725,206.771z M389.881,204.139c0.244,0.192,0.549,0.289,0.912,0.289
				c0.362,0,0.666-0.097,0.91-0.289c0.246-0.188,0.368-0.438,0.368-0.734v-0.018c0-0.277-0.122-0.508-0.368-0.691
				c-0.244-0.184-0.548-0.272-0.91-0.272c-0.367,0-0.674,0.095-0.918,0.272c-0.242,0.188-0.363,0.414-0.363,0.691v0.018
				C389.512,203.701,389.635,203.947,389.881,204.139z"/>
		</g>
		<g>
			<path fill="#E6E7E8" d="M366.992,115.902l0.239-1.416h-0.873v-0.552h0.97l0.297-1.696h-0.953v-0.552h1.039l0.242-1.384h0.559
				l-0.229,1.384h1.521l0.238-1.384h0.562l-0.23,1.384h0.864v0.552h-0.959l-0.297,1.696h0.94v0.552h-1.033l-0.245,1.416h-0.562
				l0.239-1.416h-1.521l-0.25,1.416H366.992z M367.896,113.935h1.521l0.287-1.696h-1.521L367.896,113.935z"/>
			<path fill="#E6E7E8" d="M375.055,115.902v-1.328h-2.951l-0.157-0.456l3.168-3.855h0.554v3.783h0.871v0.528h-0.871v1.328H375.055
				L375.055,115.902z M372.703,114.046h2.352v-2.888L372.703,114.046z"/>
			<path fill="#E6E7E8" d="M377.768,115.902l2.529-5.024h-3.082v-0.575h3.801v0.472l-2.543,5.128L377.768,115.902L377.768,115.902z"
				/>
			<path fill="#E6E7E8" d="M384.215,115.902v-1.328h-2.951l-0.16-0.456l3.171-3.855h0.554v3.783h0.87v0.528h-0.87v1.328H384.215
				L384.215,115.902z M381.863,114.046h2.353v-2.888L381.863,114.046z"/>
			<path fill="#E6E7E8" d="M386.928,115.902l2.529-5.024h-3.082v-0.575h3.801v0.472l-2.543,5.128L386.928,115.902L386.928,115.902z"
				/>
			<path fill="#E6E7E8" d="M393.375,115.902v-1.328h-2.951l-0.16-0.456l3.168-3.855h0.556v3.783h0.871v0.528h-0.871v1.328H393.375
				L393.375,115.902z M391.023,114.046h2.353v-2.888L391.023,114.046z"/>
			<path fill="#E6E7E8" d="M396.088,115.902l2.529-5.024h-3.082v-0.575h3.801v0.472l-2.543,5.128L396.088,115.902L396.088,115.902z"
				/>
		</g>
		<g>
			<path fill="#E6E7E8" d="M265.492,217.402l0.238-1.416h-0.871v-0.553h0.969l0.295-1.695h-0.951v-0.553h1.041l0.238-1.386h0.561
				l-0.231,1.386h1.521l0.242-1.386h0.559l-0.229,1.386h0.861v0.553h-0.961l-0.297,1.695h0.944v0.553h-1.03l-0.25,1.416h-0.56
				l0.237-1.416H266.3l-0.245,1.416H265.492z M266.396,215.436h1.521l0.289-1.697h-1.521L266.396,215.436z"/>
			<path fill="#E6E7E8" d="M274.123,217.038c-0.398,0.296-0.9,0.444-1.504,0.444s-1.104-0.148-1.506-0.444
				c-0.396-0.296-0.6-0.677-0.6-1.14v-0.02c0-0.316,0.104-0.598,0.312-0.832c0.209-0.232,0.485-0.416,0.842-0.545
				c-0.644-0.293-0.959-0.723-0.959-1.287V213.2c0-0.423,0.188-0.773,0.562-1.058c0.375-0.283,0.824-0.426,1.35-0.426
				c0.521,0,0.973,0.143,1.348,0.426c0.378,0.281,0.562,0.635,0.562,1.058v0.017c0,0.565-0.316,0.994-0.959,1.287
				c0.354,0.135,0.633,0.314,0.842,0.545c0.207,0.229,0.312,0.506,0.312,0.823v0.019
				C274.725,216.359,274.523,216.742,274.123,217.038z M271.553,216.626c0.262,0.203,0.619,0.306,1.066,0.306
				s0.805-0.103,1.066-0.306c0.266-0.202,0.396-0.45,0.396-0.743v-0.017c0-0.31-0.144-0.563-0.429-0.765
				c-0.278-0.199-0.629-0.299-1.036-0.299c-0.41,0-0.761,0.1-1.039,0.299c-0.283,0.201-0.429,0.455-0.429,0.765v0.017
				C271.154,216.176,271.287,216.424,271.553,216.626z M271.709,213.994c0.244,0.191,0.547,0.287,0.91,0.287
				c0.361,0,0.668-0.096,0.91-0.287c0.246-0.191,0.369-0.438,0.369-0.735v-0.017c0-0.277-0.123-0.508-0.369-0.691
				c-0.242-0.185-0.549-0.275-0.91-0.275c-0.367,0-0.674,0.095-0.916,0.275c-0.242,0.184-0.363,0.414-0.363,0.691v0.017
				C271.34,213.557,271.463,213.803,271.709,213.994z"/>
			<path fill="#E6E7E8" d="M278.49,217.498c-0.799,0-1.467-0.277-2.004-0.832c-0.534-0.555-0.803-1.236-0.803-2.048v-0.017
				c0-0.809,0.271-1.488,0.808-2.055c0.538-0.562,1.215-0.845,2.024-0.845c0.476,0,0.881,0.071,1.217,0.228
				c0.336,0.148,0.658,0.367,0.968,0.661l-0.433,0.468c-0.539-0.517-1.125-0.771-1.763-0.771c-0.619,0-1.135,0.225-1.549,0.664
				c-0.414,0.441-0.619,0.984-0.619,1.632v0.019c0,0.648,0.209,1.196,0.623,1.646c0.418,0.444,0.933,0.668,1.545,0.668
				c0.361,0,0.683-0.065,0.959-0.2c0.277-0.133,0.562-0.336,0.851-0.605l0.418,0.408c-0.319,0.323-0.653,0.568-1,0.733
				C279.385,217.416,278.971,217.498,278.49,217.498z"/>
			<path fill="#E6E7E8" d="M285.068,217.038c-0.399,0.296-0.901,0.444-1.504,0.444c-0.604,0-1.104-0.148-1.504-0.444
				c-0.4-0.296-0.604-0.677-0.604-1.14v-0.02c0-0.316,0.104-0.598,0.312-0.832c0.207-0.232,0.487-0.416,0.84-0.545
				c-0.642-0.293-0.959-0.723-0.959-1.287V213.2c0-0.423,0.188-0.773,0.563-1.058c0.375-0.283,0.824-0.426,1.349-0.426
				c0.523,0,0.976,0.143,1.351,0.426c0.375,0.281,0.562,0.635,0.562,1.058v0.017c0,0.565-0.318,0.994-0.959,1.287
				c0.354,0.135,0.631,0.314,0.84,0.545s0.312,0.506,0.312,0.823v0.019C285.668,216.359,285.467,216.742,285.068,217.038z
				 M282.496,216.626c0.264,0.203,0.617,0.306,1.066,0.306c0.445,0,0.807-0.103,1.064-0.306c0.268-0.202,0.396-0.45,0.396-0.743
				v-0.017c0-0.31-0.144-0.563-0.426-0.765c-0.281-0.199-0.63-0.299-1.039-0.299c-0.41,0-0.759,0.1-1.039,0.299
				c-0.285,0.201-0.427,0.455-0.427,0.765v0.017C282.1,216.176,282.232,216.424,282.496,216.626z M282.652,213.994
				c0.244,0.191,0.55,0.287,0.912,0.287c0.36,0,0.666-0.096,0.91-0.287c0.246-0.191,0.366-0.438,0.366-0.735v-0.017
				c0-0.277-0.12-0.508-0.366-0.691c-0.244-0.185-0.55-0.275-0.91-0.275c-0.367,0-0.674,0.095-0.918,0.275
				c-0.242,0.184-0.362,0.414-0.362,0.691v0.017C282.283,213.557,282.406,213.803,282.652,213.994z"/>
			<path fill="#E6E7E8" d="M289.436,217.498c-0.801,0-1.469-0.277-2.004-0.832s-0.805-1.236-0.805-2.048v-0.017
				c0-0.809,0.27-1.488,0.809-2.055s1.215-0.845,2.023-0.845c0.477,0,0.881,0.071,1.217,0.228c0.336,0.148,0.658,0.367,0.967,0.661
				l-0.43,0.468c-0.539-0.517-1.125-0.771-1.762-0.771c-0.617,0-1.135,0.225-1.549,0.664c-0.412,0.441-0.619,0.984-0.619,1.632
				v0.019c0,0.648,0.209,1.196,0.625,1.646c0.416,0.444,0.93,0.668,1.543,0.668c0.361,0,0.684-0.065,0.961-0.2
				c0.275-0.133,0.559-0.336,0.848-0.605l0.416,0.408c-0.318,0.323-0.654,0.568-1,0.733S289.916,217.498,289.436,217.498z"/>
			<path fill="#E6E7E8" d="M296.014,217.038c-0.402,0.296-0.902,0.444-1.506,0.444s-1.104-0.148-1.504-0.444
				s-0.602-0.677-0.602-1.14v-0.02c0-0.316,0.104-0.598,0.312-0.832c0.207-0.232,0.488-0.416,0.841-0.545
				c-0.642-0.293-0.962-0.723-0.962-1.287V213.2c0-0.423,0.188-0.773,0.564-1.058c0.377-0.283,0.823-0.426,1.348-0.426
				s0.974,0.143,1.351,0.426c0.375,0.281,0.562,0.635,0.562,1.058v0.017c0,0.565-0.318,0.994-0.961,1.287
				c0.354,0.135,0.633,0.314,0.84,0.545c0.209,0.229,0.312,0.506,0.312,0.823v0.019
				C296.611,216.359,296.412,216.742,296.014,217.038z M293.439,216.626c0.267,0.203,0.621,0.306,1.065,0.306
				c0.447,0,0.808-0.103,1.068-0.306c0.264-0.202,0.396-0.45,0.396-0.743v-0.017c0-0.31-0.143-0.563-0.424-0.765
				c-0.281-0.199-0.629-0.299-1.041-0.299c-0.41,0-0.756,0.1-1.039,0.299c-0.281,0.201-0.424,0.455-0.424,0.765v0.017
				C293.045,216.176,293.178,216.424,293.439,216.626z M293.596,213.994c0.246,0.191,0.551,0.287,0.912,0.287
				c0.363,0,0.666-0.096,0.912-0.287s0.367-0.438,0.367-0.735v-0.017c0-0.277-0.121-0.508-0.367-0.691
				c-0.246-0.185-0.549-0.275-0.912-0.275c-0.367,0-0.674,0.095-0.916,0.275c-0.242,0.184-0.363,0.414-0.363,0.691v0.017
				C293.229,213.557,293.35,213.803,293.596,213.994z"/>
			<path fill="#E6E7E8" d="M300.381,217.498c-0.801,0-1.469-0.277-2.004-0.832c-0.537-0.555-0.807-1.236-0.807-2.048v-0.017
				c0-0.809,0.271-1.488,0.811-2.055s1.213-0.845,2.021-0.845c0.477,0,0.881,0.071,1.217,0.228c0.336,0.148,0.658,0.367,0.969,0.661
				l-0.434,0.468c-0.537-0.517-1.125-0.771-1.76-0.771c-0.619,0-1.137,0.225-1.547,0.664c-0.414,0.441-0.621,0.984-0.621,1.632
				v0.019c0,0.648,0.207,1.196,0.625,1.646c0.414,0.444,0.932,0.668,1.543,0.668c0.361,0,0.686-0.065,0.961-0.2
				c0.275-0.133,0.561-0.336,0.85-0.605l0.414,0.408c-0.318,0.323-0.652,0.568-1,0.733
				C301.273,217.416,300.861,217.498,300.381,217.498z"/>
		</g>
		<g>
			<path fill="#E6E7E8" d="M364.992,68.047l0.239-1.416h-0.873v-0.552h0.97l0.297-1.696h-0.953v-0.552h1.039l0.242-1.384h0.559
				l-0.229,1.384h1.521l0.238-1.384h0.562l-0.23,1.384h0.864v0.552h-0.959l-0.297,1.696h0.94v0.552h-1.033l-0.245,1.416h-0.562
				l0.239-1.416h-1.521l-0.25,1.416H364.992z M365.896,66.079h1.521l0.287-1.696h-1.521L365.896,66.079z"/>
			<path fill="#E6E7E8" d="M372.023,68.143c-0.742,0-1.407-0.296-2-0.888l0.416-0.456c0.526,0.512,1.06,0.768,1.592,0.768
				c0.396,0,0.72-0.117,0.974-0.352c0.254-0.235,0.379-0.53,0.379-0.888V66.31c0-0.347-0.129-0.629-0.387-0.848
				c-0.259-0.219-0.595-0.328-1.004-0.328c-0.386,0-0.777,0.106-1.177,0.32l-0.429-0.28l0.16-2.728h3.228v0.584h-2.673l-0.118,1.792
				c0.379-0.166,0.746-0.248,1.104-0.248c0.562,0,1.021,0.154,1.389,0.464c0.363,0.31,0.55,0.726,0.55,1.248v0.016
				c0,0.544-0.188,0.987-0.562,1.328C373.09,67.973,372.609,68.143,372.023,68.143z"/>
			<path fill="#E6E7E8" d="M375.352,68.047l2.527-5.024h-3.078v-0.575h3.799v0.472l-2.545,5.128L375.352,68.047L375.352,68.047z"/>
			<path fill="#E6E7E8" d="M381.248,68.143c-0.74,0-1.408-0.296-2-0.888l0.416-0.456c0.526,0.512,1.059,0.768,1.592,0.768
				c0.396,0,0.719-0.117,0.973-0.352c0.255-0.234,0.384-0.53,0.384-0.888V66.31c0-0.347-0.134-0.629-0.392-0.848
				c-0.26-0.219-0.594-0.328-1.006-0.328c-0.383,0-0.771,0.106-1.176,0.32l-0.422-0.28l0.159-2.728H383v0.584h-2.672l-0.121,1.792
				c0.379-0.166,0.748-0.248,1.104-0.248c0.562,0,1.023,0.154,1.391,0.464s0.549,0.726,0.549,1.248v0.016
				c0,0.544-0.188,0.987-0.562,1.328C382.314,67.973,381.836,68.143,381.248,68.143z"/>
			<path fill="#E6E7E8" d="M384.576,68.047l2.525-5.024h-3.079v-0.575h3.801v0.472l-2.543,5.128L384.576,68.047L384.576,68.047z"/>
			<path fill="#E6E7E8" d="M390.473,68.143c-0.739,0-1.41-0.296-2-0.888l0.414-0.456c0.529,0.512,1.062,0.768,1.597,0.768
				c0.396,0,0.72-0.117,0.974-0.352c0.252-0.234,0.379-0.53,0.379-0.888V66.31c0-0.347-0.129-0.629-0.388-0.848
				c-0.263-0.219-0.597-0.328-1.006-0.328c-0.388,0-0.774,0.106-1.179,0.32l-0.424-0.28l0.16-2.728h3.223v0.584h-2.672l-0.119,1.792
				c0.379-0.166,0.748-0.248,1.104-0.248c0.561,0,1.021,0.154,1.389,0.464s0.549,0.726,0.549,1.248v0.016
				c0,0.544-0.188,0.987-0.561,1.328C391.539,67.973,391.059,68.143,390.473,68.143z"/>
			<path fill="#E6E7E8" d="M393.801,68.047l2.527-5.024h-3.08v-0.575h3.799v0.472l-2.543,5.128L393.801,68.047L393.801,68.047z"/>
		</g>
		<g>
			<path fill="#414042" d="M265.492,145.48l0.238-1.416h-0.871v-0.551h0.969l0.295-1.697h-0.951v-0.551h1.041l0.238-1.388h0.561
				l-0.231,1.388h1.521l0.242-1.388h0.559l-0.229,1.388h0.861v0.551h-0.961l-0.297,1.697h0.944v0.551h-1.03l-0.25,1.416h-0.56
				l0.237-1.416H266.3l-0.245,1.416H265.492z M266.396,143.514h1.521l0.289-1.695h-1.521L266.396,143.514z"/>
			<path fill="#414042" d="M273.451,145.577c-0.803,0-1.471-0.277-2.006-0.832c-0.533-0.556-0.805-1.237-0.805-2.048v-0.016
				c0-0.81,0.271-1.49,0.811-2.056s1.215-0.845,2.021-0.845c0.479,0,0.881,0.072,1.217,0.225s0.658,0.37,0.969,0.664l-0.432,0.464
				c-0.539-0.513-1.125-0.769-1.763-0.769c-0.616,0-1.133,0.222-1.547,0.66c-0.414,0.443-0.621,0.988-0.621,1.636v0.021
				c0,0.646,0.209,1.194,0.625,1.644c0.416,0.446,0.931,0.668,1.543,0.668c0.363,0,0.685-0.065,0.961-0.2
				c0.277-0.133,0.56-0.336,0.849-0.607l0.416,0.408c-0.316,0.325-0.652,0.57-1,0.735
				C274.346,145.495,273.932,145.577,273.451,145.577z"/>
			<path fill="#414042" d="M279.195,145.577c-0.799,0-1.467-0.277-2.004-0.832c-0.537-0.556-0.803-1.237-0.803-2.048v-0.016
				c0-0.81,0.271-1.49,0.807-2.056c0.539-0.562,1.214-0.845,2.025-0.845c0.473,0,0.879,0.072,1.215,0.225s0.66,0.37,0.969,0.664
				l-0.434,0.464c-0.539-0.513-1.125-0.769-1.761-0.769c-0.621,0-1.137,0.222-1.549,0.66c-0.414,0.443-0.619,0.988-0.619,1.636
				v0.021c0,0.646,0.207,1.194,0.623,1.644c0.416,0.446,0.933,0.668,1.545,0.668c0.358,0,0.685-0.065,0.959-0.2
				c0.274-0.133,0.562-0.336,0.851-0.607l0.416,0.408c-0.32,0.325-0.651,0.57-1,0.735
				C280.088,145.495,279.676,145.577,279.195,145.577z"/>
			<path fill="#414042" d="M284.939,145.577c-0.801,0-1.469-0.277-2.004-0.832c-0.535-0.556-0.808-1.237-0.808-2.048v-0.016
				c0-0.81,0.271-1.49,0.812-2.056c0.539-0.565,1.215-0.845,2.021-0.845c0.479,0,0.881,0.072,1.22,0.225
				c0.336,0.15,0.655,0.37,0.967,0.664l-0.433,0.464c-0.538-0.513-1.125-0.769-1.762-0.769c-0.617,0-1.136,0.222-1.548,0.66
				c-0.413,0.443-0.62,0.988-0.62,1.636v0.021c0,0.646,0.209,1.194,0.625,1.644c0.416,0.446,0.93,0.668,1.543,0.668
				c0.36,0,0.687-0.065,0.961-0.2c0.274-0.133,0.562-0.336,0.851-0.607l0.416,0.408c-0.318,0.325-0.654,0.57-1,0.735
				C285.834,145.495,285.42,145.577,284.939,145.577z"/>
		</g>
		<g>
			<path fill="#414042" d="M265.492,104.847l0.238-1.416h-0.871v-0.552h0.969l0.295-1.696h-0.951v-0.552h1.041l0.238-1.384h0.561
				l-0.231,1.384h1.521l0.242-1.384h0.559l-0.229,1.384h0.861v0.552h-0.961l-0.297,1.696h0.944v0.552h-1.03l-0.25,1.416h-0.56
				l0.237-1.416H266.3l-0.245,1.416H265.492z M266.396,102.879h1.521l0.289-1.696h-1.521L266.396,102.879z"/>
			<path fill="#414042" d="M270.893,104.847v-5.6h4.047v0.575h-3.416v1.912h3.06v0.576h-3.06v1.96h3.455v0.576L270.893,104.847
				L270.893,104.847z"/>
			<path fill="#414042" d="M278.123,104.942c-0.604,0-1.096-0.188-1.473-0.567c-0.238-0.24-0.418-0.525-0.531-0.856
				c-0.113-0.33-0.174-0.768-0.174-1.312v-0.017c0-0.874,0.213-1.6,0.631-2.176c0.418-0.576,0.982-0.864,1.697-0.864
				c0.582,0,1.135,0.214,1.656,0.641l-0.367,0.487c-0.438-0.367-0.877-0.552-1.317-0.552c-0.502,0-0.902,0.229-1.199,0.688
				c-0.301,0.458-0.444,1.053-0.44,1.783c0.393-0.57,0.922-0.855,1.595-0.855c0.536,0,0.995,0.158,1.368,0.476
				c0.375,0.318,0.562,0.732,0.562,1.244v0.017c0,0.538-0.191,0.983-0.574,1.336C279.172,104.767,278.693,104.942,278.123,104.942z
				 M278.131,104.383c0.406,0,0.732-0.123,0.979-0.368c0.25-0.245,0.373-0.549,0.373-0.912v-0.016c0-0.347-0.127-0.634-0.385-0.86
				c-0.256-0.227-0.584-0.34-0.982-0.34c-0.403,0-0.737,0.123-1.006,0.368c-0.264,0.245-0.395,0.53-0.395,0.855v0.017
				c0,0.357,0.133,0.655,0.396,0.896C277.383,104.263,277.721,104.383,278.131,104.383z"/>
			<path fill="#414042" d="M281.428,104.847v-5.6h4.047v0.575h-3.414v1.912h3.059v0.576h-3.059v1.96h3.455v0.576L281.428,104.847
				L281.428,104.847z"/>
			<path fill="#414042" d="M288.66,104.942c-0.604,0-1.096-0.188-1.473-0.567c-0.242-0.24-0.418-0.525-0.533-0.856
				c-0.113-0.33-0.172-0.768-0.172-1.312v-0.017c0-0.874,0.209-1.6,0.627-2.176c0.418-0.576,0.986-0.864,1.701-0.864
				c0.58,0,1.133,0.214,1.652,0.641l-0.365,0.487c-0.438-0.367-0.879-0.552-1.32-0.552c-0.5,0-0.898,0.229-1.197,0.688
				c-0.301,0.458-0.445,1.053-0.441,1.783c0.392-0.57,0.922-0.855,1.594-0.855c0.539,0,0.996,0.158,1.371,0.476
				c0.377,0.317,0.564,0.732,0.564,1.244v0.017c0,0.538-0.191,0.983-0.576,1.336C289.709,104.767,289.23,104.942,288.66,104.942z
				 M288.668,104.383c0.402,0,0.73-0.123,0.979-0.368c0.248-0.245,0.373-0.549,0.373-0.912v-0.016c0-0.347-0.129-0.634-0.387-0.86
				c-0.254-0.227-0.582-0.34-0.982-0.34s-0.736,0.123-1.004,0.368c-0.264,0.245-0.396,0.53-0.396,0.855v0.017
				c0,0.357,0.133,0.655,0.399,0.896C287.919,104.264,288.258,104.383,288.668,104.383z"/>
			<path fill="#414042" d="M291.963,104.847v-5.6h4.049v0.575h-3.416v1.912h3.057v0.576h-3.057v1.96h3.457v0.576L291.963,104.847
				L291.963,104.847z"/>
			<path fill="#414042" d="M299.197,104.942c-0.604,0-1.094-0.188-1.473-0.567c-0.24-0.24-0.418-0.525-0.531-0.856
				c-0.116-0.33-0.172-0.768-0.172-1.312v-0.017c0-0.874,0.207-1.6,0.627-2.176c0.418-0.576,0.983-0.864,1.701-0.864
				c0.58,0,1.133,0.214,1.651,0.641l-0.369,0.487c-0.438-0.367-0.875-0.552-1.315-0.552c-0.502,0-0.899,0.229-1.2,0.688
				c-0.298,0.458-0.445,1.053-0.438,1.783c0.389-0.57,0.92-0.855,1.592-0.855c0.539,0,0.996,0.158,1.373,0.476
				s0.563,0.732,0.563,1.244v0.017c0,0.538-0.19,0.983-0.578,1.336C300.244,104.767,299.768,104.942,299.197,104.942z
				 M299.205,104.383c0.402,0,0.729-0.123,0.979-0.368c0.246-0.245,0.371-0.549,0.371-0.912v-0.016c0-0.347-0.129-0.634-0.385-0.86
				s-0.584-0.34-0.982-0.34c-0.402,0-0.742,0.123-1.004,0.368c-0.266,0.245-0.396,0.53-0.396,0.855v0.017
				c0,0.357,0.135,0.655,0.399,0.896C298.455,104.263,298.795,104.383,299.205,104.383z"/>
		</g>
	</g>
</g>
<g id="guides">
</g>
</svg>
