<?xml version="1.0" encoding="utf-8"?>
<!-- Generator: Adobe Illustrator 16.0.4, SVG Export Plug-In . SVG Version: 6.00 Build 0)  -->
<!DOCTYPE svg PUBLIC "-//W3C//DTD SVG 1.1//EN" "http://www.w3.org/Graphics/SVG/1.1/DTD/svg11.dtd">
<svg version="1.1" id="Layer_2" xmlns="http://www.w3.org/2000/svg" xmlns:xlink="http://www.w3.org/1999/xlink" x="0px" y="0px"
	 width="146.891px" height="110.168px" viewBox="0 0 146.891 110.168" enable-background="new 0 0 146.891 110.168"
	 xml:space="preserve">
<path fill="#C1C1C1" d="M81.324-21.751c-0.339-0.034-0.674-0.062-1.016-0.094c-21.573-1.962-43.815,5.247-60.3,21.731
	C3.556,16.343-3.655,38.557-1.719,60.103c0.033,0.361,0.063,0.732,0.099,1.096c0.353,1.248,1.496,2.168,2.86,2.168
	c0.783,0,1.495-0.307,2.027-0.804l0.151-0.154l9.639-9.643l0.262-0.261c0.677-0.735,1.103-1.691,1.168-2.748
	c0.01-0.123,0.01-0.246,0.026-0.361c0.901-13.815,6.583-27.365,17.115-37.901C42.107,1.021,55.566-4.659,69.304-5.607
	c0.405-0.03,0.811-0.045,1.213-0.062c0.748-0.16,1.406-0.513,1.966-0.986l0.521-0.521l9.301-9.3l0.654-0.655
	c0.354-0.497,0.577-1.096,0.577-1.756C83.536-20.265,82.598-21.414,81.324-21.751z"/>
<path fill="#C1C1C1" d="M148.509,45.431c0.034,0.341,0.063,0.67,0.094,1.02c1.962,21.566-5.248,43.814-21.73,60.294
	c-16.453,16.454-38.671,23.672-60.215,21.732c-0.366-0.03-0.734-0.059-1.098-0.098c-1.253-0.351-2.169-1.495-2.169-2.857
	c0-0.789,0.305-1.496,0.8-2.029l0.151-0.152l9.651-9.643l0.259-0.254c0.734-0.684,1.68-1.11,2.746-1.174
	c0.121-0.008,0.243-0.008,0.364-0.019c13.812-0.907,27.368-6.589,37.896-17.121c10.48-10.482,16.161-23.935,17.107-37.672
	c0.025-0.403,0.049-0.813,0.065-1.221c0.153-0.749,0.507-1.403,0.981-1.965l0.517-0.516l9.304-9.307l0.655-0.656
	c0.493-0.361,1.092-0.583,1.757-0.583C147.016,43.215,148.162,44.161,148.509,45.431z"/>
<path fill="#C1C1C1" d="M116.556-8.698c-0.215-0.139-0.426-0.29-0.644-0.433c-2.849-1.943-5.796-3.658-8.836-5.165
	c-0.426-0.214-1.396-0.643-1.888-0.692c-0.615-0.062-1.121,0.115-1.667,0.508L74.151,14.896L39.608,16.27l-0.846,0.036
	c-1.189,0.236-2.121,1.18-2.34,2.383l-0.03,0.777l-1.374,34.56L6.498,82.548l-0.85,0.852c-0.312,0.464-0.493,1.031-0.493,1.651
	c0,0.282,0.053,0.543,0.126,0.804c0.151,0.325,0.305,0.643,0.464,0.963c1.505,3.041,3.221,6.005,5.156,8.863
	c0.209,0.319,0.429,0.627,0.652,0.946c0.542,0.521,1.272,0.846,2.085,0.846c0.682,0,1.307-0.234,1.81-0.624l0.554-0.547
	L51.45,60.845l1.498-28.012l28.015-1.498L116.645-4.35l0.047-0.043c0.53-0.538,0.854-1.274,0.854-2.09
	C117.539-7.367,117.158-8.146,116.556-8.698z"/>
<path fill="#C1C1C1" d="M135.436,10.178c0.146,0.213,0.296,0.425,0.439,0.637c1.932,2.854,3.651,5.801,5.163,8.839
	c0.214,0.425,0.642,1.389,0.687,1.878c0.062,0.625-0.115,1.125-0.512,1.675l-29.372,29.369l-1.371,34.542l-0.034,0.851
	c-0.237,1.192-1.188,2.124-2.38,2.338l-0.781,0.031l-34.565,1.374l-28.52,28.529l-0.846,0.846c-0.473,0.31-1.036,0.498-1.645,0.498
	c-0.283,0-0.552-0.056-0.814-0.132c-0.315-0.147-0.638-0.305-0.95-0.453c-3.05-1.509-6.006-3.224-8.862-5.163
	c-0.322-0.214-0.629-0.433-0.948-0.655c-0.52-0.539-0.853-1.274-0.853-2.083c0-0.684,0.24-1.303,0.629-1.819l0.55-0.538
	l35.451-35.45l28.01-1.497l1.498-28.013l35.683-35.683l0.051-0.051c0.534-0.519,1.27-0.854,2.083-0.854
	C134.107,9.188,134.885,9.576,135.436,10.178z"/>
</svg>
