<?xml version="1.0" encoding="utf-8"?>
<!-- Generator: Adobe Illustrator 16.0.4, SVG Export Plug-In . SVG Version: 6.00 Build 0)  -->
<!DOCTYPE svg PUBLIC "-//W3C//DTD SVG 1.1//EN" "http://www.w3.org/Graphics/SVG/1.1/DTD/svg11.dtd">
<svg version="1.1" id="Sept2016" xmlns="http://www.w3.org/2000/svg" xmlns:xlink="http://www.w3.org/1999/xlink" x="0px" y="0px"
	 width="900px" height="600px" viewBox="0 0 900 600" enable-background="new 0 0 900 600" xml:space="preserve">
<g>
	<g>
		<g>
			<path fill="#EEEDED" d="M340.099,334.097v-66.475h49.476v10.636h-37.792v18.137h33.522v10.642h-33.522v27.062h-11.684V334.097z"
				/>
			<path fill="#EEEDED" d="M423.253,334.097v-50.14h11.49v11.296c3.543-8.543,9.461-12.627,17.757-12.246v12.163h-0.666
				c-5.192,0-9.341,1.688-12.442,5.073c-3.1,3.387-4.648,8.312-4.648,14.761v19.095h-11.489L423.253,334.097L423.253,334.097z"/>
			<path fill="#EEEDED" d="M482.232,335.231c-7.348,0-13.477-2.424-18.382-7.258c-4.906-4.85-7.353-11.1-7.353-18.758v-0.182
				c0-7.293,2.303-13.456,6.93-18.522c4.625-5.066,10.474-7.602,17.57-7.602c7.592,0,13.49,2.577,17.71,7.741
				c4.208,5.16,6.31,11.571,6.31,19.229c0,0.642-0.062,1.709-0.186,3.238H467.99c0.629,3.98,2.246,7.106,4.838,9.348
				c2.599,2.252,5.793,3.371,9.592,3.371c4.938,0,9.465-2.002,13.58-5.982l6.746,5.982
				C497.545,332.104,490.715,335.231,482.232,335.231z M467.893,305.515h25.741c-0.384-3.863-1.685-7.024-3.897-9.497
				c-2.219-2.47-5.162-3.71-8.832-3.71c-3.482,0-6.398,1.226-8.734,3.653C469.816,298.413,468.398,301.588,467.893,305.515z"/>
			<path fill="#EEEDED" d="M518.299,334.097v-66.475h24.786c10.32,0,18.786,3.153,25.399,9.453c6.615,6.299,9.92,14.167,9.92,23.6
				v0.18c0,9.502-3.305,17.413-9.92,23.75c-6.613,6.325-15.079,9.492-25.399,9.492H518.299L518.299,334.097z M529.975,323.463h13.11
				c6.899,0,12.467-2.091,16.708-6.263c4.243-4.184,6.365-9.566,6.365-16.148v-0.195c0-6.583-2.122-11.993-6.365-16.237
				c-4.241-4.245-9.812-6.361-16.708-6.361h-13.11V323.463z"/>
			<path fill="#EEEDED" d="M587.625,334.097v-50.14h11.485v11.296c3.553-8.543,9.468-12.627,17.765-12.246v12.163h-0.665
				c-5.19,0-9.341,1.688-12.438,5.073c-3.1,3.387-4.653,8.312-4.653,14.761v19.095h-11.491L587.625,334.097L587.625,334.097z"/>
			<path fill="#EEEDED" d="M649.139,334.097v-69.326h11.49v69.324h-11.49V334.097z"/>
			<path fill="#EEEDED" d="M675.463,334.097v-69.326h11.488v69.324h-11.488V334.097z"/>
			<path fill="#EEEDED" d="M398.194,334.097v-50.14h11.489v50.139L398.194,334.097L398.194,334.097z M403.938,265.981
				c-3.754,0-6.797,3.049-6.797,6.807c0,3.749,3.042,6.798,6.797,6.798c3.764,0,6.797-3.046,6.797-6.798
				C410.733,269.03,407.7,265.981,403.938,265.981z"/>
			<path fill="#EEEDED" d="M624.033,334.097v-50.14h11.49v50.139L624.033,334.097L624.033,334.097z M629.775,265.981
				c-3.76,0-6.801,3.049-6.801,6.807c0,3.749,3.041,6.798,6.801,6.798c3.754,0,6.801-3.046,6.801-6.798
				C636.58,269.03,633.529,265.981,629.775,265.981z"/>
		</g>
	</g>
	<g>
		<path fill="#FF8A00" d="M261.883,240.353c-0.269-0.027-0.535-0.049-0.807-0.074c-17.142-1.559-34.817,4.169-47.916,17.268
			c-13.074,13.077-18.803,30.729-17.265,47.848c0.026,0.287,0.05,0.582,0.078,0.871c0.281,0.992,1.189,1.723,2.273,1.723
			c0.622,0,1.189-0.244,1.612-0.639l0.12-0.123l7.66-7.661l0.208-0.207c0.538-0.585,0.876-1.345,0.928-2.183
			c0.008-0.098,0.008-0.197,0.02-0.289c0.716-10.976,5.232-21.744,13.6-30.116c8.327-8.324,19.02-12.837,29.938-13.59
			c0.323-0.024,0.644-0.036,0.964-0.048c0.594-0.127,1.117-0.409,1.563-0.785l0.414-0.414l7.39-7.389l0.52-0.521
			c0.281-0.394,0.458-0.871,0.458-1.394C263.641,241.534,262.894,240.621,261.883,240.353z"/>
		<path fill="#FF8A00" d="M315.27,293.738c0.027,0.271,0.05,0.532,0.074,0.81c1.559,17.136-4.17,34.816-17.268,47.91
			c-13.074,13.076-30.729,18.81-47.847,17.269c-0.291-0.024-0.583-0.047-0.872-0.077c-0.996-0.279-1.724-1.188-1.724-2.271
			c0-0.627,0.242-1.189,0.636-1.613l0.12-0.12l7.669-7.663l0.205-0.202c0.584-0.543,1.336-0.882,2.183-0.932
			c0.095-0.007,0.194-0.007,0.289-0.015c10.975-0.72,21.748-5.236,30.113-13.604c8.329-8.33,12.843-19.02,13.594-29.935
			c0.02-0.322,0.039-0.647,0.051-0.97c0.123-0.594,0.405-1.115,0.781-1.562l0.411-0.41l7.392-7.394l0.521-0.521
			c0.391-0.287,0.867-0.463,1.394-0.463C314.083,291.977,314.994,292.729,315.27,293.738z"/>
		<path fill="#FF8A00" d="M289.879,250.726c-0.171-0.111-0.339-0.23-0.512-0.343c-2.263-1.544-4.606-2.908-7.02-4.104
			c-0.338-0.17-1.109-0.511-1.501-0.55c-0.488-0.049-0.89,0.092-1.323,0.405l-23.34,23.341l-27.448,1.092l-0.672,0.028
			c-0.946,0.188-1.685,0.938-1.861,1.894l-0.024,0.618l-1.091,27.462l-22.663,22.665l-0.675,0.676
			c-0.248,0.369-0.391,0.82-0.391,1.311c0,0.224,0.042,0.431,0.099,0.639c0.12,0.258,0.242,0.51,0.369,0.764
			c1.197,2.416,2.559,4.771,4.097,7.043c0.166,0.254,0.341,0.498,0.518,0.752c0.429,0.414,1.01,0.672,1.657,0.672
			c0.542,0,1.038-0.186,1.437-0.497l0.441-0.433l28.168-28.175l1.19-22.259l22.261-1.19l28.354-28.357l0.039-0.034
			c0.42-0.428,0.677-1.013,0.677-1.661C290.66,251.783,290.358,251.164,289.879,250.726z"/>
		<path fill="#FF8A00" d="M304.881,265.725c0.116,0.169,0.235,0.338,0.35,0.506c1.535,2.268,2.901,4.611,4.101,7.025
			c0.17,0.337,0.51,1.104,0.546,1.492c0.049,0.497-0.092,0.893-0.407,1.331l-23.34,23.337l-1.089,27.448l-0.028,0.676
			c-0.188,0.947-0.943,1.688-1.891,1.857l-0.62,0.026l-27.467,1.091l-22.663,22.67l-0.672,0.672
			c-0.376,0.246-0.823,0.396-1.306,0.396c-0.225,0-0.44-0.044-0.648-0.105c-0.25-0.116-0.507-0.241-0.755-0.36
			c-2.422-1.199-4.773-2.562-7.042-4.102c-0.254-0.17-0.5-0.344-0.753-0.521c-0.413-0.428-0.677-1.012-0.677-1.656
			c0-0.543,0.191-1.035,0.5-1.445l0.436-0.428l28.17-28.17l22.258-1.189l1.19-22.261l28.355-28.353l0.041-0.041
			c0.424-0.412,1.009-0.678,1.655-0.678C303.825,264.939,304.444,265.247,304.881,265.725z"/>
	</g>
</g>
</svg>
