<?xml version="1.0" encoding="utf-8"?>
<!-- Generator: Adobe Illustrator 16.0.4, SVG Export Plug-In . SVG Version: 6.00 Build 0)  -->
<!DOCTYPE svg PUBLIC "-//W3C//DTD SVG 1.1//EN" "http://www.w3.org/Graphics/SVG/1.1/DTD/svg11.dtd">
<svg version="1.1" id="Layer_1" xmlns="http://www.w3.org/2000/svg" xmlns:xlink="http://www.w3.org/1999/xlink" x="0px" y="0px"
	 width="32px" height="32px" viewBox="0 0 32 32" enable-background="new 0 0 32 32" xml:space="preserve">
<path fill="#5300EB" d="M16.209,3.452c-7.18,0-13,5.82-13,13c0,7.18,5.82,13,13,13c7.18,0,13-5.82,13-13
	C29.209,9.272,23.389,3.452,16.209,3.452z M17.5,24.31h-3.001v-9.6H17.5V24.31z M15.988,12.188c-1.146,0-2.083-0.937-2.083-2.082
	C13.905,8.935,14.842,8,15.988,8c1.169,0,2.107,0.935,2.107,2.107C18.095,11.253,17.157,12.188,15.988,12.188z"/>
</svg>
