<?xml version="1.0" encoding="utf-8"?>
<!-- Generator: Adobe Illustrator 16.0.4, SVG Export Plug-In . SVG Version: 6.00 Build 0)  -->
<!DOCTYPE svg PUBLIC "-//W3C//DTD SVG 1.1//EN" "http://www.w3.org/Graphics/SVG/1.1/DTD/svg11.dtd">
<svg version="1.1" id="skull3" xmlns="http://www.w3.org/2000/svg" xmlns:xlink="http://www.w3.org/1999/xlink" x="0px" y="0px"
	 width="320px" height="240px" viewBox="0 0 320 240" enable-background="new 0 0 320 240" xml:space="preserve">
<g>
	<path fill="#ACF000" d="M158.146,101.027c1.371,0,2.484-1.111,2.484-2.484v-6.307c0-1.373-1.113-2.484-2.484-2.484
		c-1.372,0-2.482,1.112-2.482,2.484v6.307C155.665,99.916,156.775,101.027,158.146,101.027z"/>
	<path fill="#ACF000" d="M136.27,98.543v-6.308c0-1.372-1.112-2.483-2.483-2.483c-1.372,0-2.481,1.111-2.481,2.483v6.308
		c0,1.372,1.11,2.483,2.481,2.483C135.158,101.027,136.27,99.916,136.27,98.543z"/>
	<path fill="#ACF000" d="M133.654,106.329c0,1.225,0.993,2.215,2.214,2.215h19.465c1.223,0,2.212-0.991,2.212-2.215
		c0-1.224-0.99-2.215-2.212-2.215h-19.465C134.647,104.114,133.654,105.105,133.654,106.329z"/>
	<path fill="#ACF000" d="M0,0v240h320V0H0z M149.999,69.912l-0.25,0.075c5.021,3.141,14.075,9.867,17.25,19.172
		c4.824,14.145-5.857,22.424-19.878,33.601c5.179,8.955,12.52,11.559,13.733,23.812c0.81,8.137-5.536,21.973-17.865,27.29
		c3.177,11.838,7.523,16.872-0.859,29.172c-8.386,12.298-22.17,13.765-38.293,8.624c-2.527-10.126-6.85-30.166,26.87-40.969
		c-8.739-11.035-12.893-15.981-13.417-24.256c-0.522-8.277,12.253-19.306,17.411-25.493c-2.848-8.377-8.718-12.415-8.267-22.85
		c0.396-9.187,11.808-20.044,17.754-27.331C143.4,67.572,141.17,56.028,147,45.242c4.296-7.95,11.912-13.576,22.627-16.719
		l1.642,5.598c-9.167,2.688-15.607,7.364-19.139,13.895C146.575,58.294,149.963,69.799,149.999,69.912z"/>
</g>
</svg>
