<?xml version="1.0" encoding="utf-8"?>
<!-- Generator: Adobe Illustrator 16.0.4, SVG Export Plug-In . SVG Version: 6.00 Build 0)  -->
<!DOCTYPE svg PUBLIC "-//W3C//DTD SVG 1.1//EN" "http://www.w3.org/Graphics/SVG/1.1/DTD/svg11.dtd">
<svg version="1.1" id="skull3" xmlns="http://www.w3.org/2000/svg" xmlns:xlink="http://www.w3.org/1999/xlink" x="0px" y="0px"
	 width="320px" height="240px" viewBox="0 0 320 240" enable-background="new 0 0 320 240" xml:space="preserve">
<g>
	<path fill="#00C639" d="M176.637,179.295c-1.255,0-2.265,1.016-2.265,2.266v5.758c0,1.248,1.01,2.264,2.265,2.264
		c1.251,0,2.264-1.016,2.264-2.264v-5.758C178.9,180.311,177.888,179.295,176.637,179.295z"/>
	<path fill="#00C639" d="M174.067,195.339h-25.104c-1.115,0-2.021,0.902-2.021,2.02c0,1.114,0.905,2.019,2.021,2.019h25.104
		c1.116,0,2.021-0.904,2.021-2.019C176.088,196.24,175.184,195.339,174.067,195.339z"/>
	<path fill="#00C639" d="M149.33,187.318v-5.758c0-1.25-1.015-2.266-2.266-2.266c-1.252,0-2.265,1.016-2.265,2.266v5.758
		c0,1.248,1.013,2.264,2.265,2.264C148.315,189.582,149.33,188.566,149.33,187.318z"/>
	<path fill="#00C639" d="M1.299,0l0.217,240h320L321.299,0H1.299z M161.511,209.542c-22.357,0-32.326-6.968-32.326-22.592
		c0-7.616,6.543-15.142,12.317-21.78c3.34-3.841,6.496-7.471,7.761-10.467c3.313-7.846,2.344-17.723,2.335-17.822l-0.085-0.81
		l-0.353-1.943l-0.108-0.626c-0.058-0.342-5.969-34.202-15.707-51.064l-0.408-0.708l13.831-6.125l-1.694-8.958l-5.497-31.982
		l17.27-5.315l0.193,0.743c0.031,0.108,2.86,11.001,5.893,28.098l0.034,0.207l0.606,3.364l16.72,4.114l-0.244,0.751
		c-10.381,31.983-12.558,60.886-12.578,61.175l-1.232,12.75c0.876,3.57,2.408,8.989,4.593,13.574
		c1.249,2.625,4.121,5.943,7.163,9.461c5.973,6.907,12.746,14.737,12.742,22.629C192.735,206.715,177.729,209.542,161.511,209.542z"
		/>
</g>
</svg>
