<?xml version="1.0" encoding="utf-8"?>
<!-- Generator: Adobe Illustrator 16.0.4, SVG Export Plug-In . SVG Version: 6.00 Build 0)  -->
<!DOCTYPE svg PUBLIC "-//W3C//DTD SVG 1.1//EN" "http://www.w3.org/Graphics/SVG/1.1/DTD/svg11.dtd">
<svg version="1.1" id="skull3" xmlns="http://www.w3.org/2000/svg" xmlns:xlink="http://www.w3.org/1999/xlink" x="0px" y="0px"
	 width="320px" height="240px" viewBox="0 0 320 240" enable-background="new 0 0 320 240" xml:space="preserve">
<g>
	<path fill="#FFE407" d="M116.073,103.146c-1.194,0-2.161,0.968-2.161,2.161v8.292c0,1.194,0.969,2.161,2.161,2.161
		c1.193,0,2.161-0.969,2.161-2.161v-8.292C118.234,104.112,117.267,103.146,116.073,103.146z"/>
	<path fill="#FFE407" d="M0,0v240h320V0H0z M198.113,171.171c-0.351,9.635-0.175,16.642-0.175,16.642l-7.883,1.401l-2.628-15.59
		l-16.174,1.051l-2.688,15.824l-8.232,0.759l0.117-14.304c0,0-56.756,10.16-46.771-42.625c-20.32,8.116-11.183-13.415-8.408-15.883
		c-8.583-1.401-16.35-3.27-16.35-3.27l12.671-8.642c0,0,0.759-26.159,9.81-31.882c5.034-3.184,0.437,11.912,1.488,14.89
		c5.168-10.597,9.489-18.277,12.176-17.167s-1.051,15.766-1.051,15.766s10.771-11.737,12.437-9.373s-6.656,18.655-6.656,18.655
		s5.489,24.875-0.816,36.086c28.32-22.072,47.415-26.452,71.586-23.124c14.013-14.189,25.049-21.021,28.904-22.597
		C230.694,109.861,227.892,161.187,198.113,171.171z"/>
</g>
</svg>
