<?xml version="1.0" encoding="utf-8"?>
<!-- Generator: Adobe Illustrator 16.0.4, SVG Export Plug-In . SVG Version: 6.00 Build 0)  -->
<!DOCTYPE svg PUBLIC "-//W3C//DTD SVG 1.1//EN" "http://www.w3.org/Graphics/SVG/1.1/DTD/svg11.dtd">
<svg version="1.1" id="skull3" xmlns="http://www.w3.org/2000/svg" xmlns:xlink="http://www.w3.org/1999/xlink" x="0px" y="0px"
	 width="320px" height="240px" viewBox="0 0 320 240" enable-background="new 0 0 320 240" xml:space="preserve">
<g>
	<path fill="#62D400" d="M139.011,140.334c-1.327,0-2.399,1.076-2.399,2.4v6.098c0,1.326,1.073,2.399,2.399,2.399
		c1.326,0,2.4-1.073,2.4-2.399v-6.098C141.411,141.41,140.337,140.334,139.011,140.334z"/>
	<path fill="#62D400" d="M181.435,140.334c-1.327,0-2.399,1.076-2.399,2.4v6.098c0,1.326,1.072,2.399,2.399,2.399
		c1.326,0,2.399-1.073,2.399-2.399v-6.098C183.834,141.41,182.76,140.334,181.435,140.334z"/>
	<path fill="#62D400" d="M173.979,155.773h-26.599c-1.181,0-2.14,0.959-2.14,2.141s0.959,2.141,2.14,2.141h26.599
		c1.182,0,2.138-0.959,2.138-2.141S175.16,155.773,173.979,155.773z"/>
	<path fill="#62D400" d="M0,0v240h320V0H0z M195.188,174.031c-12.489,0-66.623-0.096-66.623-0.096l-4.246-0.008l3.243-2.738
		c4.615-3.898,3.77-5.254,0.627-10.304c-3.467-5.568-8.706-13.985-8.706-31.319c0-12.993,8.032-21.08,16.535-29.643
		c4.462-4.491,9.167-9.253,13.125-15.089l-1.697-29.126l3.073-0.428c0.015,0.067,0.781,3.45,2.104,7.625l-0.313-16.925l3.112-0.111
		c0.006,0.116,0.489,8.638,2.585,15.601c0.364-2.765,0.567-5.713,0.567-8.868h3.114c0,16.355,9.602,28.202,18.891,39.656
		c9.125,11.257,18.562,22.896,18.562,38.604c0,14.7-3.533,22.788-5.871,28.141c-2.633,6.022-3.338,7.64,2.844,12.224l3.783,2.805
		H195.188z"/>
</g>
</svg>
