<?xml version="1.0" encoding="utf-8"?>
<!-- Generator: Adobe Illustrator 16.0.4, SVG Export Plug-In . SVG Version: 6.00 Build 0)  -->
<!DOCTYPE svg PUBLIC "-//W3C//DTD SVG 1.1//EN" "http://www.w3.org/Graphics/SVG/1.1/DTD/svg11.dtd">
<svg version="1.1" id="skull3" xmlns="http://www.w3.org/2000/svg" xmlns:xlink="http://www.w3.org/1999/xlink" x="0px" y="0px"
	 width="320px" height="240px" viewBox="0 0 320 240" enable-background="new 0 0 320 240" xml:space="preserve">
<g>
	<path fill="#15FFEE" d="M127.485,115.935c-1.63,0-2.95,1.322-2.95,2.95v7.501c0,1.629,1.32,2.95,2.95,2.95s2.952-1.321,2.952-2.95
		v-7.501C130.438,117.257,129.115,115.935,127.485,115.935z"/>
	<path fill="#15FFEE" d="M0,0v240h320V0H0z M231.988,166.432l-4.307,3.829c0,0-6.463-11.009-10.291-20.582
		c-11.728,11.728-20.821,20.821-50.02,20.821c-21.274,0-37.442-11.369-53.548-31.034l5.983-0.661c1.09-0.119,1.879-1.103,1.76-2.197
		c-0.12-1.095-1.105-1.881-2.196-1.763l-8.496,0.936c-1.028-1.321-2.06-2.663-3.093-4.05c11.009-29.676,31.591-61.984,58.395-61.984
		c0.538,0,1.062,0.024,1.589,0.048c5.562-7.348,17.078-14.168,17.078-14.168l3.111,1.197c0,0-3.896,10.268-3.73,17.87
		c12.742,7.507,20.74,21.842,29.099,30.712c8.614-21.061,15.316-32.787,15.316-32.787l3.351,2.393c0,0-4.788,33.506-4.788,47.864
		C227.202,137.234,231.988,166.432,231.988,166.432z"/>
</g>
</svg>
