<?xml version="1.0" encoding="utf-8"?>
<!-- Generator: Adobe Illustrator 16.0.4, SVG Export Plug-In . SVG Version: 6.00 Build 0)  -->
<!DOCTYPE svg PUBLIC "-//W3C//DTD SVG 1.1//EN" "http://www.w3.org/Graphics/SVG/1.1/DTD/svg11.dtd">
<svg version="1.1" id="skull3" xmlns="http://www.w3.org/2000/svg" xmlns:xlink="http://www.w3.org/1999/xlink" x="0px" y="0px"
	 width="320px" height="240px" viewBox="0 0 320 240" enable-background="new 0 0 320 240" xml:space="preserve">
<g>
	<path fill="#FFA394" d="M93.817,91.54c-0.066-0.008-0.153-0.019-0.254-0.028c-0.609-0.061-1.742-0.104-1.861,0.392
		c-0.286,1.184,0.688,3.587,2.602,6.327c0.741-1.338,1.252-2.907,1.249-4.363C95.55,91.769,94.421,91.622,93.817,91.54z"/>
	<path fill="#FFA394" d="M223.199,142.515c-1.069-0.106-2.021,0.682-2.129,1.76l-0.74,7.488c-0.106,1.079,0.675,2.038,1.744,2.144
		c1.071,0.105,2.023-0.681,2.131-1.76l0.74-7.49C225.049,143.58,224.27,142.619,223.199,142.515z"/>
	<path fill="#FFA394" d="M189.05,122.001c-1.164-0.115-2.202,0.734-2.316,1.898l-0.801,8.089c-0.116,1.163,0.735,2.202,1.899,2.317
		c1.165,0.113,2.199-0.738,2.315-1.901l0.8-8.088C191.062,123.153,190.213,122.114,189.05,122.001z"/>
	<path fill="#FFA394" d="M225.642,121.801c-1.165-0.115-2.203,0.734-2.316,1.897l-0.802,8.088c-0.115,1.164,0.735,2.202,1.899,2.316
		c1.164,0.115,2.201-0.735,2.317-1.898l0.799-8.089C227.655,122.951,226.805,121.914,225.642,121.801z"/>
	<path fill="#FFA394" d="M0,0v240h320V0H0z M233.854,158.057c-5.055,2.261-35.044-6.222-34.901-2.988
		c0.14,3.235,1.086,12.3,1.086,12.3l-6.195,2.149c0,0-1.352-7.265-2.382-10.817c-12.161,2.018-15.284,1.019-21.868,0.139
		c-0.485,14.217-1.467,12.508-1.467,12.508l-5.467-0.54c0,0-0.602-7.879-0.676-11.799c-10.134,2.449-36.809,2.345-44.176-4.596
		c3.597,17.152,2.294,14.031,2.294,14.031l-7.292-0.72l-1.725-15.123l-5.992,0.099l-0.598,15.354c0,0,1.254,1.274-5.08,0.189
		c-4.34-19.113-3.659-40.37,6.145-55.15c-4.142-2.033-8.194-5.162-11.4-8.578c-0.875,0.581-1.819,0.973-2.802,1.105
		c-4.885,0.659-7.85-1.073-9.476-2.642c-2.729-2.635-4.068-7.139-3.583-12.051l4.098,0.401c-0.279,2.833,0.189,6.6,2.345,8.679
		c1.414,1.363,3.453,1.874,6.062,1.524c0.213-0.03,0.436-0.103,0.665-0.215c-2.857-3.817-4.439-7.646-3.777-10.387
		c0.308-1.271,1.573-4.166,6.658-3.479c3.326,0.437,5.314,2.831,5.32,6.405c0.004,2.521-1.008,5.451-2.634,7.762
		c2.842,3.107,6.646,6.185,11.002,8.113c9.902-12.052,27.104-18.58,54.416-13.711c3.5-7.477,9.802-13.065,17.068-14.417
		c0.293,9.088-0.362,14.441-0.134,13.447c3.39-0.407,23.4-2.693,31.98,1.261c8.641-12.951,14.769-9.182,14.769-9.182
		s-1.993,10.845-1.807,13.624c12.627,4.929,10.861,34.432,7.427,38.923l10.024,0.99
		C241.785,140.667,238.909,155.796,233.854,158.057z"/>
	<path fill="#FFA394" d="M234.334,153.219c0.881,0.089,1.672-0.619,1.768-1.578l0.657-6.664c0.094-0.959-0.542-1.809-1.423-1.896
		c-0.88-0.087-1.671,0.62-1.767,1.579l-0.657,6.666C232.817,152.283,233.455,153.133,234.334,153.219z"/>
</g>
</svg>
