<?xml version="1.0" encoding="utf-8"?>
<!-- Generator: Adobe Illustrator 16.0.4, SVG Export Plug-In . SVG Version: 6.00 Build 0)  -->
<!DOCTYPE svg PUBLIC "-//W3C//DTD SVG 1.1//EN" "http://www.w3.org/Graphics/SVG/1.1/DTD/svg11.dtd">
<svg version="1.1" id="Layer_1" xmlns="http://www.w3.org/2000/svg" xmlns:xlink="http://www.w3.org/1999/xlink" x="0px" y="0px"
	 width="830px" height="1050px" viewBox="0 0 830 1050" enable-background="new 0 0 830 1050" xml:space="preserve">
<g>
	<path fill="#FFBAD5" d="M359.014,357.348c0-16.77-16.771-18.06-24.511-10.32L178.415,492.797c-15.48,15.48-43.86,5.16-43.86-20.64
		V348.318c0-20.64,2.58-37.41,20.64-56.76l149.639-161.25c11.61-12.9,32.25-30.959,64.5-30.959h143.189
		c14.188,0,25.8,11.61,25.8,25.8v690.146c0,7.74,5.16,12.899,12.899,12.899h143.188c14.19,0,25.8,11.609,25.8,25.8v122.55
		c0,14.189-11.608,25.8-25.8,25.8H165.515c-14.19,0-25.8-11.609-25.8-25.8v-122.55c0-14.189,11.61-25.8,25.8-25.8h180.599
		c7.739,0,12.899-5.159,12.899-12.899V357.348L359.014,357.348z"/>
</g>
</svg>
