<?xml version="1.0" encoding="utf-8"?>
<!-- Generator: Adobe Illustrator 16.0.4, SVG Export Plug-In . SVG Version: 6.00 Build 0)  -->
<!DOCTYPE svg PUBLIC "-//W3C//DTD SVG 1.1//EN" "http://www.w3.org/Graphics/SVG/1.1/DTD/svg11.dtd">
<svg version="1.1" id="Layer_1" xmlns="http://www.w3.org/2000/svg" xmlns:xlink="http://www.w3.org/1999/xlink" x="0px" y="0px"
	 width="830px" height="1050px" viewBox="0 0 830 1050" enable-background="new 0 0 830 1050" xml:space="preserve">
<g>
	<path fill="#FFBAD5" d="M425.32,242.146c-64.5,0-105.779,37.41-105.779,94.169v21.93c0,14.189-11.61,25.8-25.8,25.8H171.192
		c-14.19,0-25.8-11.61-25.8-25.8v-20.64c0-150.929,123.839-269.608,274.77-269.608c152.219,0,272.188,118.679,272.188,269.608
		c0,70.95-32.25,139.319-79.979,190.919l-242.52,256.71c-7.74,7.738-9.03,25.799,12.9,25.799h285.088
		c14.188,0,25.8,11.609,25.8,25.801v122.549c0,14.189-11.61,25.8-25.8,25.8H162.162c-14.19,0-25.8-11.609-25.8-25.8V807.164
		c0-19.352,6.45-27.09,11.61-32.25L482.08,420.165c14.188-15.48,36.118-56.76,36.118-83.85
		C518.2,284.716,483.37,242.146,425.32,242.146z"/>
</g>
</svg>
