<?xml version="1.0" encoding="utf-8"?>
<!-- Generator: Adobe Illustrator 16.0.4, SVG Export Plug-In . SVG Version: 6.00 Build 0)  -->
<!DOCTYPE svg PUBLIC "-//W3C//DTD SVG 1.1//EN" "http://www.w3.org/Graphics/SVG/1.1/DTD/svg11.dtd">
<svg version="1.1" id="Layer_1" xmlns="http://www.w3.org/2000/svg" xmlns:xlink="http://www.w3.org/1999/xlink" x="0px" y="0px"
	 width="830px" height="1050px" viewBox="0 0 830 1050" enable-background="new 0 0 830 1050" xml:space="preserve">
<g>
	<path fill="#FFBAD5" d="M414.999,609.795h-15.48c-14.188,0-25.799-11.61-25.799-25.801V462.735c0-14.19,11.61-25.801,25.799-25.801
		h15.48c59.34,0,100.619-38.699,100.619-98.04c0-58.05-41.279-95.459-100.619-95.459c-58.051,0-100.62,37.41-100.62,95.459v19.35
		c0,14.189-11.61,25.8-25.8,25.8H164.741c-14.19,0-25.8-11.61-25.8-25.8v-19.35C138.94,187.966,264.07,67.997,415,67.997
		c152.22,0,274.769,119.969,274.769,270.898c0,64.5-29.67,126.419-68.369,168.989c-7.74,7.74-7.74,16.771,0,23.22
		c50.311,41.279,81.271,114.81,81.271,185.76c0,158.669-129,282.508-287.669,282.508c-158.669,0-287.67-123.838-287.67-282.507
		v-12.9c0-14.188,11.61-25.8,25.8-25.8H276.97c14.189,0,25.8,11.61,25.8,25.8v12.9c0,67.079,43.86,107.068,112.229,107.068
		c67.08,0,112.229-39.989,112.229-107.068C527.229,649.784,482.079,609.795,414.999,609.795z"/>
</g>
</svg>
