<?xml version="1.0" encoding="utf-8"?>
<!-- Generator: Adobe Illustrator 16.0.4, SVG Export Plug-In . SVG Version: 6.00 Build 0)  -->
<!DOCTYPE svg PUBLIC "-//W3C//DTD SVG 1.1//EN" "http://www.w3.org/Graphics/SVG/1.1/DTD/svg11.dtd">
<svg version="1.1" id="Layer_1" xmlns="http://www.w3.org/2000/svg" xmlns:xlink="http://www.w3.org/1999/xlink" x="0px" y="0px"
	 width="600px" height="650px" viewBox="0 0 600 650" enable-background="new 0 0 600 650" xml:space="preserve">
<g>
	<g>
		<path fill="#D79BFF" d="M141.679,200.496c6.353,11.167,12.434,21.818,18.498,32.501c17.248,30.37,34.458,60.764,51.811,91.082
			c0.909,1.584,2.828,3.146,4.564,3.623c93.916,25.557,187.864,50.998,281.82,76.405c2.537,0.688,4.16,1.841,5.396,4.329
			c7.135,14.433,14.512,28.763,21.79,43.122c0.592,1.174,1.129,2.401,2.046,4.352c-5.473-1.214-10.304-2.252-15.115-3.367
			C409.759,428.653,307.05,404.75,204.323,380.9c-2.448-0.562-4.003-1.646-5.163-4.004c-24.54-49.604-49.141-99.178-73.826-148.707
			c-1.16-2.327-1.046-3.874,0.5-5.929C131.08,215.295,136.122,208.16,141.679,200.496z"/>
		<path fill="#D79BFF" d="M108.275,246.598c1.758,3.904,3.283,7.217,4.738,10.552c24.852,56.618,49.726,113.218,74.486,169.883
			c1.062,2.418,2.35,3.584,4.912,4.078c34.524,6.686,69.035,13.447,103.546,20.22c48.375,9.477,96.752,18.974,145.137,28.459
			c24.495,4.806,48.982,9.614,73.477,14.412c1.411,0.266,2.813,0.615,5.215,1.146c-1.843,0.855-2.864,1.372-3.903,1.789
			c-20.818,8.515-41.743,16.814-62.41,25.647c-5.624,2.402-10.659,0.697-15.844-0.107c-41.297-6.496-82.585-13.198-123.863-19.825
			c-44.571-7.156-89.133-14.336-133.704-21.439c-2.342-0.363-3.509-1.41-4.39-3.646c-26.966-69.299-54.001-138.555-81.089-207.803
			c-0.796-2.054-0.819-3.495,0.6-5.352C99.55,258.872,103.688,252.943,108.275,246.598z"/>
		<path fill="#D79BFF" d="M474.534,351.121c-10.202-3.146-19.437-5.981-28.671-8.856c-71.718-22.311-143.415-44.654-215.157-66.867
			c-3.42-1.053-5.626-2.767-7.567-5.739c-20.075-30.834-40.263-61.598-60.536-92.302c-1.57-2.366-1.539-3.821,0.144-6.057
			c6.573-8.756,12.912-17.688,19.674-27.012c0.964,1.175,1.781,2.137,2.562,3.139c17.429,22.63,34.829,45.282,52.341,67.836
			c1.266,1.623,3.215,3.086,5.148,3.769c65.57,23.244,131.165,46.413,196.81,69.474c3.307,1.161,5.231,2.973,6.771,6.043
			c8.658,17.392,17.512,34.684,26.291,52.015C472.942,347.763,473.495,348.976,474.534,351.121z"/>
		<path fill="#D79BFF" d="M80.52,284.959c4.125,11.78,7.984,22.758,11.834,33.751c23.995,68.67,48.012,137.342,71.939,206.043
			c1.016,2.919,2.327,4.109,5.527,4.496c28.824,3.488,57.632,7.195,86.434,10.879c30.021,3.829,60.043,7.702,90.073,11.531
			c6.725,0.857,13.426,1.631,20.145,2.479c1.758,0.228,3.508,0.569,6.397,1.055c-2.062,0.954-3.078,1.479-4.147,1.919
			c-25.146,10.264-50.354,20.415-75.411,30.899c-5.011,2.1-9.711,0.852-14.487,0.457c-25.633-2.252-51.235-4.747-76.843-7.174
			c-15.201-1.439-30.401-2.851-45.579-4.504c-1.161-0.11-2.714-1.856-3.124-3.136c-6.838-21.426-13.51-42.896-20.257-64.35
			c-21.257-67.648-42.515-135.289-63.902-202.884c-0.971-3.078-0.713-5.217,1.266-7.68C73.773,294.512,76.813,290.046,80.52,284.959
			z"/>
		<path fill="#D79BFF" d="M233.436,73.874c10.098,8.901,19.544,17.558,29.391,25.738c3.602,2.995,7.983,5.224,12.298,7.149
			c31.212,13.943,62.47,27.741,93.749,41.523c2.577,1.138,4.381,2.668,5.685,5.277c11.305,22.531,22.76,44.979,34.162,67.45
			c0.439,0.865,0.781,1.782,1.41,3.208c-1.41-0.44-2.404-0.667-3.35-1.046c-50.509-20.029-101.007-40.067-151.482-60.15
			c-1.547-0.614-3.169-1.486-4.291-2.684c-14.579-15.715-29.075-31.5-43.593-47.277c-0.41-0.44-0.742-0.947-1.227-1.601
			C215.226,98.99,224.224,86.573,233.436,73.874z"/>
		<path fill="#D79BFF" d="M198.137,626.648c-20.439,8.331-40.878,16.64-61.673,25.108c-2.6-9.666-5.148-18.998-7.634-28.339
			c-26.004-97.601-51.993-195.211-78.072-292.796c-0.683-2.563-0.448-4.443,1.243-6.414c1.645-1.91,3.048-4.041,5.003-6.664
			c2.798,9.764,5.406,18.802,7.968,27.861c25.912,91.241,51.825,182.49,77.692,273.759c0.629,2.229,1.561,3.161,3.95,3.313
			c15.981,0.909,31.948,1.979,47.929,3.009c1.19,0.076,2.373,0.257,3.556,0.403C198.115,626.154,198.129,626.397,198.137,626.648z"
			/>
		<path fill="#D79BFF" d="M330.369,68.514c-22.069-12.116-46.298-20.235-66.654-36.421c9.522-13.162,19.014-26.269,28.93-39.953
			c12.949,25.527,25.641,50.544,38.339,75.57C330.771,67.982,330.567,68.248,330.369,68.514z"/>
	</g>
</g>
</svg>
