<?xml version="1.0" encoding="utf-8"?>
<!-- Generator: Adobe Illustrator 16.0.4, SVG Export Plug-In . SVG Version: 6.00 Build 0)  -->
<!DOCTYPE svg PUBLIC "-//W3C//DTD SVG 1.1//EN" "http://www.w3.org/Graphics/SVG/1.1/DTD/svg11.dtd">
<svg version="1.1" id="Layer_1" xmlns="http://www.w3.org/2000/svg" xmlns:xlink="http://www.w3.org/1999/xlink" x="0px" y="0px"
	 width="724px" height="746.5px" viewBox="74.5 0 724 746.5" enable-background="new 74.5 0 724 746.5" xml:space="preserve">
<g>
	<g>
		<path fill="#D79BFF" d="M310.09,244.649c6.033,10.605,11.808,20.721,17.567,30.866c16.38,28.843,32.725,57.708,49.205,86.501
			c0.864,1.505,2.686,2.988,4.335,3.441c89.193,24.271,178.416,48.434,267.646,72.562c2.411,0.655,3.952,1.749,5.126,4.111
			c6.775,13.708,13.781,27.316,20.693,40.953c0.562,1.116,1.072,2.282,1.943,4.133c-5.198-1.152-9.785-2.139-14.356-3.197
			c-97.561-22.687-195.105-45.389-292.666-68.039c-2.325-0.533-3.802-1.562-4.903-3.802c-23.306-47.11-46.67-94.191-70.113-141.229
			c-1.102-2.21-0.994-3.679,0.475-5.63C300.024,258.703,304.812,251.928,310.09,244.649z"/>
		<path fill="#D79BFF" d="M278.366,288.432c1.67,3.708,3.118,6.854,4.5,10.022c23.602,53.77,47.225,107.525,70.74,161.338
			c1.008,2.297,2.232,3.405,4.665,3.874c32.789,6.35,65.563,12.772,98.338,19.202c45.943,9,91.887,18.021,137.837,27.028
			c23.264,4.565,46.52,9.13,69.782,13.688c1.34,0.252,2.672,0.583,4.954,1.087c-1.75,0.813-2.722,1.304-3.708,1.699
			c-19.771,8.086-39.644,15.97-59.271,24.358c-5.343,2.282-10.123,0.662-15.048-0.102c-39.219-6.17-78.43-12.535-117.634-18.828
			c-42.329-6.797-84.65-13.615-126.979-20.361c-2.225-0.346-3.333-1.339-4.169-3.463c-25.61-65.815-51.285-131.587-77.011-197.352
			c-0.756-1.951-0.778-3.319,0.569-5.083C270.079,300.089,274.01,294.458,278.366,288.432z"/>
		<path fill="#D79BFF" d="M626.205,387.698c-9.69-2.988-18.46-5.681-27.229-8.41c-68.112-21.189-136.203-42.408-204.336-63.504
			c-3.248-1-5.343-2.628-7.187-5.45c-19.065-29.283-38.238-58.5-57.491-87.66c-1.491-2.247-1.462-3.629,0.137-5.752
			c6.242-8.316,12.262-16.798,18.684-25.654c0.915,1.116,1.692,2.03,2.434,2.981c16.553,21.492,33.077,43.005,49.709,64.425
			c1.202,1.541,3.053,2.931,4.889,3.579c62.272,22.075,124.567,44.078,186.912,65.98c3.14,1.102,4.968,2.823,6.43,5.739
			c8.223,16.517,16.632,32.94,24.97,49.399C624.693,384.509,625.219,385.661,626.205,387.698z"/>
		<path fill="#D79BFF" d="M252.007,324.864c3.917,11.188,7.582,21.614,11.239,32.054c22.788,65.217,45.597,130.435,68.321,195.681
			c0.965,2.772,2.21,3.902,5.249,4.27c27.374,3.312,54.734,6.833,82.087,10.332c28.512,3.637,57.024,7.315,85.543,10.951
			c6.387,0.814,12.751,1.549,19.131,2.354c1.67,0.217,3.333,0.54,6.076,1.001c-1.958,0.907-2.923,1.404-3.938,1.822
			c-23.882,9.748-47.822,19.389-71.618,29.347c-4.759,1.994-9.223,0.807-13.759,0.432c-24.344-2.138-48.658-4.507-72.979-6.811
			c-14.436-1.368-28.872-2.707-43.286-4.277c-1.102-0.107-2.578-1.764-2.967-2.98c-6.494-20.347-12.83-40.737-19.238-61.113
			c-20.188-64.246-40.377-128.484-60.688-192.68c-0.922-2.923-0.677-4.954,1.202-7.293
			C245.599,333.936,248.486,329.695,252.007,324.864z"/>
		<path fill="#D79BFF" d="M397.231,124.395c9.59,8.453,18.562,16.675,27.914,24.444c3.42,2.844,7.582,4.961,11.679,6.79
			c29.643,13.241,59.328,26.345,89.035,39.435c2.448,1.08,4.161,2.534,5.399,5.011c10.735,21.398,21.615,42.717,32.443,64.058
			c0.418,0.821,0.742,1.692,1.34,3.046c-1.34-0.418-2.283-0.634-3.183-0.994c-47.967-19.022-95.926-38.052-143.863-57.125
			c-1.469-0.583-3.01-1.411-4.075-2.549c-13.846-14.925-27.612-29.916-41.4-44.899c-0.389-0.418-0.705-0.9-1.166-1.52
			C379.937,148.248,388.483,136.455,397.231,124.395z"/>
		<path fill="#D79BFF" d="M363.708,649.368c-19.411,7.913-38.822,15.804-58.572,23.847c-2.469-9.181-4.889-18.044-7.25-26.914
			c-24.696-92.692-49.378-185.393-74.146-278.071c-0.648-2.434-0.425-4.219,1.181-6.091c1.562-1.814,2.895-3.837,4.752-6.329
			c2.657,9.273,5.134,17.856,7.567,26.46c24.609,86.652,49.219,173.312,73.785,259.992c0.598,2.117,1.483,3.002,3.751,3.146
			c15.178,0.863,30.341,1.879,45.519,2.858c1.131,0.072,2.254,0.244,3.377,0.382C363.687,648.9,363.701,649.131,363.708,649.368z"/>
		<path fill="#D79BFF" d="M489.29,119.304c-20.959-11.506-43.97-19.217-63.302-34.589c9.043-12.5,18.058-24.948,27.475-37.944
			c12.298,24.243,24.351,48.002,36.411,71.77C489.672,118.8,489.478,119.052,489.29,119.304z"/>
	</g>
</g>
</svg>
