<?xml version="1.0" encoding="utf-8"?>
<!-- Generator: Adobe Illustrator 16.0.4, SVG Export Plug-In . SVG Version: 6.00 Build 0)  -->
<!DOCTYPE svg PUBLIC "-//W3C//DTD SVG 1.1//EN" "http://www.w3.org/Graphics/SVG/1.1/DTD/svg11.dtd">
<svg version="1.1" id="Layer_1" xmlns="http://www.w3.org/2000/svg" xmlns:xlink="http://www.w3.org/1999/xlink" x="0px" y="0px"
	 width="624px" height="640px" viewBox="0 0 624 640" enable-background="new 0 0 624 640" xml:space="preserve">
<g opacity="0.15">
	<path fill="#FF6AF7" d="M623.186,405.264c-0.469-2.938-2.158-4.629-4.355-6.264c-27.826-20.678-55.648-41.378-83.418-62.15
		c-2.492-1.855-5.111-3.24-7.979-4.363c-81.461-31.822-162.929-63.639-244.345-95.578c-49.609-19.462-98.979-39.571-150.74-52.913
		c-2.196-0.562-4.277-1.173-6.566-0.986c-23.407,1.857-46.822,3.665-70.222,5.551c-1.792,0.144-3.701-0.058-5.688,1.195
		c-0.893,4.586-3.708,8.935-3.794,14.415c2.448,0,4.486-0.015,6.516,0c25.531,0.273,51.07,0.626,76.608,0.756
		c5.624,0.029,10.822,1.195,16.02,3.211c125.337,48.636,250.661,97.294,376.083,145.698c12.83,4.955,24.754,11.082,36.035,18.942
		c21.219,14.804,42.818,29.054,64.592,43.749C624.495,412.629,624.379,412.629,623.186,405.264z"/>
	<path fill="#FF6AF7" d="M611.729,424.545c-16.197-9.812-32.398-19.633-48.654-29.359c-6.271-3.76-12.213-8.131-19.109-10.777
		C408.402,332.302,272.826,280.21,137.272,228.053c-3.103-1.195-6.213-1.843-9.482-2.174c-18.893-1.879-37.778-3.816-56.664-5.717
		c-9.929-1.001-19.865-1.951-29.959-2.952c-1.57,4.795-3.859,9.043-4.018,14.09c22.385,4.306,44.41,8.402,66.37,12.816
		c9.972,2.009,20.239,2.858,29.815,6.509c129.045,49.234,258.077,98.51,387.101,147.823c12.919,4.938,26.199,9.035,38.587,15.189
		c14.397,7.156,28.433,15.025,42.666,22.516c1.567,0.828,2.959,2.248,5.38,1.95c2.531-3.577,5.205-7.353,7.719-10.905
		C614.012,425.504,612.737,425.151,611.729,424.545z"/>
	<path fill="#FF6AF7" d="M175.907,288.849c-17.69-6.696-35.215-13.917-53.172-19.778c-19.52-6.372-39.456-11.448-59.22-17.064
		c-9.317-2.642-18.648-5.227-28.476-7.978c0,5.105,0,9.554,0,14.94c183.896,69.17,367.739,138.319,551.88,207.583
		c3.693-5.232,7.135-10.105,10.896-15.451c-13.076-5.797-25.287-11.887-37.977-16.719
		C431.903,385.752,303.896,337.312,175.907,288.849z"/>
	<path fill="#FF6AF7" d="M59.166,174.001c16.099-2.628,32.184-5.364,48.291-7.942c7.38-1.188,14.551-2.693,22.276-0.317
		c24.509,7.524,49.227,14.357,73.857,21.514c17.194,4.99,34.798,8.755,51.474,15.286c88.071,34.495,176.025,69.3,264.023,103.968
		c2.484,0.979,4.838,2.038,6.939,3.751c26.893,21.931,53.784,43.862,80.764,65.688c4.047,3.268,7.711,7.112,12.736,9.618
		c0.584-3.729-1.061-6.806-1.061-10.053c0-3.771-1.864-6.351-4.658-8.8c-31.857-27.784-63.652-55.647-95.398-83.577
		c-2.513-2.203-5.213-3.751-8.279-4.968c-55.6-22.04-111.168-44.136-166.751-66.197c-13.99-5.551-27.699-12.154-42.1-16.236
		c-60.509-17.157-121.233-33.523-181.864-50.249c-2.873-0.792-5.53-0.778-8.388-0.029c-7.682,2.016-15.43,3.787-23.133,5.717
		c-9.245,2.318-18.476,4.716-27.699,7.07c-1.713,5.378-3.305,10.368-4.86,15.25C56.747,174.578,58.015,174.196,59.166,174.001z"/>
	<path fill="#FF6AF7" d="M167.073,329.859c-19.231-7.192-38.837-13.464-57.456-22.19c-23.58-11.052-47.038-22.371-70.582-33.495
		c-1.498-0.706-2.916-2.391-5.177-1.159c0,4.392,0,8.863,0,13.572c0.727,0.482,1.519,1.087,2.383,1.577
		c24.725,14.206,49.435,28.418,74.189,42.552c2.275,1.304,4.781,2.231,7.25,3.153c68.652,25.459,137.312,50.898,205.972,76.333
		c76.664,28.396,153.337,56.787,230.328,85.291c6.422-4.271,12.941-8.604,20.354-13.535c-2.889-1.107-4.703-1.83-6.531-2.514
		C434.213,429.6,300.618,379.805,167.073,329.859z"/>
	<path fill="#FF6AF7" d="M531.645,506.612c-20.047-7.354-40.09-14.719-60.135-22.082
		c-118.923-43.729-237.838-87.443-356.775-131.126c-3.665-1.348-7.049-3.053-10.281-5.234
		c-21.96-14.824-43.971-29.562-65.981-44.315c-1.634-1.094-3.089-2.563-5.616-3.024c0,4.867,0,9.475,0,14.746
		c23.35,18.085,46.728,36.188,70.106,54.302c1.958,1.52,4.184,2.42,6.502,3.27C219.9,413.43,330.312,453.774,440.73,494.092
		c24.812,9.061,49.644,18.078,74.513,27.129c6.336-4.428,12.99-8.111,18.742-12.924
		C533.243,506.979,532.399,506.891,531.645,506.612z"/>
	<path fill="#FF6AF7" d="M114.922,129.318c68.882,18.267,137.8,36.403,206.663,54.72c13.961,3.715,28.244,6.372,41.709,11.729
		c45.771,18.187,91.468,36.547,137.216,54.785c3.658,1.469,6.834,3.427,9.725,6.149c33.141,31.276,66.34,62.496,99.561,93.686
		c1.426,1.348,2.549,3.211,5.213,3.772c-0.994-7.783-1.584-14.709-7.902-20.908c-33.268-32.63-66.135-65.679-98.809-98.892
		c-7.322-7.431-15.232-12.981-25.049-16.661c-34.25-12.837-67.465-28.087-103.341-36.856
		c-90.799-22.176-181.239-45.785-271.836-68.789c-2.117-0.54-4.262-1.209-6.566-0.223c-10.087,4.306-20.218,8.51-30.298,12.737
		c-1.894,5.811-3.686,11.347-5.825,17.921c13.81-4.565,26.424-8.554,38.895-12.953C107.981,128.238,111.266,128.347,114.922,129.318
		z"/>
	<path fill="#FF6AF7" d="M105.922,391.678c-2.75-0.992-5.098-2.311-7.279-4.24c-20.232-17.807-40.514-35.553-60.811-53.277
		c-1.743-1.521-3.384-3.291-6.207-4.379c0,5.264,0,9.906,0,14.99c20.39,19.979,41.133,40.254,61.769,60.64
		c3.125,3.088,6.552,5.211,10.699,6.703c107.561,38.619,215.093,77.334,322.641,116.023c16.816,6.051,33.656,12.057,50.688,18.146
		c6.191-4.099,12.275-8.123,19.478-12.867c-8.341-3.061-15.522-5.717-22.718-8.33C351.429,480.59,228.69,436.11,105.922,391.678z"/>
	<path fill="#FF6AF7" d="M102.438,97.602c21.333,5.328,42.739,10.39,64.102,15.609c86.45,21.11,172.915,42.149,259.33,63.439
		c19.324,4.759,39.123,7.941,57.447,16.344c3.227,1.483,5.92,3.298,8.338,5.875c30.648,32.602,61.352,65.16,92.045,97.711
		c8.521,9.029,17.062,18.036,25.596,27.05c-0.33-6.688,0.426-13.212-4.482-18.669c-38.275-42.509-76.395-85.162-114.48-127.829
		c-1.9-2.124-4.053-3.269-6.688-3.881c-48.987-11.477-97.954-22.946-146.938-34.445c-77.725-18.245-155.471-36.417-233.136-54.915
		c-7.301-1.742-13.457-1.605-19.282,3.175c-0.31,0.252-0.626,0.511-1.238,1.022c-1.851,5.825-3.802,11.945-6.113,19.209
		c6.739-3.348,12.377-6.069,17.921-8.964C97.37,97.026,99.629,96.896,102.438,97.602z"/>
	<path fill="#FF6AF7" d="M453.631,555.983c-118.144-42.25-236.317-84.43-354.498-126.584c-2.959-1.055-5.4-2.551-7.531-4.883
		c-17.244-18.836-34.56-37.592-51.862-56.368c-2.7-2.924-5.4-5.854-9.144-9.907c0,6.386,0,11.181,0,16.56
		c18.972,22.674,38.391,45.811,57.672,69.049c2.261,2.725,5.126,3.84,8.201,4.934c97.373,34.51,194.752,69.02,292.125,103.537
		c17.23,6.109,34.451,12.246,51.947,18.453c6.1-4.049,12.119-8.053,18.166-12.066C457.333,556.53,455.258,556.565,453.631,555.983z"
		/>
	<path fill="#FF6AF7" d="M92.631,465.967c-3.376-1.191-6.026-2.979-8.222-5.889c-11.182-14.832-22.507-29.549-33.804-44.281
		c-6.667-8.688-13.37-17.352-20.059-26.025c-0.346,0.096-0.698,0.172-1.051,0.268c0,4.803,0,9.604,0,15.344
		c16.546,23.486,33.739,47.785,50.789,72.193c2.455,3.514,5.4,5.588,9.475,7.014c89.525,31.229,178.999,62.59,268.495,93.916
		c15.508,5.438,31.052,10.771,46.46,16.107c6.041-4.021,11.758-7.826,18.404-12.248c-2.688-1-4.205-1.584-5.738-2.123
		C309.128,542.137,200.891,504.034,92.631,465.967z"/>
	<path fill="#FF6AF7" d="M276.722,111.614c69.928,15.811,139.835,31.702,209.779,47.441c2.994,0.669,5.076,1.9,7.041,4.197
		c35.461,41.681,70.984,83.297,106.522,124.92c1.601,1.872,2.995,4.025,5.485,5.307c-0.375-8.51-2.6-15.451-8.057-22.046
		c-31.918-38.505-63.533-77.249-94.789-116.287c-5.846-7.308-11.974-12.269-21.435-12.917c-3.212-0.223-6.345-1.447-9.524-2.131
		c-59.127-12.823-118.259-25.603-177.378-38.469c-59.113-12.874-118.204-25.848-177.33-38.686c-1.901-0.411-3.823-1.418-5.955-0.663
		c-6.292,2.232-12.607,4.377-20.009,6.934c2.47,0.821,3.737,1.361,5.055,1.656C156.323,84.47,216.537,97.998,276.722,111.614z"/>
	<path fill="#FF6AF7" d="M133.671,56.064c33.502,7.042,67.019,14.04,100.521,21.067c85.549,17.95,171.1,35.957,256.686,53.728
		c4.646,0.965,7.555,3.067,10.332,6.624c32.234,41.378,64.592,82.663,96.928,123.97c0.713,0.907,1.141,2.29,3.117,1.915
		c-1.646-5.537-0.619-11.506-4.551-16.697c-31.406-41.479-62.642-83.095-93.887-124.69c-1.805-2.397-3.842-3.715-6.941-4.334
		c-25.387-5.011-50.725-10.325-76.09-15.451C331.493,84.347,243.183,66.541,154.883,48.7c-1.397-0.288-2.729-0.871-4.183-0.353
		c-6.005,2.146-12.017,4.284-18.252,6.501C133.139,55.561,133.37,56,133.671,56.064z"/>
	<path fill="#FF6AF7" d="M87.231,501.579c-4.421-1.525-7.553-3.844-10.152-7.904c-14.285-22.318-28.887-44.432-43.423-66.586
		c-1.425-2.176-2.455-4.666-5.558-6.982c0.137,6.143-2.139,11.715,0.259,16.094c5.472,9.979,10.764,20.246,18.007,29.051
		c9.857,11.98,20.499,23.314,30.758,34.963c1.916,2.183,4.097,3.881,6.653,5.271c21.463,11.664,42.891,23.414,64.311,35.156
		c2.866,1.568,5.832,2.857,8.928,3.934C213.368,564,269.707,583.49,326.055,602.943c14.58,5.032,29.168,10.021,43.678,14.998
		c5.693-4.291,11.812-7.357,17.234-12.109c-1.123-0.541-1.635-0.85-2.182-1.037C285.612,570.368,186.433,535.93,87.231,501.579z"/>
	<path fill="#FF6AF7" d="M595.35,234.582c0.477-0.202,0.967-0.403,1.447-0.605c-1.506-5.35-0.893-11.016-4.479-16.099
		c-28.109-39.787-56.055-79.697-83.953-119.642c-2.045-2.916-4.457-4.255-7.912-4.896c-29.463-5.429-58.889-11.037-88.322-16.574
		c-33.646-6.329-67.298-12.629-100.937-18.965c-37.844-7.128-75.701-14.241-113.529-21.434c-8.23-1.562-18.346,0.504-26.208,5.868
		C282.202,63.849,392.7,85.428,502.635,106.891C533.846,149.881,564.59,192.231,595.35,234.582z"/>
	<path fill="#FF6AF7" d="M591.542,206.949c-0.152-9.684-4.234-17.791-9.045-25.207C559.45,146.159,535.95,110.872,512.7,75.42
		c-1.627-2.477-3.645-3.542-6.414-4.025c-38.174-6.603-76.352-13.19-114.494-19.908c-52.41-9.216-104.847-18.31-157.176-28.008
		c-9.886-1.836-17.642,1.973-25.992,5.846c99.62,18.13,199.229,36.252,299.152,54.432
		C535.633,124.739,563.59,165.844,591.542,206.949z"/>
	<path fill="#FF6AF7" d="M559.868,136.346c0.438-0.273,0.862-0.54,1.303-0.813c-10.627-30.384-29.469-56.261-46.15-83.65
		c-30.926-5.025-61.91-10.008-92.881-15.105c-51.097-8.41-102.218-16.697-153.236-25.531c-9.404-1.627-16.834,1.879-24.769,5.738
		c89.525,15.207,179.06,30.42,268.38,45.598C528.418,87.364,544.151,111.857,559.868,136.346z"/>
	<path fill="#FF6AF7" d="M517.424,39.974c-0.461-0.144-1.021-0.367-1.604-0.475c-37.375-7.287-74.768-14.566-112.146-21.823
		c-32.396-6.293-64.835-12.341-97.453-17.46c-10.145-1.591-19.287-0.641-29.188,4.759c80.949,12.859,160.982,25.582,241.068,38.304
		C518.483,42.255,518.44,41.104,517.424,39.974z"/>
	<path fill="#FF6AF7" d="M349.304,627.622c-32.125-11.029-64.273-22.002-96.378-33.09c-2.225-0.766-4.327-1.002-7.409-0.645
		c25.258,13.797,49.709,27.104,74.096,40.509c5.041,2.778,10.354,4.614,16.02,6.084c5.553-3.729,11.045-7.407,16.496-11.062
		C351.327,627.825,350.183,627.924,349.304,627.622z"/>
</g>
</svg>
