<?xml version="1.0" encoding="utf-8"?>
<!-- Generator: Adobe Illustrator 16.0.4, SVG Export Plug-In . SVG Version: 6.00 Build 0)  -->
<!DOCTYPE svg PUBLIC "-//W3C//DTD SVG 1.1//EN" "http://www.w3.org/Graphics/SVG/1.1/DTD/svg11.dtd">
<svg version="1.1" id="Layer_1" xmlns="http://www.w3.org/2000/svg" xmlns:xlink="http://www.w3.org/1999/xlink" x="0px" y="0px"
	 width="900px" height="690.5px" viewBox="0 0 900 690.5" enable-background="new 0 0 900 690.5" xml:space="preserve">
<g>
	<g>
		<path fill="#0EFF53" d="M625.147,496.533c-5.746-1.044-13.681-2.325-21.543-3.996c-2.455-0.511-4.802-1.836-7.013-3.11
			c-9.54-5.522-12.571-14.068-6.695-23.378c4.989-7.941,11.325-15.242,18.007-21.866c11.477-11.391,23.738-22.011,35.567-33.034
			c32.775-30.535,56.247-67.053,70.733-109.439c2.361-6.898,5.083-13.738,8.338-20.247c6.465-12.874,14.399-13.875,24.076-3.291
			c9.504,10.404,14.998,23.055,18.158,36.497c13.45,57.341-2.419,105.782-45.871,145.029c-20.916,18.907-45.886,30.298-73.8,34.819
			C639.316,495.461,633.392,495.728,625.147,496.533z"/>
		<path fill="#0EFF53" d="M756.965,277.301c-4.701-7.553-9.303-15.501-14.486-23.047c-5.321-7.747-11.592-14.752-19.548-20.001
			c-10.844-7.164-17.799-4.767-20.427,7.812c-2.174,10.39-3.484,21.002-4.579,31.586c-5.781,56.527-31.528,101.664-76.694,135.965
			c-22.399,16.999-47.052,30.153-71.893,43.034c-13.665,7.07-27.568,13.788-39.499,23.738c-2.829,2.362-5.442,5.134-7.624,8.101
			c-5.494,7.523-5.098,15.825,0.921,22.975c7.733,9.217,18.267,13.925,29.312,17.604c21.038,7.013,42.761,8.503,64.678,6.812
			c35.179-2.736,67.889-13.386,97.293-33.049c41.293-27.611,67.796-65.332,76.954-114.624c0.158-0.857,0.446-1.678,0.677-2.513
			c0.339,0.072,0.67,0.144,1.001,0.209c-1.304,6.278-2.333,12.622-3.938,18.813c-16.092,61.776-54.504,105.069-111.262,132.566
			c-37.915,18.367-78.235,25.783-120.326,23.501c-28.483-1.556-55.915-7.416-81.525-20.361
			c-10.836-5.473-20.945-12.074-28.57-21.773c-4.716-6.005-8.164-12.527-6.3-20.577c1.454-6.265,5.667-10.569,10.671-14.112
			c10.411-7.351,22.392-11.282,34.408-14.969c24.502-7.523,49.234-14.378,73.548-22.442c28.642-9.482,55.556-22.651,79.395-41.493
			c33.502-26.489,54.209-60.452,60.099-103.025c2.275-16.495,1.923-33.033,0.648-49.608c-0.922-11.887-1.455-23.817-1.951-35.726
			c-0.087-2.081,0.654-4.327,1.476-6.3c1.814-4.312,5.817-6.552,10.439-4.586c6.416,2.714,13.004,5.774,18.354,10.109
			c21.65,17.539,36.842,40.119,48.794,65.023C757.087,277.128,756.95,277.416,756.965,277.301z"/>
		<path fill="#0EFF53" d="M403.48,122.054c-7.66,1.98-15.285,3.701-22.744,5.991c-4.004,1.217-7.935,3.06-11.448,5.313
			c-2.023,1.289-4.277,3.96-4.299,6.026c-0.007,1.591,3.067,3.981,5.206,4.658c6.94,2.21,14.019,4.14,21.16,5.58
			c33.74,6.812,66.961,15.314,98.727,28.887c37.714,16.113,71.856,37.944,103.465,63.914c2.959,2.434,5.911,4.882,8.567,7.74
			c-7.862-5.105-15.725-10.224-23.58-15.329c-32.493-21.089-66.333-39.449-103.312-51.581
			c-36.598-12.002-73.994-18.086-112.536-15.883c-19.174,1.095-37.973,4.414-55.829,11.866c-34.61,14.436-54.641,41.083-63.05,76.86
			c-8.251,35.122-2.549,69.077,10.181,102.211c0.446,1.145,0.864,2.304,1.296,3.456c-0.346,0.151-0.691,0.302-1.03,0.446
			c-4.312-9.511-8.906-18.922-12.88-28.584c-9.828-23.947-14.71-49.04-16.942-74.743c-0.619-7.272-1.541-14.573-3.096-21.694
			c-1.922-8.791-7.1-11.534-15.761-8.964c-9.324,2.772-17.013,8.417-24.062,14.825c-27.151,24.71-42.948,55.663-48.759,91.649
			c-7.387,45.727,3.24,87.847,26.899,127.095c0.778,1.31,1.555,2.592,1.894,4.24c-0.381-0.461-0.806-0.899-1.138-1.396
			c-18.46-28.044-30.232-58.551-32.861-92.146c-3.672-46.951,9.742-89,38.031-126.418c20.462-27.058,46.555-47.664,75.441-64.937
			c29.203-17.467,58.961-33.84,91.318-44.936c22.219-7.625,45.223-11.347,68.436-14.148
			C401.652,121.961,402.56,122.054,403.48,122.054z"/>
		<path fill="#0EFF53" d="M533.16,441.67c-15.552,3.11-31.018,6.912-46.685,9.165c-25.531,3.687-51.207,6.265-76.803,9.476
			c-12.341,1.562-24.667,3.441-36.273,8.287c-18.95,7.941-23.321,21.772-12.291,39.196c8.071,12.759,19.549,22.047,32.062,30.075
			c25.071,16.12,52.727,25.624,81.828,31.125c27.569,5.206,55.354,6.242,83.232,3.046c46.102-5.285,88.546-20.427,126.158-48.061
			c0.986-0.734,2.016-1.354,3.031-2.037c0.194,0.295,0.41,0.568,0.612,0.856c-7.157,5.221-14.191,10.635-21.507,15.617
			c-35.035,23.904-73.742,38.506-115.646,44.554c-60.66,8.755-118.979,0.871-174.405-25.74
			c-22.752-10.93-43.409-24.948-60.127-44.157c-7.906-9.079-14.566-18.922-17.309-30.917c-2.873-12.564,1.8-22.399,13.428-27.886
			c7.92-3.736,16.444-5.364,25.049-5.343c19.9,0.015,39.809,0.303,59.688,1.095c30.571,1.225,61.149,2.348,91.605-1.396
			c14.832-1.836,29.513-4.946,44.252-7.481C533.096,441.324,533.131,441.497,533.16,441.67z"/>
		<path fill="#0EFF53" d="M562.543,586.268c-12.614,2.714-25.171,5.738-37.857,8.085c-30.139,5.58-60.523,6.509-90.922,3.003
			c-60.509-6.963-115.466-27.807-162.533-67.263c-21.895-18.338-40.082-39.802-51.062-66.571
			c-4.86-11.858-7.956-24.127-5.688-37.145c2.325-13.335,12.002-21.723,25.531-22.327c11.47-0.512,22.522,1.728,33.286,5.22
			c22.659,7.373,45.129,15.379,67.817,22.666c15.818,5.075,31.882,9.41,46.721,13.737c-7.258-1.289-15.739-2.815-24.221-4.306
			c-20.318-3.607-40.615-7.416-60.984-10.714c-9.771-1.584-19.678-1.828-29.506,0.296c-15.221,3.297-22.954,14.565-20.649,30.066
			c2.275,15.308,9.547,28.325,18.749,40.35c20.83,27.216,48.024,46.411,78.415,61.394c30.975,15.278,63.757,24.617,98.035,28.793
			c37.707,4.579,75.054,2.852,112.025-6.055c0.856-0.194,1.75-0.26,2.621-0.389C562.399,585.489,562.471,585.879,562.543,586.268z"
			/>
		<path fill="#0EFF53" d="M413.373,599.681c-12.557-1.8-25.192-3.139-37.641-5.472c-47.535-8.856-91.016-27.23-129.471-56.765
			c-32.011-24.574-57.6-54.425-73.044-92.146c-8.115-19.837-12.607-40.399-10.339-62c1.102-10.462,3.722-20.47,10.116-29.088
			c7.352-9.914,17.266-13.212,29.239-9.777c11.7,3.37,21.435,10.339,31.09,17.352c22.205,16.149,44.272,32.486,66.492,48.607
			c4.299,3.125,9.014,5.659,13.255,8.993c-4.737-2.391-9.497-4.76-14.227-7.171c-19.195-9.771-38.247-19.858-57.672-29.146
			c-6.84-3.283-14.443-5.393-21.931-6.768c-20.369-3.723-30.571,9.123-33.3,25.049c-3.017,17.654,0.756,34.474,7.272,50.781
			c11.023,27.598,28.599,50.646,50.371,70.524c44.316,40.457,96.884,63.634,155.693,73.505c4.752,0.813,9.532,1.461,14.299,2.195
			C413.503,598.795,413.438,599.241,413.373,599.681z"/>
		<path fill="#0EFF53" d="M280.375,564.883c-10.843-5.982-21.924-11.562-32.486-18.021c-39.29-23.99-70.697-55.584-91.562-96.991
			c-14.731-29.225-22.003-60.177-19.562-92.988c1.857-25.027,9-48.362,24.66-68.479c4.997-6.422,10.778-12.089,18.353-15.523
			c8.352-3.78,15.703-2.88,21.693,4.025c4.903,5.667,9.043,12.11,12.794,18.626c10.937,18.994,20.938,38.549,32.422,57.189
			c7.308,11.851,16.596,22.479,24.984,33.653c0.425,0.547,0.821,1.102,0.734,2.117c-1.361-1.274-2.787-2.477-4.054-3.823
			c-16.805-18.043-33.465-36.216-50.429-54.108c-5.364-5.659-11.109-11.131-17.417-15.667c-12.903-9.288-25.87-7.035-35.907,5.407
			c-8.979,11.102-13.514,24.113-15.653,37.965c-5.537,35.849,2.938,69.113,19.786,100.49c22.702,42.301,56.556,73.541,97.833,97.229
			c4.767,2.735,9.67,5.256,14.508,7.869C280.829,564.192,280.605,564.537,280.375,564.883z"/>
		<path fill="#0EFF53" d="M248.155,336.874c-0.555-5.285-1.274-10.57-1.627-15.876c-2.038-31.133,3.802-60.336,21.91-86.321
			c16.61-23.817,39.744-38.613,67.097-47.138c27.13-8.446,54.915-9.987,83.074-7.373c46.051,4.262,88.617,19.778,129.751,39.953
			c3.895,1.916,7.797,3.838,11.477,6.235c-9.9-3.629-19.793-7.272-29.686-10.901c-25.92-9.489-52.149-17.892-79.48-22.356
			c-39.204-6.408-78.099-6.394-115.755,8.093c-47.419,18.238-75.679,52.553-84.06,102.859c-0.907,5.429-1.368,10.973-1.648,16.474
			c-0.274,5.386-0.058,10.786-0.058,16.178C248.825,336.751,248.486,336.816,248.155,336.874z"/>
		<path fill="#0EFF53" d="M631.922,278.856c-3.758-4.262-7.53-8.518-11.274-12.78c-43.646-49.745-96.978-85.752-157.803-111.125
			c-10.289-4.291-20.47-8.849-30.55-13.594c-3.664-1.728-7.156-4.075-10.26-6.696c-3.917-3.319-3.492-7.337,1.339-9.403
			c5.234-2.239,10.923-4.421,16.495-4.644c14.717-0.598,29.478-0.122,44.23-0.05c0.432,0,0.871,0.252,2.21,0.655
			c-5.22,0.504-9.525,0.669-13.716,1.397c-3.578,0.619-7.92,0.986-9.079,5.256c-1.159,4.277,2.188,7.099,5.177,9.137
			c11.103,7.589,22.248,15.142,33.71,22.162c33.84,20.714,65.765,43.833,93.132,72.806c13.075,13.846,24.934,28.649,35.59,44.41
			c0.468,0.699,0.85,1.447,1.274,2.174C632.225,278.662,632.066,278.762,631.922,278.856z"/>
		<path fill="#0EFF53" d="M680.386,188.114c-2.542-1.332-5.004-2.837-7.646-3.953c-3.046-1.289-6.178-2.527-9.396-3.283
			c-7.02-1.649-11.411,1.541-10.813,8.755c0.662,7.732,2.462,15.394,4.067,23.018c3.759,17.784,9.015,35.359,11.348,53.316
			c6.652,51.091-7.841,95.076-47.269,129.607c1.771-1.807,3.571-3.571,5.3-5.429c1.85-1.951,3.715-3.917,5.436-5.976
			c21.802-26.402,30.614-56.981,29.052-90.857c-1.346-28.786-10.39-55.519-21.585-81.706c-4.436-10.354-8.662-20.815-12.773-31.298
			c-1.022-2.585-1.519-5.45-1.807-8.229c-0.591-5.76,2.562-9.259,8.345-8.834c3.657,0.267,7.373,1.13,10.821,2.405
			C657.158,170.733,668.844,179.323,680.386,188.114z"/>
		<path fill="#0EFF53" d="M649.808,313.999c-9.907-30.045-25.323-56.066-44.425-79.999c-18.187-22.795-39.362-42.574-61.963-60.897
			c-10.872-8.813-21.787-17.554-32.522-26.532c-3.218-2.693-6.178-5.839-8.719-9.18c-4.45-5.861-2.801-10.303,4.428-11.585
			c4.5-0.792,9.28-1.231,13.759-0.598c10.526,1.483,20.938,3.693,31.393,5.63c0.568,0.108,1.102,0.411,2.44,0.929
			c-4.968,0-9.086-0.324-13.133,0.072c-6.509,0.641-8.676,4.507-5.249,10.13c3.039,4.989,6.732,9.706,10.729,13.989
			c14.976,16.049,30.723,31.407,45.216,47.88c25.877,29.383,46.224,62.071,56.354,100.382c0.684,2.599,1.238,5.227,1.808,7.848
			C650.009,312.437,649.894,312.826,649.808,313.999z"/>
		<path fill="#0EFF53" d="M650.923,345.802c0.252-2.146,0.548-4.292,0.749-6.451c3.024-32.624-5.608-62.755-19.735-91.692
			c-11.88-24.372-27.864-46.044-44.546-67.255c-5.623-7.157-11.146-14.422-16.352-21.881c-2.246-3.211-3.953-6.912-5.256-10.627
			c-1.505-4.219,0.525-7.761,4.953-8.15c4.522-0.396,9.382-0.475,13.651,0.778c11.693,3.435,23.155,7.639,34.388,12.269
			c-4.882-0.828-9.742-2.102-14.652-2.376c-6.782-0.381-9.828,3.355-7.365,9.763c2.98,7.719,6.703,15.243,10.894,22.378
			c12.074,20.563,24.624,40.853,33.573,63.079c9.583,23.817,15.523,48.37,14.119,74.225c-0.468,8.734-2.045,17.41-3.132,26.107
			C651.787,345.924,651.355,345.866,650.923,345.802z"/>
		<path fill="#0EFF53" d="M250.783,312.192c2.203-7.293,3.996-14.738,6.66-21.859c16.438-43.935,48.492-71.115,92.455-85.119
			c24.48-7.797,49.701-10.03,75.29-8.885c26.792,1.203,52.928,6.343,78.869,12.744c0.684,0.173,1.339,0.533,2.837,1.145
			c-12.449-1.685-23.969-3.341-35.525-4.802c-37.576-4.73-75.023-5.731-111.909,4.817c-52.92,15.142-89.561,47.714-107.014,100.634
			c-0.187,0.555-0.381,1.102-0.569,1.649C251.51,312.422,251.143,312.3,250.783,312.192z"/>
		<path fill="#0EFF53" d="M435.715,204.869c-19.166,1.743-38.066,4.378-56.722,8.676c-39.42,9.072-74.21,26.546-102.017,56.563
			c-2.217,2.398-4.32,4.882-6.479,7.323c-0.245-0.209-0.497-0.418-0.749-0.627c3.794-4.564,7.423-9.273,11.405-13.666
			c22.558-24.869,50.709-40.457,82.779-49.399c22.902-6.394,46.367-8.554,70.034-9.079
			C434.549,204.653,435.132,204.797,435.715,204.869z"/>
		<path fill="#0EFF53" d="M195.818,208.073c-4.723,4.824-9.439,9.655-14.436,14.767c5.163-4.997,10.051-9.72,14.933-14.443
			C196.149,208.289,195.977,208.188,195.818,208.073z"/>
	</g>
</g>
</svg>
