<?xml version="1.0" encoding="utf-8"?>
<!-- Generator: Adobe Illustrator 16.0.4, SVG Export Plug-In . SVG Version: 6.00 Build 0)  -->
<!DOCTYPE svg PUBLIC "-//W3C//DTD SVG 1.1//EN" "http://www.w3.org/Graphics/SVG/1.1/DTD/svg11.dtd">
<svg version="1.1" id="Layer_1" xmlns="http://www.w3.org/2000/svg" xmlns:xlink="http://www.w3.org/1999/xlink" x="0px" y="0px"
	 width="772px" height="788px" viewBox="86.5 -23.5 772 788" enable-background="new 86.5 -23.5 772 788" xml:space="preserve">
<g>
	<g>
		<path fill="#C28DFF" d="M288.468,188.69c-0.82,3.945-1.065,7.114-2.124,10.008c-9,24.631-16.236,49.767-21.585,75.456
			c-1.109,5.321-0.49,9.59,2.664,14.357c44.532,67.385,87.783,135.59,129.384,204.811c0.784,1.311,1.67,2.556,2.635,4.039
			c16.632,4.083,33.566,6.459,50.559,8.252c16.819,1.764,33.71,3.009,51.336,4.55c1.987,3.449,4.162,7.193,6.998,12.096
			c-33.746,0.015-66.074-1.728-98.186-5.796c-26.115-41.745-51.775-83.39-78.084-124.61
			c-26.331-41.235-53.324-82.037-80.381-123.567c7.085-28.029,16.877-55.519,28.181-82.274
			c41.998-14.962,84.687-23.508,129.161-20.462c47.513,3.232,90.619,18.993,128.809,47.325
			c57.6,42.718,92.426,99.799,105.257,170.323c0.504,2.83,0.842,5.688,0.863,8.647c-3.354-6.458-6.379-12.96-8.013-20.103
			c-5.703-24.861-15.013-48.341-27.764-70.409c-11.549-19.937-25.128-38.405-41.58-54.526
			c-43.322-42.415-94.752-67.845-155.491-73.562c-33.603-3.154-66.621,0.381-99.245,8.582c-6.969,1.757-13.845,3.845-20.75,5.832
			C289.843,188.014,288.634,188.611,288.468,188.69z"/>
		<path fill="#C28DFF" d="M592.416,316.332c-4.485-3.693-9.281-7.099-13.356-11.203c-4.694-4.688-8.885-9.915-13.11-15.048
			c-13.385-16.25-29.232-29.787-46.447-41.703c-36.339-25.2-76.645-39.679-120.615-44.172c-28.482-2.902-56.721-1.253-84.858,3.622
			c-1.181,0.216-2.341,0.511-3.507,0.806c-0.489,0.13-0.957,0.346-1.051,0.389c-0.749,4.039-1.268,7.855-2.16,11.577
			c-6.862,28.584-10.879,57.5-10.224,86.962c0.007,0.346,0.021,0.684,0.007,1.037c-0.281,9.634,2.304,18.043,7.653,26.446
			c21.499,33.768,42.3,67.997,63.216,102.132c2.34,3.795,5.177,6.552,9.102,8.647c23.939,12.729,49.564,20.606,75.902,26.366
			c8.697,1.908,17.46,3.478,26.236,4.939c3.355,0.562,5.674,1.966,7.171,5.019c1.786,3.657,3.759,7.221,5.868,11.195
			c-1.072,0.245-1.678,0.555-2.261,0.497c-32.731-3.405-65.182-8.345-96.652-18.454c-3.478-1.115-5.861-2.916-7.791-6.055
			c-24.033-39.061-48.096-78.105-72.331-117.029c-10.123-16.272-20.628-32.299-31.061-48.384c-2.023-3.132-3.183-6.228-2.823-10.087
			c2.837-30.478,9.569-60.134,18.893-89.229c0.151-0.461,0.525-0.85,0.417-0.684c3.463-0.317,6.495-0.302,9.389-0.907
			c39.463-8.273,79.049-10.03,118.771-2.103c42.984,8.583,81.339,26.892,114.689,55.44c19.238,16.452,35.863,35.201,49.442,56.6
			c0.626,1.022,1.202,2.059,1.8,3.082C592.617,316.123,592.51,316.224,592.416,316.332z"/>
		<path fill="#C28DFF" d="M472.515,457.02c-1.102,0.022-1.786,0.173-2.384,0.036c-29.699-7.322-58.442-17.049-84.29-33.947
			c-34.892-22.796-56.182-54.814-64.562-95.508c-6.084-29.527-5.343-59.163-1.001-88.819c0.49-3.384,1.073-6.753,1.656-10.123
			c0.115-0.655,0.403-1.289,0.843-2.708c1.367,1.253,2.505,2.11,3.434,3.154c2.247,2.578,4.22,5.407,6.624,7.827
			c2.736,2.75,3.759,5.731,3.5,9.662c-1.152,17.446-0.886,34.87,1.655,52.214c3.816,25.949,12.362,50.069,27.67,71.568
			c13.745,19.325,31.63,33.919,52.085,45.533c12.535,7.12,25.646,12.981,39.204,17.806c3.283,1.151,5.572,2.959,7.077,6.134
			c2.225,4.63,4.788,9.079,7.149,13.637C471.687,454.471,471.988,455.587,472.515,457.02z"/>
		<path fill="#C28DFF" d="M481.688,170.676c2.678,0.144,5.191,0.31,7.718,0.425c28.447,1.354,56.427-1.368,83.628-10.231
			c2.794-0.9,5.292-0.806,7.942,0.375c4.528,2.052,9.144,3.902,13.673,5.918c1.482,0.648,2.851,1.569,4.226,3.074
			c-21.578,9.95-44.366,14.133-68.248,15.79c12.952,10.699,25.416,20.844,37.691,31.205c12.362,10.44,22.436,23.04,32.185,35.841
			c9.856,12.96,18.266,26.863,25.639,41.415c7.352,14.551,13.306,29.657,17.979,45.266c4.637,15.451,7.877,31.198,9.741,47.218
			c1.923,16.164,2.484,32.357,1.347,48.6c-0.367,0.043-0.749,0.079-1.131,0.115c-0.69-5.364-1.857-10.721-1.986-16.092
			c-0.958-39.946-9.627-78.056-26.929-114.07c-10.396-21.701-23.493-41.681-39.254-59.947
			c-28.152-32.616-61.992-57.146-102.153-72.9c-0.619-0.252-1.203-0.612-1.801-0.943
			C481.853,171.669,481.867,171.432,481.688,170.676z"/>
		<path fill="#C28DFF" d="M357.314,266.292c5.271,7.049,10.642,14.025,15.789,21.161c8.72,12.046,17,24.314,23.876,37.599
			c3.967,7.675,9.662,14.45,14.565,21.65c1.915,2.815,3.924,5.594,5.616,8.554c8.431,14.666,16.775,29.39,25.128,44.114
			c0.669,1.174,1.224,2.412,1.526,3.91c-25.597-13.479-47.06-31.551-62.583-56.247c-15.451-24.566-22.65-51.646-24.897-80.222
			C356.666,266.645,356.998,266.458,357.314,266.292z"/>
		<path fill="#C28DFF" d="M296.719,198.295c-1.203-1.267-2.225-2.325-3.585-3.751c1.325-0.662,2.253-1.332,3.312-1.62
			c30.874-8.46,62.229-13.37,94.313-12.341c45.799,1.469,88.257,14.076,127.166,38.52c21.168,13.313,39.938,29.405,56.383,48.154
			c20.981,23.904,37.001,50.846,47.974,80.748c0.288,0.756,0.476,1.584,0.332,2.613c-4.544-5.4-9.209-10.598-12.212-17.064
			c-9.734-20.938-22.19-40.147-37.238-57.585c-19.721-22.917-42.825-41.753-69.293-56.426
			c-33.624-18.641-69.631-28.958-107.985-31.464c-31.91-2.073-63.18,1.786-94.14,9.123
			C300.262,197.561,298.757,197.856,296.719,198.295z"/>
		<path fill="#C28DFF" d="M564.394,200.714c21.146-3.125,40.5-9.043,59.631-18.454c5.89,3.737,11.995,7.574,18.079,11.426
			c-0.065,0.519-0.13,1.03-0.181,1.527c-15.934,9.583-33.473,15.264-52.739,19.908c15.904,18.907,29.93,37.713,41.011,58.565
			c11.038,20.801,19.685,42.501,25.488,65.34c5.824,22.997,8.863,46.325,9.007,70.077c0.151,23.53-2.397,46.707-8.129,69.581
			c-1.202-4.263-0.626-8.51,0.102-12.751c5.356-31.81,5.803-63.67,0.734-95.559c-6.941-43.488-23.148-83.261-48.485-119.225
			c-10.757-15.271-22.485-29.736-36.562-42.163C569.808,206.741,567.619,204.099,564.394,200.714z"/>
		<path fill="#C28DFF" d="M648.367,522.223c3.499-11.426,7.337-22.773,10.44-34.322c19.015-70.739,13.802-139.622-16.61-206.402
			c-7.315-16.078-16.258-31.248-26.338-45.756c-0.937-1.354-1.808-2.757-3.24-4.968c17.82-5.04,34.049-11.966,49.176-21.326
			c6.566,3.852,11.196,8.971,16.301,14.558c-14.407,10.692-30.066,17.215-46.979,22.81c50.249,89.41,55.749,181.239,18.468,275.731
			C649.188,522.446,648.771,522.346,648.367,522.223z"/>
		<path fill="#C28DFF" d="M322.352,119.448c9.086-0.209,18.129-1.268,26.892,1.411c27.713,8.467,55.793,15.156,84.578,18.691
			c24.221,2.959,48.428,3.528,72.706,0.677c3.139-0.367,6.516-0.151,9.604,0.576c8.15,1.901,16.229,4.19,24.314,6.386
			c1.396,0.367,2.722,1.022,4.054,2.434c-3.117,0.684-6.229,1.455-9.36,2.038c-29.722,5.537-59.558,5.299-89.409,1.289
			c-41.977-5.63-82.202-17.777-121.666-32.695C323.467,120.039,322.927,119.707,322.352,119.448z"/>
		<path fill="#C28DFF" d="M638.467,554.228c49.277-94.486,54.512-190.664,10.743-289.231c16.192-5.962,31.226-13.198,44.524-22.932
			c4.334,2.649,11.621,12.039,14.055,17.979c-13.205,10.26-28.016,17.812-44.647,23.667
			C696.002,377.777,687.11,467.906,638.467,554.228z"/>
		<path fill="#C28DFF" d="M676.872,305.302c7.978-3.593,15.754-6.653,23.134-10.526c7.207-3.802,13.996-8.424,21.47-12.96
			c4.508,6.796,7.661,14.025,10.57,21.845c-13.572,10.886-28.858,17.82-45.433,23.22c14.486,87.062-3.232,166.781-51.695,239.782
			C685.548,485.481,700.409,398.498,676.872,305.302z"/>
		<path fill="#C28DFF" d="M636.919,568.8c21.802-31.939,38.318-66.312,48.507-103.651c10.145-37.173,13.161-75.017,10.174-113.939
			c16.336-4.659,31.55-10.966,46.23-21.197c2.354,9.936,4.421,18.641,6.523,27.504c-7.502,5.069-15.055,8.668-22.968,11.361
			c-7.906,2.693-16.013,4.752-24.603,7.265c-0.54,22.773-2.613,45.532-7.467,67.997c-4.925,22.68-12.146,44.561-21.693,65.678
			C662.148,530.719,650.679,550.418,636.919,568.8z"/>
		<path fill="#C28DFF" d="M272.247,178.049c-0.857,1.231-1.93,2.376-2.549,3.729c-10.707,23.537-20.52,47.412-28.426,72.05
			c-0.454,1.447-0.749,2.945-1.167,4.601c23.559,35.244,47.074,70.438,70.582,105.624c-0.31,0.216-0.627,0.439-0.937,0.655
			c-5.774-8.244-11.621-16.423-17.287-24.732c-19.648-28.836-39.175-57.751-58.889-86.544c-2.225-3.226-2.578-6.026-1.044-9.497
			c9.677-21.902,19.267-43.841,28.908-65.758c1.159-2.649,2.44-5.249,4.176-8.978c15.999-6.552,32.854-13.436,50.939-20.83
			c-10.021-5.292-19.188-10.058-28.267-14.969c-9.094-4.939-18.137-9.993-27.194-14.998c0.166-0.511,0.324-1.015,0.475-1.519
			c3.233,0.598,6.804,0.511,9.662,1.886c19.707,9.526,39.269,19.375,58.86,29.139c0.591,0.288,1.116,0.734,2.578,1.728
			c-2.146,0.777-3.601,1.447-5.112,1.85c-18.532,4.968-36.446,11.729-54.108,19.224c-1.8,0.756-3.521,1.735-6.026,2.988
			c2.066,1.8,3.442,2.995,4.81,4.183L272.247,178.049z"/>
		<path fill="#C28DFF" d="M319.111,220.428c-1.526-1.598-2.794-2.93-4.81-5.033c33.955-5.854,67.183-6.271,100.375-0.389
			c52.171,9.274,97.358,32.307,135.202,69.415c-0.151,0.31-0.311,0.612-0.482,0.929c-8.943-5.163-18.476-9.468-26.698-15.595
			c-38.75-28.8-82.095-45.396-129.981-50.515c-22.558-2.419-45.094-1.958-67.608,0.633
			C323.244,220.097,321.372,220.219,319.111,220.428z"/>
		<path fill="#C28DFF" d="M752.745,419.94c-8.106,2.743-15.934,4.5-23.946,5.184c-7.979,0.67-15.984,0.929-24.574,1.396
			c-8.424,45.102-25.358,86.731-51.559,124.517c29.095-45.575,46.526-95.227,51.71-149.565c16.48-1.209,31.954-5.248,47.391-12.153
			C753.178,399.751,753.084,409.536,752.745,419.94z"/>
		<path fill="#C28DFF" d="M269.906,314.539c-4.874-6.696-9.842-13.312-14.623-20.073c-12.744-18.015-25.401-36.086-38.066-54.151
			c-1.267-1.8-2.354-3.729-3.607-5.731c0.958-2.167,1.743-4.233,2.743-6.192c10.649-20.686,21.363-41.335,31.976-62.035
			c1.116-2.174,1.75-4.594,1.865-7.438c6.473-3.773,12.938-7.545,20.282-11.83c-6.948-5.933-14.393-9.979-21.269-14.767
			c-6.854-4.759-13.795-9.382-20.7-14.069c0.115-0.375,0.23-0.749,0.353-1.138c1.62,0.375,3.499,0.324,4.816,1.167
			c14.307,9.058,28.52,18.259,42.754,27.446c0.36,0.245,0.533,0.799,1.094,1.728c-8.402,4.594-16.718,9.137-25.186,13.767
			c1.562,3.513,3.557,3.333,6.026,2.066c5.926-3.046,11.88-6.048,17.863-9c4.262-2.103,8.575-4.111,14.09-6.747
			c-16.38-10.051-31.831-19.534-48.125-29.535c3.514-1.116,5.868-0.698,8.093,0.583c16.027,9.208,32.047,18.425,48.038,27.662
			c0.555,0.303,0.965,0.857,1.901,1.75c-14.652,6.603-28.879,13.032-44.1,19.894c-12.506,23.263-24.494,47.995-35.208,73.692
			c16.762,24.206,33.379,48.218,49.99,72.23C270.583,314.042,270.245,314.287,269.906,314.539z"/>
		<path fill="#C28DFF" d="M663.091,541.022c17.554-27.986,30.729-57.917,39.65-89.266c15.884,0.432,31.147,0.835,47.283,1.26
			c-1.562,8.669-3.176,17.633-4.86,26.928c-16.085-0.144-30.989-3.766-46.52-7.646C689.436,496.764,677.952,519.775,663.091,541.022
			z"/>
		<path fill="#C28DFF" d="M272.239,177.891c8.417-3.341,16.733-6.956,25.265-9.979c18.576-6.545,37.533-11.7,57.003-14.861
			c1.151-0.194,2.261-0.576,3.57-1.447c-7.596-4.356-15.847-7.149-23.752-10.663c-8.115-3.629-16.309-7.099-24.394-10.792
			c-8.036-3.672-15.999-7.517-23.875-11.708c5.119-0.684,10.065-1.188,14.918,0.958c31.5,13.831,63.59,26.107,96.674,35.662
			c0.439,0.13,0.836,0.432,2.463,1.282c-43.467-0.324-83.801,9.252-122.645,23.976c-2.103-0.907-3.65-1.577-5.206-2.261
			L272.239,177.891z"/>
		<path fill="#C28DFF" d="M233.633,149.4c-5.112,7.884-10.404,15.667-15.3,23.688c-8.107,13.284-15.991,26.712-23.918,40.119
			c-1.116,1.886-1.973,3.924-3.219,6.444c12.802,17.496,25.596,34.999,38.398,52.502c-0.137,0.144-0.252,0.295-0.382,0.439
			c-1.346-1.274-2.909-2.397-3.996-3.859c-12.6-16.855-25.142-33.747-37.67-50.645c-0.597-0.799-0.95-1.778-1.692-3.197
			c13.14-23.162,28.044-45.446,42.883-68.4c-1.49-1.167-2.722-2.138-4.651-3.658c-15.969,22.608-30.845,45.223-45.345,68.803
			c12.096,16.143,24.033,32.062,35.964,47.988c-0.274,0.216-0.555,0.439-0.843,0.648c-13.485-16.855-26.265-34.258-39.888-51.956
			c14.99-23.033,30.082-45.727,46.728-68.256c-7.97-6.897-16.308-14.119-24.639-21.341c0.209-0.245,0.432-0.497,0.648-0.749
			c12.305,10.476,24.617,20.952,36.929,31.42v0.007H233.633z"/>
		<path fill="#C28DFF" d="M517.248,535.91c1.533,2.686,3.175,5.595,5.407,9.512c-33.026,2.246-64.994,3.023-97.251,2.498
			c-2.887-4.737-5.594-9.166-8.164-13.399C450.504,534.981,483.437,535.428,517.248,535.91z"/>
		<path fill="#C28DFF" d="M205.063,229.327c14.436,20.268,28.8,40.435,43.171,60.603c-0.317,0.23-0.634,0.475-0.95,0.713
			c-5.062-6.761-10.203-13.464-15.178-20.283c-9.871-13.55-19.649-27.166-29.455-40.766c-1.289-1.793-2.412-3.694-3.759-5.768
			c1.066-2.261,1.923-4.485,3.104-6.523c11.282-19.57,22.594-39.11,33.94-58.644c2.369-4.061,4.882-8.028,7.798-12.787
			c-11.318-8.827-23.148-18.036-34.97-27.259c0.345-0.425,0.669-0.857,1.022-1.296c12.881,9.604,25.762,19.202,39.075,29.124
			c-3.089,2.477-5.667,4.543-8.395,6.732c3.564,2.023,6.926,0.519,15.019-6.451c-5.854-5.768-12.931-9.807-19.368-14.63
			c-6.365-4.774-12.831-9.425-19.253-14.12c0.195-0.367,0.396-0.741,0.591-1.102c1.303,0.511,2.765,0.792,3.895,1.577
			c12.809,8.849,25.574,17.777,38.326,26.697c0.396,0.267,0.612,0.778,1.396,1.8c-2.405,1.591-4.579,3.478-7.099,4.637
			c-7.675,3.514-12.578,9.381-16.452,16.769c-9.612,18.331-19.699,36.417-29.556,54.626
			C206.892,224.899,206.114,226.973,205.063,229.327z"/>
		<path fill="#C28DFF" d="M533.312,559.706c0.259,1.188,0.611,2.809,1.123,5.264c-32.228,3.794-64.116,6.595-96.229,8.431
			c-1.332-2.304-2.628-4.464-3.837-6.674c-0.634-1.167-1.073-2.434-1.938-4.406c2.441-0.26,4.378-0.526,6.322-0.634
			c28.821-1.685,57.643-3.326,86.465-5.069C528.113,556.452,530.69,556.604,533.312,559.706z"/>
		<path fill="#C28DFF" d="M737.388,507.262c-2.656,6.998-5.119,13.485-7.769,20.448c-7.941-1.858-14.781-5.249-21.715-8.353
			c-6.826-3.046-13.572-6.249-20.679-9.519c-4.63,7.51-8.979,14.573-13.342,21.637c-0.165-0.108-0.324-0.202-0.489-0.31
			c6.825-12.479,13.651-24.991,20.585-37.649C708.156,498.002,722.239,502.459,737.388,507.262z"/>
		<path fill="#C28DFF" d="M450.482,594.67c-1.851-2.988-3.528-5.682-5.631-9.058c32.983-3.823,65.132-7.546,98.094-11.354
			c1.094,1.648,2.534,3.794,4.586,6.854C514.648,586.548,482.774,591.084,450.482,594.67z"/>
		<path fill="#C28DFF" d="M482.875,255.528c-50.436-15.912-102.226-23.868-154.721-27.929
			C382.421,222.041,434.246,230.076,482.875,255.528z"/>
		<path fill="#C28DFF" d="M555.271,587.765c1.022,1.584,2.462,3.809,4.377,6.812c-32.788,7.128-64.965,12.83-97.675,18.267
			c-1.627-2.354-3.117-4.529-5.155-7.488c2.246-0.562,3.759-1.052,5.307-1.317c28.828-4.752,57.65-9.446,86.45-14.213
			C550.599,589.5,552.506,588.636,555.271,587.765z"/>
		<path fill="#C28DFF" d="M571.953,605.52c-33.522,8.734-66.254,16.215-99.562,22.911c-1.505-2.218-2.765-4.09-4.55-6.747
			c33.293-6.659,65.808-12.686,99.072-21.017c-9.504-13.938-18.439-27-27.354-40.061c0.245-0.158,0.476-0.324,0.721-0.482
			C550.678,575.007,561.046,589.874,571.953,605.52z"/>
		<path fill="#C28DFF" d="M680.45,525.83c13.335,7.431,26.107,14.566,39.521,22.047c-2.865,4.953-5.536,9.576-8.488,14.688
			c-14.047-7.653-26.114-16.884-39.153-24.998C674.863,533.887,677.477,530.129,680.45,525.83z"/>
		<path fill="#C28DFF" d="M579.067,610.48c-9.446-13.485-18.389-26.236-27.324-39.002c11.873,13.024,21.471,27.698,32.393,42.718
			c-33.904,10.454-67.312,19.36-101.246,27.619c-1.411-1.729-2.643-3.226-4.651-5.688C512.287,628.1,545.422,620.338,579.067,610.48
			z"/>
		<path fill="#C28DFF" d="M591.293,617.832c-9.655-13.37-18.619-25.769-27.576-38.196c0.223-0.209,0.446-0.446,0.655-0.684
			c1.447,1.274,3.168,2.325,4.312,3.837c8.424,11.189,16.747,22.465,25.049,33.747c0.785,1.059,1.253,2.34,2.182,4.089
			c-33.861,12.457-67.953,22.781-102.348,32.465c-1.419-1.476-2.542-2.656-4.485-4.68
			C523.404,638.77,557.144,629.878,591.293,617.832z"/>
		<path fill="#C28DFF" d="M603.965,622.93c-9.749-13.032-18.706-25.013-27.67-36.994c0.224-0.302,0.461-0.604,0.691-0.914
			c1.145,0.691,2.635,1.145,3.428,2.139c9.547,12.002,18.993,24.091,28.879,36.684c-1.98,1.065-3.233,1.879-4.565,2.441
			c-31.744,13.204-64.13,24.659-96.897,35.057c-4.766,1.519-4.859,1.418-8.107-2.592
			C534.499,647.719,569.131,636.891,603.965,622.93z"/>
		<path fill="#C28DFF" d="M617.004,625.515c-9.813-12.614-18.993-24.43-28.505-36.663c3.125-0.741,5.069,0.274,6.632,2.232
			c8.251,10.253,16.495,20.527,24.703,30.838c0.799,1.022,1.238,2.311,2.022,3.815c-1.757,0.973-3.183,1.836-4.687,2.57
			c-32.242,15.603-65.514,28.649-99.166,40.774c-4.047,1.469-4.068,1.411-7.805-1.858
			C546.257,654.596,581.868,641.88,617.004,625.515z"/>
		<path fill="#C28DFF" d="M630.576,625.327c-9.807-12.053-19.102-23.493-28.987-35.64c2.44-0.375,3.845-0.591,5.386-0.828
			c9.741,11.541,19.311,22.853,29.354,34.747c-2.384,1.663-4.004,3.11-5.876,4.032c-21.29,10.569-42.516,21.29-64.015,31.428
			c-12.377,5.839-25.2,10.663-37.851,15.934c-2.361,0.993-4.773,1.951-7.523-0.749c18.633-7.653,36.979-14.954,55.151-22.68
			C594.425,643.81,612.353,635.472,630.576,625.327z"/>
		<path fill="#C28DFF" d="M615.326,587.419c2.563-0.792,3.96-1.245,5.702-1.793c10.052,11.066,19.995,21.982,30.406,33.444
			c-2.736,1.944-4.867,3.564-7.1,4.997c-30.571,19.605-62.763,36.209-95.847,51.12c-3.254,1.476-6.537,2.951-9.827,4.37
			c-2.066,0.878-4.147,1.454-6.301-0.295c19.095-8.792,38.124-17.216,56.852-26.216c18.764-9.007,37.116-18.842,55.166-30.463
			c-1.224-1.923-2.037-3.557-3.189-4.882c-6.725-7.732-13.579-15.386-20.311-23.126C619.106,592.574,617.58,590.35,615.326,587.419z
			"/>
		<path fill="#C28DFF" d="M693.166,587.131c-12.01-9.886-23.142-19.044-34.791-28.648c2.391-3.153,4.428-5.811,6.812-8.979
			c12.405,9.303,24.019,18,36.331,27.224C698.602,580.349,696.226,583.294,693.166,587.131z"/>
		<path fill="#C28DFF" d="M168.099,205.769c11.088,14.4,22.061,28.685,33.055,42.97c-0.31,0.245-0.62,0.476-0.936,0.728
			c-12.031-15.423-24.077-30.838-35.856-45.943c3.096-7.387,43.582-63.021,48.189-66.435c2.47,2.196,0.482,3.924-0.669,5.559
			c-4.464,6.264-9.072,12.42-13.493,18.713c-8.849,12.585-17.611,25.207-26.359,37.85
			C170.683,201.146,169.589,203.256,168.099,205.769z"/>
		<path fill="#C28DFF" d="M642.189,571.248c3.55-1.814,5.609-2.88,8.273-4.248c10.836,9.648,21.772,19.375,33.105,29.477
			c-2.499,2.384-4.615,4.399-7.287,6.955C664.567,593.524,653.825,582.79,642.189,571.248z"/>
		<path fill="#C28DFF" d="M154.642,198.245c17.085-22.392,33.818-44.33,50.731-66.506c-2.189-2.282-4.032-4.219-5.883-6.156
			c0.13-0.123,0.267-0.259,0.396-0.382c3.017,2.621,6.048,5.249,8.899,7.711c-17.438,22.046-34.027,44.496-50.501,67.687
			c10.944,13.867,21.593,27.353,32.234,40.853c-0.245,0.187-0.489,0.381-0.734,0.583
			C178.308,227.729,166.831,213.444,154.642,198.245z"/>
		<path fill="#C28DFF" d="M667.059,611.827c-2.361,1.375-4.233,2.491-6.314,3.723c-10.648-11.153-21.232-22.248-31.939-33.451
			c1.396-1.34,2.613-2.491,4.349-4.147c1.635,0.994,3.558,1.721,4.903,3.046c9.115,9.028,18.137,18.158,27.115,27.331
			C666.021,609.163,666.389,610.538,667.059,611.827z"/>
		<path fill="#C28DFF" d="M200.16,130.917c-7.567,11.383-16.661,21.615-24.905,32.479c-8.251,10.872-16.646,21.622-25.344,32.882
			c9.807,13.363,20.599,25.416,29.873,38.642c-10.808-13.125-21.615-26.251-32.191-39.11
			C149.983,189.389,195.444,132.962,200.16,130.917z"/>
		<path fill="#C28DFF" d="M172.051,230.335c-10.426-12.42-20.851-24.818-31.543-37.548c0.907-1.663,1.498-3.276,2.52-4.514
			c11.765-14.234,23.573-28.418,35.396-42.588c3.622-4.327,7.272-8.625,11.009-12.852c1.483-1.685,3.233-3.14,5.522-4.068
			c-17.431,21.319-34.877,42.653-52.726,64.49c10.447,12.622,20.426,24.675,30.391,36.742
			C172.426,230.105,172.231,230.227,172.051,230.335z"/>
		<path fill="#C28DFF" d="M639.353,631.08c-5.522,3.643-10.958,7.395-16.581,10.894c-22.803,14.234-46.34,27.151-70.539,38.865
			c-2.526,1.21-5.04,2.866-8.755,1.354C576.698,666.698,608.688,650.152,639.353,631.08z"/>
		<path fill="#C28DFF" d="M136.001,191.081c6.818,8.078,13.298,15.732,19.764,23.385c-0.115,0.101-0.237,0.216-0.36,0.31
			c-6.991-8.057-13.961-16.121-21.355-24.66c18.381-22.371,37.332-43.589,56.729-64.44
			C172.829,147.478,153.979,168.545,136.001,191.081z"/>
		<path fill="#C28DFF" d="M556.905,683.511c23.804-13.724,46.678-26.957,67.788-39.154
			C619.689,649.692,564.869,682.301,556.905,683.511z"/>
		<path fill="#C28DFF" d="M129.693,189.007c0.936-1.642,1.613-3.514,2.852-4.889c10-11.232,20.081-22.377,30.182-33.501
			c8.15-8.964,16.38-17.849,24.948-26.445c-19.195,21.636-38.398,43.279-57.593,64.922
			C129.953,189.065,129.831,189.036,129.693,189.007z"/>
		<path fill="#C28DFF" d="M233.633,149.371c0.49-0.842,0.994-1.678,1.742-2.938c-11.383-9.36-22.608-18.59-33.825-27.828
			c0.273-0.324,0.54-0.655,0.821-0.994c12.009,9.576,24.026,19.138,37.159,29.606c-2.779,1.03-4.334,1.599-5.904,2.174v-0.021
			H233.633z"/>
		<path fill="#C28DFF" d="M389.175,489.247c-10.987-17.396-21.982-34.79-32.969-52.192c0.316-0.181,0.626-0.396,0.95-0.584
			c10.922,17.425,21.866,34.855,32.803,52.294C389.7,488.923,389.434,489.074,389.175,489.247z"/>
		<path fill="#C28DFF" d="M570.83,681.408c12.543-7.676,25.078-15.372,37.534-22.997C604.354,662.631,576.36,680.198,570.83,681.408
			z"/>
	</g>
</g>
</svg>
