<?xml version="1.0" encoding="utf-8"?>
<!-- Generator: Adobe Illustrator 16.0.4, SVG Export Plug-In . SVG Version: 6.00 Build 0)  -->
<!DOCTYPE svg PUBLIC "-//W3C//DTD SVG 1.1//EN" "http://www.w3.org/Graphics/SVG/1.1/DTD/svg11.dtd">
<svg version="1.1" id="Layer_1" xmlns="http://www.w3.org/2000/svg" xmlns:xlink="http://www.w3.org/1999/xlink" x="0px" y="0px"
	 width="896px" height="868px" viewBox="-31.5 -49.5 896 868" enable-background="new -31.5 -49.5 896 868" xml:space="preserve">
<g>
	<path fill="#4CFF38" d="M427.608,410.825c2.44-4.32,5.363-2.743,8.294-2.002c89.215,22.349,178.438,44.748,267.639,67.154
		c14.796,3.708,29.592,7.409,45.115,11.297c-1.613-7.056-5.112-12.37-7.057-18.252c-1.39-4.233-4.053-6.214-8.481-7.431
		c-101.585-27.777-203.119-55.721-304.66-83.671c-8-2.21-6.502-2.261-10.318,4.428c-21.643,38.146-43.243,76.327-64.857,114.487
		c-6.934,12.255-13.859,24.516-21.16,37.396c13.981,1.786,27.237,3.449,40.471,5.206c29.045,3.838,58.075,7.783,87.135,11.592
		c29.059,3.787,58.125,7.388,87.177,11.188c32.811,4.299,65.621,8.575,98.381,13.198c7.819,1.08,14.674,0.173,21.594-3.795
		c7.646-4.392,15.883-7.711,23.767-11.7c1.879-0.957,4.414-1.145,5.58-4.082c-107.28-17.035-214.401-34.049-322.675-51.242
		C392.155,472.385,410.025,441.684,427.608,410.825z"/>
	<path fill="#4CFF38" d="M296.957,559.728c39.506-71.006,78.667-141.4,117.807-211.744
		c104.738,31.205,208.973,62.251,314.935,93.823c-2.628-6.163-4.853-10.678-6.473-15.401c-1.872-5.386-5.047-8.352-10.742-10.159
		c-83.549-26.503-166.997-53.287-250.488-79.978c-16.798-5.378-33.667-10.49-50.386-16.077c-3.463-1.159-5.162-0.764-6.364,2.52
		c-0.339,0.929-0.965,1.764-1.447,2.65c-45.973,84.031-91.93,168.055-137.858,252.101c-1.167,2.131-2.808,4.097-3.104,6.934
		c7.488,1.894,15.127,1.62,22.63,2.332c20.39,1.938,40.795,3.644,61.192,5.4c21.153,1.829,42.308,3.593,63.468,5.407
		c20.398,1.735,40.803,3.507,61.208,5.256c20.656,1.757,41.313,3.492,61.963,5.277c14.602,1.253,29.225,2.506,43.819,3.838
		c4.154,0.382,7.848-0.425,11.585-2.383c8.042-4.169,16.314-7.885,24.43-11.938c1.317-0.648,3.758-0.584,3.196-3.744
		C510.264,582.53,404.071,571.184,296.957,559.728z"/>
	<path fill="#4CFF38" d="M233.733,606.161c-0.345-2.29,0.403-3.031,0.878-3.902c54.403-101.247,108.778-202.486,163.167-303.732
		c3.067-5.702,3.11-5.674,9.698-3.427c98.445,33.581,196.87,67.183,295.352,100.649c2.203,0.749,4.385,2.577,7.661,1.483
		c-2.132-4.976-4.508-9.648-6.092-14.566c-1.476-4.637-4.471-6.689-8.849-8.251c-33.912-12.075-67.752-24.401-101.613-36.619
		c-64.663-23.343-129.334-46.664-194.019-69.991c-5.911-2.124-5.954-2.131-8.95,3.499c-6.616,12.47-13.189,24.97-19.792,37.447
		C316.469,412.113,261.763,515.484,207.079,618.84c-1.375,2.6-2.628,5.249-4.277,8.568c3.398,0.338,6.084,0.691,8.777,0.85
		c11.11,0.611,22.227,1.174,33.343,1.728c43.956,2.16,87.912,4.233,131.861,6.487c44.46,2.282,88.905,4.709,133.352,7.164
		c5.154,0.288,9.863-0.267,14.536-2.852c6.588-3.672,13.515-6.731,20.275-10.072c1.217-0.605,3.24-0.598,2.534-3.176
		C442.887,620.266,338.155,613.512,233.733,606.161z"/>
	<path fill="#4CFF38" d="M180.871,639.064c67.867-130.327,135.792-260.632,203.702-390.938c3.334-6.379,3.355-6.386,9.907-3.902
		c97.258,36.915,194.501,73.843,291.78,110.657c1.894,0.713,3.802,2.722,6.473,1.26c-1.879-4.493-3.859-8.834-5.486-13.298
		c-1.562-4.312-4.276-6.797-8.676-8.539c-71.684-28.318-143.295-56.808-214.913-85.277c-25.747-10.224-51.501-20.412-77.17-30.845
		c-3.794-1.548-6.119-1.649-7.43,2.657c-0.288,0.95-0.922,1.793-1.383,2.686c-24.537,47.765-49.082,95.53-73.605,143.294
		c-46.951,91.49-93.881,183.01-140.926,274.464c-2.174,4.22-3.326,8.237-2.563,12.981c0.396,2.484,1.087,3.543,3.658,3.571
		c4.55,0.044,9.101,0.418,13.651,0.533c49.312,1.39,98.633,2.7,147.945,4.125c44.755,1.289,89.524,2.362,134.272,4.241
		c10.635,0.453,18.843-3.687,27.296-9.439c-103.062-3.809-206.129-7.632-309.219-11.462
		C178.308,642.845,179.849,641.037,180.871,639.064z"/>
	<path fill="#4CFF38" d="M372.247,200.873c3.55-7.021,3.557-7.013,10.887-3.975c96.069,39.845,192.146,79.689,288.209,119.542
		c1.317,0.54,2.526,1.757,4.392,0.238c-1.599-3.794-3.571-7.582-4.795-11.6c-1.483-4.853-4.752-7.121-9.202-9.036
		c-94.593-40.759-189.129-81.648-283.68-122.508c-8.287-3.578-8.287-3.578-12.326,4.515
		c-67.421,135.079-134.784,270.194-202.407,405.166c-4.658,9.295-8.438,18.122-5.81,28.706c0.706,2.851,0.108,6.026,0.108,9.684
		c3.218-1.123,3.348-3.196,4.075-4.637C231.926,478.303,302.09,339.581,372.247,200.873z"/>
	<path fill="#4CFF38" d="M660.629,281.657c-2.211-5.263-3.888-8.662-5.062-12.226c-1.62-4.903-4.796-7.56-9.54-9.756
		c-92.606-42.747-185.134-85.702-277.683-128.614c-2.282-1.059-4.551-2.174-6.861-3.183c-1.541-0.669-2.909-0.568-3.744,1.224
		c-0.634,1.368-1.433,2.657-2.096,4.011C288.85,270.41,222.069,407.692,155.297,544.976c-1.087,2.246-2.261,4.421-2.16,7.142
		c0.245,6.668,0.813,13.27,2.974,20.081c69.444-140.947,138.888-281.873,208.462-423.086
		C462.975,193.176,560.995,237.053,660.629,281.657z"/>
	<path fill="#4CFF38" d="M762.516,517.889c-1.642-3.859-2.513-7.841-7.941-8.942c-18.525-3.78-36.943-8.063-55.39-12.218
		c-55.087-12.428-110.167-24.92-165.262-37.332c-30.743-6.927-61.531-13.659-92.246-20.751c-3.392-0.785-4.918-0.23-6.581,2.671
		c-5.982,10.52-12.232,20.873-18.626,31.709c2.656,1.534,4.91,1.8,7.143,2.239c22.55,4.27,45.101,8.583,67.651,12.902
		c38.411,7.344,76.81,14.681,115.221,22.039c38.398,7.352,76.824,14.624,115.193,22.141c18.115,3.563,18.064,3.794,34.293-4.141
		c1.131-0.547,2.283-1.051,3.406-1.62C765.036,523.778,765.028,523.778,762.516,517.889z"/>
	<path fill="#4CFF38" d="M499.263,176.537c48.183,23.019,96.351,46.087,146.152,69.919c-1.548-3.694-2.585-5.659-3.211-7.754
		c-2.218-7.445-6.934-11.844-14.091-15.329c-69.566-33.848-138.945-68.098-208.367-102.248
		c-21.925-10.786-43.819-21.614-65.744-32.415c-5.342-2.628-5.35-2.592-8.049,3.003c-0.224,0.453-0.461,0.9-0.677,1.354
		c-63.994,134.741-127.923,269.496-192.118,404.136c-4.716,9.907-2.246,19.188-0.518,28.987
		c67.075-139.572,134.15-279.151,201.333-418.946C402.869,130.565,451.072,153.525,499.263,176.537z"/>
	<path fill="#4CFF38" d="M236.578,296.77c34.913-74.347,69.811-148.709,104.724-223.056c2.714-5.789,2.765-5.774,8.475-2.938
		c0.899,0.447,1.828,0.872,2.722,1.325c87.062,44,174.117,88.013,261.172,132.005c5.127,2.585,10.261,5.134,15.38,7.697
		c-1.397-6.501-2.649-12.067-8.979-15.307c-80.985-41.486-161.842-83.218-242.733-124.891c-11.196-5.774-22.421-11.499-33.545-17.41
		c-2.729-1.454-4.515-1.454-6.278,1.325c-2.427,3.809-5.508,7.121-7.452,11.347c-16.006,34.798-32.17,69.509-48.298,104.249
		c-44.143,95.069-88.286,190.138-132.437,285.192c-3.002,6.479-3.067,19.166,0.036,25.948c0.734-1.483,1.425-2.815,2.059-4.184
		C179.813,417.65,208.202,357.213,236.578,296.77z"/>
	<path fill="#4CFF38" d="M288.475,118.116c-6.25,8.503-14.062,15.876-18.525,25.697c-40.838,89.856-81.634,179.741-122.767,269.467
		c-4.32,9.417-2.815,18.252-1.858,28.62c12.413-22.313,152.546-329.631,152.942-335.391
		C294.127,109.786,291.42,114.113,288.475,118.116z"/>
	<path fill="#4CFF38" d="M241.949,177.977c-3.917,3.183-6.559,7.539-9.59,11.463c-5.969,7.747-12.291,15.142-16.351,24.365
		c-23.717,53.885-47.657,107.683-71.921,161.33c-3.946,8.734-2.83,16.935-0.497,25.791c33.278-73.951,66.571-147.91,99.85-221.861
		C242.95,178.704,242.453,178.344,241.949,177.977z"/>
	<path fill="#4CFF38" d="M171.605,269.445c-9.807,22.63-19.289,45.411-29.7,67.759c-3.809,8.158-4.054,15.768-1.807,25.027
		c5.746-8.481,53.006-116.554,53.035-122.227C185.782,249.689,176.587,257.969,171.605,269.445z"/>
	<path fill="#4CFF38" d="M150.653,293.313c-4.45,5.652-8.885,11.318-13.349,16.956c-0.799,1.015-1.512,2.074-1.418,3.384
		c0.31,4.486,0.706,8.979,1.073,13.464c0.446,0.036,0.878,0.079,1.325,0.129c4.702-11.059,9.403-22.111,14.098-33.163
		C151.805,293.825,151.229,293.565,150.653,293.313z"/>
</g>
</svg>
