<?xml version="1.0" encoding="utf-8"?>
<!-- Generator: Adobe Illustrator 16.0.4, SVG Export Plug-In . SVG Version: 6.00 Build 0)  -->
<!DOCTYPE svg PUBLIC "-//W3C//DTD SVG 1.1//EN" "http://www.w3.org/Graphics/SVG/1.1/DTD/svg11.dtd">
<svg version="1.1" id="Layer_1" xmlns="http://www.w3.org/2000/svg" xmlns:xlink="http://www.w3.org/1999/xlink" x="0px" y="0px"
	 width="600px" height="600px" viewBox="93.014 90.107 600 600" enable-background="new 93.014 90.107 600 600"
	 xml:space="preserve">
<g>
	<path fill="#4CFF38" d="M403.818,474.766c2.512-4.449,5.521-2.826,8.54-2.062c91.861,23.012,183.731,46.075,275.578,69.146
		c15.235,3.817,30.469,7.629,46.454,11.633c-1.661-7.267-5.264-12.737-7.267-18.794c-1.432-4.358-4.173-6.398-8.732-7.652
		c-104.599-28.6-209.144-57.373-313.698-86.152c-8.237-2.275-6.695-2.328-10.624,4.561c-22.285,39.277-44.526,78.59-66.781,117.882
		c-7.14,12.619-14.271,25.243-21.788,38.506c14.396,1.839,28.045,3.551,41.671,5.36c29.907,3.952,59.797,8.014,89.721,11.937
		c29.92,3.898,59.848,7.606,89.762,11.52c33.784,4.426,67.567,8.828,101.299,13.59c8.05,1.111,15.11,0.177,22.234-3.908
		c7.873-4.522,16.354-7.939,24.473-12.047c1.935-0.986,4.546-1.18,5.746-4.203c-110.462-17.541-220.762-35.059-332.247-52.763
		C367.313,538.15,385.714,506.538,403.818,474.766z"/>
	<path fill="#4CFF38" d="M269.291,628.085c40.678-73.113,81.001-145.595,121.302-218.026
		c107.844,32.13,215.173,64.098,324.277,96.606c-2.706-6.347-4.998-10.995-6.666-15.857c-1.928-5.547-5.195-8.601-11.06-10.46
		c-86.027-27.289-171.95-54.869-257.919-82.351c-17.295-5.538-34.666-10.801-51.88-16.555c-3.566-1.193-5.315-0.787-6.553,2.595
		c-0.349,0.957-0.993,1.816-1.49,2.728c-47.336,86.523-94.656,173.04-141.947,259.58c-1.201,2.194-2.891,4.217-3.196,7.14
		c7.71,1.949,15.576,1.667,23.301,2.4c20.995,1.995,42.005,3.753,63.007,5.56c21.78,1.885,43.562,3.7,65.351,5.569
		c21.003,1.785,42.014,3.61,63.022,5.411c21.27,1.809,42.539,3.596,63.803,5.434c15.034,1.29,30.092,2.58,45.118,3.951
		c4.277,0.394,8.08-0.437,11.93-2.453c8.279-4.292,16.796-8.119,25.154-12.292c1.355-0.668,3.869-0.602,3.29-3.855
		C488.926,651.562,379.583,639.88,269.291,628.085z"/>
	<path fill="#4CFF38" d="M204.192,675.895c-0.355-2.357,0.415-3.121,0.904-4.018C261.113,567.626,317.1,463.385,373.104,359.135
		c3.157-5.871,3.202-5.842,9.984-3.529c101.366,34.577,202.71,69.176,304.113,103.634c2.269,0.771,4.516,2.654,7.89,1.528
		c-2.196-5.124-4.641-9.935-6.272-14.999c-1.521-4.773-4.605-6.887-9.112-8.495c-34.918-12.434-69.762-25.125-104.628-37.706
		c-66.58-24.035-133.169-48.048-199.773-72.067c-6.086-2.187-6.131-2.194-9.216,3.603c-6.812,12.839-13.58,25.71-20.379,38.557
		C289.382,476.091,233.053,582.527,176.747,688.95c-1.415,2.677-2.706,5.403-4.404,8.822c3.5,0.348,6.265,0.71,9.038,0.874
		c11.439,0.63,22.887,1.209,34.332,1.78c45.26,2.224,90.52,4.358,135.772,6.679c45.779,2.35,91.542,4.849,137.307,7.377
		c5.308,0.296,10.156-0.275,14.969-2.937c6.783-3.78,13.914-6.931,20.877-10.371c1.253-0.622,3.334-0.616,2.608-3.271
		C419.55,690.418,311.712,683.464,204.192,675.895z"/>
	<path fill="#4CFF38" d="M149.762,709.773c69.879-134.192,139.82-268.363,209.744-402.535c3.433-6.568,3.454-6.575,10.202-4.017
		c100.143,38.01,200.271,76.033,300.434,113.939c1.951,0.734,3.915,2.803,6.666,1.298c-1.936-4.626-3.974-9.097-5.648-13.693
		c-1.608-4.439-4.404-6.999-8.934-8.792c-73.812-29.158-147.545-58.493-221.287-87.807c-26.512-10.527-53.029-21.017-79.46-31.76
		c-3.907-1.594-6.301-1.698-7.651,2.736c-0.296,0.979-0.949,1.846-1.424,2.766c-25.265,49.182-50.538,98.364-75.788,147.544
		c-48.344,94.204-96.666,188.439-145.106,282.606c-2.239,4.345-3.425,8.48-2.639,13.365c0.408,2.559,1.119,3.647,3.766,3.678
		c4.685,0.045,9.371,0.431,14.057,0.549c50.774,1.431,101.559,2.779,152.333,4.247c46.083,1.327,92.18,2.433,138.256,4.367
		c10.95,0.467,19.4-3.797,28.104-9.72c-106.12-3.921-212.244-7.857-318.392-11.802C147.123,713.666,148.709,711.805,149.762,709.773
		z"/>
	<path fill="#4CFF38" d="M346.814,258.584c3.655-7.229,3.663-7.221,11.21-4.093c98.92,41.027,197.847,82.052,296.759,123.087
		c1.355,0.556,2.601,1.81,4.523,0.245c-1.647-3.906-3.68-7.806-4.938-11.943c-1.528-4.997-4.894-7.333-9.477-9.305
		c-97.399-41.968-194.738-84.07-292.095-126.142c-8.532-3.685-8.532-3.685-12.69,4.649
		c-69.421,139.085-138.782,278.208-208.411,417.184c-4.796,9.571-8.688,18.659-5.982,29.558c0.727,2.936,0.111,6.205,0.111,9.972
		c3.313-1.156,3.448-3.291,4.196-4.775C202.331,544.243,274.577,401.407,346.814,258.584z"/>
	<path fill="#4CFF38" d="M643.75,341.765c-2.276-5.419-4.002-8.919-5.211-12.589c-1.668-5.049-4.938-7.785-9.823-10.046
		c-95.353-44.015-190.626-88.244-285.92-132.429c-2.349-1.091-4.686-2.239-7.063-3.278c-1.587-0.688-2.996-0.585-3.855,1.26
		c-0.653,1.409-1.477,2.736-2.159,4.13c-68.773,141.37-137.536,282.725-206.289,424.08c-1.119,2.313-2.328,4.554-2.224,7.354
		c0.252,6.866,0.837,13.663,3.062,20.678c71.504-145.129,143.008-290.235,214.646-435.636
		C440.234,250.659,541.162,295.837,643.75,341.765z"/>
	<path fill="#4CFF38" d="M748.659,585.004c-1.689-3.973-2.586-8.073-8.175-9.207c-19.075-3.893-38.039-8.302-57.033-12.581
		c-56.722-12.796-113.437-25.659-170.164-38.438c-31.655-7.134-63.357-14.064-94.983-21.366c-3.493-0.809-5.064-0.237-6.777,2.75
		c-6.159,10.831-12.594,21.492-19.178,32.649c2.734,1.579,5.056,1.854,7.355,2.305c23.219,4.397,46.438,8.838,69.658,13.285
		c39.551,7.562,79.088,15.116,118.639,22.692c39.536,7.57,79.102,15.059,118.609,22.798c18.652,3.669,18.6,3.906,35.31-4.264
		c1.165-0.562,2.352-1.082,3.508-1.668C751.255,591.068,751.248,591.068,748.659,585.004z"/>
	<path fill="#4CFF38" d="M477.597,233.526c49.615,23.702,99.211,47.454,150.489,71.993c-1.595-3.804-2.662-5.827-3.307-7.984
		c-2.283-7.666-7.141-12.195-14.509-15.784c-71.63-34.852-143.066-70.118-214.548-105.281
		c-22.575-11.106-45.119-22.255-67.694-33.376c-5.5-2.706-5.508-2.669-8.288,3.092c-0.231,0.466-0.475,0.927-0.697,1.394
		c-65.893,138.738-131.718,277.49-197.817,416.125c-4.856,10.2-2.313,19.756-0.533,29.846
		c69.064-143.712,138.129-287.431,207.304-431.373C378.345,186.19,427.979,209.832,477.597,233.526z"/>
	<path fill="#4CFF38" d="M207.122,357.326c35.948-76.553,71.881-153.121,107.83-229.673c2.794-5.961,2.848-5.945,8.727-3.025
		c0.925,0.46,1.883,0.897,2.803,1.364c89.644,45.305,179.283,90.624,268.919,135.92c5.279,2.662,10.564,5.287,15.836,7.925
		c-1.438-6.694-2.728-12.425-9.246-15.761c-83.386-42.717-166.641-85.687-249.933-128.596c-11.528-5.945-23.086-11.84-34.54-17.927
		c-2.81-1.497-4.648-1.497-6.464,1.365c-2.499,3.922-5.671,7.332-7.672,11.684c-16.481,35.83-33.125,71.571-49.731,107.341
		c-45.453,97.889-90.905,195.778-136.365,293.652c-3.091,6.671-3.158,19.733,0.037,26.718c0.756-1.526,1.467-2.898,2.12-4.309
		C148.673,481.792,177.904,419.562,207.122,357.326z"/>
	<path fill="#4CFF38" d="M260.558,173.373c-6.436,8.755-14.479,16.347-19.075,26.459c-42.05,92.521-84.056,185.072-126.409,277.461
		c-4.448,9.695-2.898,18.792-1.913,29.469c12.781-22.976,157.071-339.41,157.479-345.341
		C266.377,164.795,263.59,169.25,260.558,173.373z"/>
	<path fill="#4CFF38" d="M212.652,235.009c-4.033,3.278-6.754,7.762-9.875,11.803c-6.146,7.977-12.656,15.591-16.836,25.088
		c-24.42,55.483-49.07,110.878-74.054,166.116c-4.063,8.993-2.914,17.438-0.512,26.556
		c34.266-76.145,68.546-152.297,102.812-228.441C213.683,235.758,213.171,235.387,212.652,235.009z"/>
	<path fill="#4CFF38" d="M140.221,329.19c-10.099,23.302-19.861,46.759-30.582,69.77c-3.922,8.4-4.174,16.236-1.86,25.769
		c5.916-8.732,54.578-120.012,54.607-125.853C154.818,308.848,145.351,317.374,140.221,329.19z"/>
	<path fill="#4CFF38" d="M118.647,353.766c-4.582,5.82-9.148,11.654-13.745,17.459c-0.823,1.045-1.557,2.135-1.46,3.484
		c0.319,4.62,0.726,9.246,1.104,13.864c0.459,0.037,0.904,0.081,1.364,0.133c4.841-11.387,9.682-22.767,14.516-34.146
		C119.834,354.294,119.24,354.026,118.647,353.766z"/>
</g>
</svg>
