<?xml version="1.0" encoding="utf-8"?>
<!-- Generator: Adobe Illustrator 16.0.4, SVG Export Plug-In . SVG Version: 6.00 Build 0)  -->
<!DOCTYPE svg PUBLIC "-//W3C//DTD SVG 1.1//EN" "http://www.w3.org/Graphics/SVG/1.1/DTD/svg11.dtd">
<svg version="1.1" id="Layer_1" xmlns="http://www.w3.org/2000/svg" xmlns:xlink="http://www.w3.org/1999/xlink" x="0px" y="0px"
	 width="830px" height="1050px" viewBox="0 0 830 1050" enable-background="new 0 0 830 1050" xml:space="preserve">
<path fill="#FFBAD5" d="M433.562,679.001c44.803,0,82.902,15.703,114.299,47.101c31.406,31.406,47.101,69.506,47.101,114.299
	c0,44.4-15.694,82.304-47.101,113.701c-31.396,31.406-69.496,47.1-114.299,47.1c-44.4,0-82.397-15.6-114-46.801
	c-31.594-31.199-47.4-69.196-47.4-114c0-44.793,15.703-82.893,47.1-114.299C350.668,694.704,388.768,679.001,433.562,679.001z
	 M433.562,941.201c27.6,0,51.402-9.797,71.399-29.4c20.007-19.594,30-43.396,30-71.4c0-27.6-9.993-51.393-30-71.399
	c-19.997-19.997-43.8-30-71.399-30c-27.994,0-51.9,9.899-71.701,29.7c-19.8,19.8-29.7,43.706-29.7,71.699
	c0,28.004,9.806,51.807,29.4,71.4C381.165,931.404,405.165,941.201,433.562,941.201z"/>
<path fill="#FFBAD5" d="M293.762,596.207c-14.4-21.994-21.6-45.994-21.6-72c0-36.393,12.806-67.396,38.4-93
	c25.603-25.594,56.606-38.4,93-38.4h191.4v60h-191.4c-19.594,0-36.394,7.004-50.4,21c-13.997,14.008-21,30.807-21,50.4
	c0,20.006,7.003,37.004,21,51c14.006,14.006,30.806,21,50.4,21h191.4v60h-322.8v-60H293.762z"/>
<path fill="#FFBAD5" d="M462.962,305.209c21.206-6.395,38.503-18.497,51.899-36.301c13.406-17.793,20.101-38.1,20.101-60.899
	c0-30.394-11.597-55.594-34.8-75.601l38.4-45.6c18,15.206,31.902,33.206,41.699,54c9.807,20.803,14.7,43.2,14.7,67.2
	c0,44.803-15.797,83.006-47.399,114.6c-31.594,31.604-69.797,47.4-114.601,47.4c-44.794,0-82.8-15.797-114-47.4
	c-31.2-31.594-46.8-69.797-46.8-114.6c0-43.997,15.6-81.797,46.8-113.4c31.2-31.594,69.206-47.399,114-47.399h30V305.209z
	 M402.962,112.009c-20.4,6.403-37.294,18.6-50.7,36.6c-13.396,18-20.1,37.8-20.1,59.4c0,22.8,6.506,43.106,19.5,60.899
	c13.003,17.804,30.103,29.906,51.3,36.301V112.009z"/>
</svg>
