<?xml version="1.0" encoding="utf-8"?>
<!-- Generator: Adobe Illustrator 16.0.4, SVG Export Plug-In . SVG Version: 6.00 Build 0)  -->
<!DOCTYPE svg PUBLIC "-//W3C//DTD SVG 1.1//EN" "http://www.w3.org/Graphics/SVG/1.1/DTD/svg11.dtd">
<svg version="1.1" id="Layer_1" xmlns="http://www.w3.org/2000/svg" xmlns:xlink="http://www.w3.org/1999/xlink" x="0px" y="0px"
	 width="510px" height="1320px" viewBox="107.5 0 510 1320" enable-background="new 107.5 0 510 1320" xml:space="preserve">
<path fill="#FFBAD5" d="M345.11,1261.999v43.2h-60v-43.2h-157.2v-60h157.2v-45h60v45h180c6-4.8,12-10.997,18-18.601
	c6-7.595,9-18.196,9-31.799c0-7.595-1.397-15.602-4.2-24h60c0,42.806-5.794,75.898-17.4,99.299
	c-11.597,23.399-33.394,35.101-65.398,35.101H345.11z"/>
<path fill="#FFBAD5" d="M306.71,1061.543c-14.4-21.994-21.6-45.994-21.6-72c0-36.394,12.806-67.396,38.4-93
	c25.604-25.594,56.606-38.4,93-38.4h191.4v60h-191.4c-19.594,0-36.394,7.004-50.399,21c-13.997,14.008-21,30.808-21,50.4
	c0,20.006,7.003,37.004,21,51c14.006,14.006,30.806,21,50.399,21h191.4v60h-480v-60H306.71z"/>
<path fill="#FFBAD5" d="M362.51,654.444c-11.597,13.604-17.399,29.006-17.399,46.199c0,20.007,7.003,37.003,21,51
	c14.006,14.007,30.806,21,50.399,21h191.4v60h-322.8v-60h21.6c-14.4-21.993-21.6-45.993-21.6-72c0-33.601,11.006-62.597,33-87
	L362.51,654.444z"/>
<path fill="#FFBAD5" d="M475.91,592.049c21.206-6.395,38.503-18.497,51.899-36.301c13.406-17.793,20.101-38.1,20.101-60.899
	c0-30.394-11.598-55.594-34.8-75.601l38.398-45.6c18,15.206,31.903,33.206,41.7,54c9.807,20.803,14.7,43.199,14.7,67.199
	c0,44.804-15.797,83.006-47.4,114.601c-31.594,31.604-69.797,47.399-114.6,47.399c-44.794,0-82.8-15.797-114-47.399
	c-31.2-31.595-46.8-69.797-46.8-114.601c0-43.997,15.6-81.797,46.8-113.4c31.2-31.594,69.206-47.399,114-47.399h30L475.91,592.049
	L475.91,592.049z M415.91,398.849c-20.4,6.403-37.294,18.6-50.7,36.6c-13.396,18-20.1,37.8-20.1,59.399
	c0,22.801,6.506,43.106,19.5,60.899c13.003,17.804,30.103,29.906,51.3,36.301V398.849L415.91,398.849z"/>
<path fill="#FFBAD5" d="M475.91,262.83c21.206-6.395,38.503-18.497,51.899-36.301c13.406-17.793,20.101-38.1,20.101-60.899
	c0-30.394-11.598-55.594-34.8-75.601l38.398-45.6c18,15.206,31.903,33.206,41.7,54c9.807,20.803,14.7,43.2,14.7,67.2
	c0,44.803-15.797,83.006-47.4,114.6c-31.594,31.604-69.797,47.4-114.6,47.4c-44.794,0-82.8-15.797-114-47.4
	c-31.2-31.594-46.8-69.797-46.8-114.6c0-43.997,15.6-81.797,46.8-113.4c31.2-31.594,69.206-47.399,114-47.399h30L475.91,262.83
	L475.91,262.83z M415.91,69.63c-20.4,6.403-37.294,18.6-50.7,36.6c-13.396,18-20.1,37.8-20.1,59.4c0,22.8,6.506,43.106,19.5,60.899
	c13.003,17.804,30.103,29.906,51.3,36.301V69.63L415.91,69.63z"/>
</svg>
