<?xml version="1.0" encoding="utf-8"?>
<!-- Generator: Adobe Illustrator 16.0.4, SVG Export Plug-In . SVG Version: 6.00 Build 0)  -->
<!DOCTYPE svg PUBLIC "-//W3C//DTD SVG 1.1//EN" "http://www.w3.org/Graphics/SVG/1.1/DTD/svg11.dtd">
<svg version="1.1" id="Layer_1" xmlns="http://www.w3.org/2000/svg" xmlns:xlink="http://www.w3.org/1999/xlink" x="0px" y="0px"
	 width="520px" height="935.19px" viewBox="0 0 520 935.19" enable-background="new 0 0 520 935.19" xml:space="preserve">
<path fill="#FFBAD5" d="M239.917,875.988v43.201h-60v-43.201h-157.2v-60h157.2v-45h60v45h180c6-4.799,12-10.996,18-18.6
	c6-7.594,9-18.197,9-31.8c0-7.594-1.396-15.601-4.199-24h60c0,42.806-5.794,75.899-17.4,99.3c-11.597,23.4-33.395,35.1-65.4,35.1
	H239.917z"/>
<path fill="#FFBAD5" d="M254.917,535.674l247.8,76.79v48.009l-322.8,106.201v-60.01l217.519-69.666L179.88,565.805l0.084-64.2
	l218.531-71.334l-218.662-64.106l0.084-60.29l322.8,100.199v47.991L254.917,535.674z"/>
<path fill="#FFBAD5" d="M341.317,12.117c44.803,0,82.902,15.703,114.3,47.1c31.407,31.406,47.101,69.507,47.101,114.301
	c0,44.399-15.693,82.303-47.101,113.699c-31.397,31.406-69.497,47.101-114.3,47.101c-44.4,0-82.397-15.601-114-46.8
	c-31.594-31.2-47.4-69.197-47.4-114c0-44.794,15.703-82.895,47.1-114.301C258.423,27.82,296.523,12.117,341.317,12.117z
	 M341.317,274.317c27.6,0,51.402-9.797,71.4-29.4c20.006-19.594,30-43.396,30-71.399c0-27.601-9.994-51.395-30-71.4
	c-19.998-19.997-43.801-30-71.4-30c-27.994,0-51.9,9.9-71.7,29.7c-19.8,19.8-29.7,43.706-29.7,71.7
	c0,28.003,9.806,51.806,29.4,71.399C288.92,264.521,312.92,274.317,341.317,274.317z"/>
</svg>
